<svg width="32" height="32" viewBox="0 0 32 32" fill="none" xmlns="http://www.w3.org/2000/svg">
<path fill-rule="evenodd" clip-rule="evenodd" d="M6.08 21.44V16.32H6.72V21.44C6.72 25.8582 10.3018 29.44 14.72 29.44C19.1382 29.44 22.72 25.8582 22.72 21.44V18.88H23.36V21.44C23.36 26.2118 19.4918 30.08 14.72 30.08C9.94816 30.08 6.08 26.2118 6.08 21.44ZM20.16 3.84C19.3962 3.84 18.6636 4.14342 18.1235 4.68353C17.5834 5.22363 17.28 5.95617 17.28 6.72V7.36H16.64V6.72C16.64 4.776 18.216 3.2 20.16 3.2V3.84ZM25.92 3.84C26.6838 3.84 27.4164 4.14342 27.9565 4.68353C28.4966 5.22363 28.8 5.95617 28.8 6.72V7.36H29.44V6.72C29.44 4.776 27.864 3.2 25.92 3.2V3.84Z" fill="#1E1E1E"/>
<path d="M16.96 7.04C16.7054 7.04 16.4612 7.14114 16.2812 7.32118C16.1011 7.50121 16 7.74539 16 8V9.6C16 12.8723 18.233 15.6234 21.2582 16.4128C21.7226 16.5338 22.08 16.9331 22.08 17.4131V18.56C22.08 18.8146 22.1811 19.0588 22.3612 19.2388C22.5412 19.4189 22.7854 19.52 23.04 19.52C23.2946 19.52 23.5388 19.4189 23.7188 19.2388C23.8989 19.0588 24 18.8146 24 18.56V17.4131C24 16.9331 24.3574 16.5338 24.8218 16.4125C27.847 15.6234 30.08 12.8723 30.08 9.6V8C30.08 7.74539 29.9789 7.50121 29.7988 7.32118C29.6188 7.14114 29.3746 7.04 29.12 7.04C28.8654 7.04 28.6212 7.14114 28.4412 7.32118C28.2611 7.50121 28.16 7.74539 28.16 8V9.6C28.16 12.4278 25.8678 14.72 23.04 14.72C20.2122 14.72 17.92 12.4278 17.92 9.6V8C17.92 7.74539 17.8189 7.50121 17.6388 7.32118C17.4588 7.14114 17.2146 7.04 16.96 7.04Z" fill="#CACACA"/>
<path d="M6.4 17.92C8.87423 17.92 10.88 15.9142 10.88 13.44C10.88 10.9658 8.87423 8.96 6.4 8.96C3.92576 8.96 1.92 10.9658 1.92 13.44C1.92 15.9142 3.92576 17.92 6.4 17.92Z" fill="#E1E1E1"/>
<path d="M6.4 16C7.81385 16 8.96 14.8538 8.96 13.44C8.96 12.0261 7.81385 10.88 6.4 10.88C4.98615 10.88 3.84 12.0261 3.84 13.44C3.84 14.8538 4.98615 16 6.4 16Z" fill="#CACACA"/>
<path d="M20.16 2.88C20.16 2.62539 20.2611 2.38121 20.4412 2.20118C20.6212 2.02114 20.8654 1.92 21.12 1.92C21.3746 1.92 21.6188 2.02114 21.7988 2.20118C21.9789 2.38121 22.08 2.62539 22.08 2.88V4.16C22.08 4.41461 21.9789 4.65879 21.7988 4.83882C21.6188 5.01886 21.3746 5.12 21.12 5.12C20.8654 5.12 20.6212 5.01886 20.4412 4.83882C20.2611 4.65879 20.16 4.41461 20.16 4.16V2.88ZM25.92 2.88C25.92 2.62539 25.8189 2.38121 25.6388 2.20118C25.4588 2.02114 25.2146 1.92 24.96 1.92C24.7054 1.92 24.4612 2.02114 24.2812 2.20118C24.1011 2.38121 24 2.62539 24 2.88V4.16C24 4.41461 24.1011 4.65879 24.2812 4.83882C24.4612 5.01886 24.7054 5.12 24.96 5.12C25.2146 5.12 25.4588 5.01886 25.6388 4.83882C25.8189 4.65879 25.92 4.41461 25.92 4.16V2.88Z" fill="#CACACA"/>
</svg>
