<svg width="32" height="32" viewBox="0 0 32 32" fill="none" xmlns="http://www.w3.org/2000/svg">
<g clip-path="url(#clip0_107_3146)">
<path d="M32.0507 31.9334C32.1173 31.5336 32.5171 30.2012 32.7835 29.4682C33.1166 28.6688 33.583 27.5362 33.583 27.5362C33.583 27.5362 33.7162 27.6028 33.9161 28.269C34.116 28.8686 34.8488 31.4003 34.9821 31.9334H38.5798C38.8463 30.5343 38.7797 25.7373 38.7797 25.7373L35.5817 21.6732C35.5817 21.6732 30.5183 22.4061 29.4523 24.8712C28.453 27.1364 28.7861 31.2671 28.8527 31.9999H32.0507V31.9334Z" fill="#415A6B"/>
<path d="M33.4498 10.0807C33.4498 10.0807 33.3165 10.014 32.8501 10.2806C32.3172 10.5471 31.3844 10.6137 31.1179 10.6137L30.8514 10.6803C30.8514 10.6803 32.1839 13.4119 31.9174 14.811C31.6509 16.2101 28.986 23.4055 28.6528 24.2716C28.3863 25.1378 28.2531 25.5375 28.2531 25.5375C28.2531 25.5375 29.7854 26.7367 30.4517 26.9366C31.1179 27.1365 31.6509 27.2697 32.1173 26.2703C32.5837 25.271 34.1827 21.0737 34.3825 19.2748C34.5158 17.4093 33.7829 10.4138 33.7829 10.4138L33.4498 10.0807Z" fill="#344A5E"/>
<path d="M32.517 19.6079C32.517 19.6079 31.5843 19.4747 31.3178 18.4753C31.1179 17.4093 32.517 18.6752 32.517 19.6079Z" fill="#FFD15C"/>
<path d="M36.4478 18.6086C36.4478 18.6086 35.5817 18.6752 34.4491 18.7418C33.1832 18.8084 31.6509 18.8084 30.7182 18.6751C30.5183 18.6085 30.3184 18.6085 30.1852 18.5419C28.7861 18.0089 29.0526 15.8769 29.0526 15.8769C29.0526 15.8769 29.9853 12.2126 30.3185 11.4797C30.6516 10.7469 30.9181 10.7469 30.9181 10.7469C30.9181 10.7469 32.2506 13.4785 31.9841 14.8776C31.9175 15.0774 31.8509 15.4105 31.7176 15.8103C31.7176 15.8103 32.3172 16.0768 32.9835 16.2767C33.6498 16.4765 33.5831 16.2767 33.9829 16.2767H34.3826C35.1154 16.2767 36.448 16.4099 36.448 16.4099C36.7143 16.8763 36.4478 18.6086 36.4478 18.6086Z" fill="#415A6B"/>
<path d="M32.3171 16.2101C32.3171 16.2101 32.0506 15.0109 31.984 14.9442C31.9174 14.811 31.8508 14.811 31.7842 14.9442L31.5843 14.6111C31.5843 14.6111 31.3178 14.5445 31.3844 14.8776C31.3844 14.8776 31.1845 14.811 31.1845 15.0775C31.1845 15.344 31.3178 15.4772 31.3178 15.4772C31.3178 15.4772 31.1179 15.5439 31.2511 16.0102C31.3844 16.4766 31.3844 16.6098 31.3844 16.6098L32.3171 16.2101Z" fill="#FFD15C"/>
<path d="M31.8508 15.1441C31.8508 15.2107 31.8508 15.2773 31.9174 15.344C31.9174 15.4106 31.9841 15.4772 31.9841 15.5438C31.9841 15.6105 31.9841 15.6105 32.0507 15.6771C32.0507 15.7437 32.1174 15.7437 32.1174 15.7437C32.1174 15.8103 32.184 15.8769 32.184 15.9436C32.184 15.9436 32.184 16.0102 32.2507 16.0102V15.9436C32.2507 15.8769 32.184 15.8103 32.184 15.7437C32.184 15.7437 32.184 15.6771 32.1174 15.6771C32.1174 15.6104 32.1174 15.6104 32.0507 15.5438C32.0507 15.4772 31.9841 15.4106 31.9841 15.344C31.9174 15.2107 31.9174 15.1441 31.8508 15.1441ZM31.451 14.811C31.5177 14.8776 31.5177 14.9442 31.5843 15.0109C31.5843 15.0775 31.6509 15.1441 31.6509 15.2107C31.6509 15.2774 31.6509 15.2774 31.7176 15.344C31.7176 15.4106 31.7176 15.4106 31.7842 15.4772C31.7842 15.5438 31.8508 15.6104 31.8508 15.6771C31.8508 15.7437 31.9175 15.8103 31.9175 15.8769C31.9841 16.0102 31.9841 16.0768 31.9841 16.0768C31.9841 16.0768 31.9175 16.0102 31.9175 15.8769C31.9175 15.8103 31.8508 15.7437 31.8508 15.6771C31.8508 15.6104 31.7842 15.5438 31.7842 15.4772C31.7842 15.4105 31.7842 15.4105 31.7176 15.344C31.7176 15.2773 31.7176 15.2773 31.6509 15.2107C31.6509 15.1441 31.5843 15.0775 31.5843 15.0109C31.451 14.8776 31.451 14.811 31.451 14.811ZM31.3177 15.4772H31.451V15.5439C31.451 15.6105 31.451 15.6771 31.5177 15.6771C31.5177 15.7438 31.5177 15.8103 31.5843 15.8103V16.0768C31.5843 16.0768 31.5843 16.0102 31.5177 15.9436C31.5177 15.8769 31.5177 15.8769 31.451 15.8103C31.451 15.7437 31.451 15.6771 31.3844 15.6771C31.3844 15.6105 31.3844 15.5439 31.3177 15.5439V15.4772C31.451 15.4772 31.3844 15.4772 31.3177 15.4772ZM39.9123 19.5413C39.9123 19.5413 39.9123 19.4746 39.779 19.3414C39.6458 19.2748 39.1128 18.9417 38.9129 18.7418C38.713 18.5419 38.3799 18.2754 38.1801 18.1422C37.9802 18.0089 37.847 18.0755 37.5138 18.0755H37.3139V19.0749H37.647L37.7802 18.9417C37.9135 18.875 38.18 18.9417 38.2466 18.9417C38.2466 18.9417 39.1794 19.4746 39.3126 19.4746C39.3126 19.4746 39.8456 19.941 40.1788 19.6745L39.9123 19.5413Z" fill="#F7B64C"/>
<path d="M37.2474 22.073L42.444 21.0737C42.444 21.0737 46.1084 19.6746 45.1756 15.4772L37.847 19.6079L31.1179 20.7405L30.918 23.7386L37.2474 22.073Z" fill="#66C6B9"/>
<path d="M22.3235 31.9334L22.59 31.0006C22.59 31.4004 22.6567 31.7335 22.6567 31.9334H27.7867C27.8534 31.6668 27.9199 30.934 27.7867 29.868C27.5868 28.4689 26.3876 25.0711 26.3876 25.0711L26.5875 23.7386L22.1903 23.8718C22.1903 23.8718 17.6599 25.3376 17.1935 27.2697C16.7937 29.0019 17.1268 31.467 17.1935 31.9999H22.3235V31.9334Z" fill="#415A6B"/>
<path d="M22.3235 31.9334L22.59 31.0006C22.59 31.4004 22.6567 31.7335 22.6567 31.9334H27.7867C27.8534 31.6668 27.9199 30.934 27.7867 29.868C27.5868 28.4689 26.2544 23.4054 26.2544 23.4054L22.1903 23.8052C22.1903 23.8052 17.6599 25.2709 17.1935 27.203C16.7937 28.9352 17.1268 31.4003 17.1935 31.9333L22.3235 31.9334Z" fill="#415A6B"/>
<path d="M25.4549 9.34779C25.4549 9.34779 26.1877 10.014 26.4542 10.6802C26.7207 11.3465 26.6541 11.6796 26.7873 11.8128C26.9206 12.0127 27.1204 12.0794 27.1871 12.2792C27.2537 12.4791 28.1198 13.8116 28.1198 13.8116C28.1198 13.8116 28.9193 14.1447 29.0525 14.4112C29.1857 14.6777 29.1857 14.8109 29.1857 14.8109C29.1857 14.8109 29.3856 14.7443 29.5855 14.8776C29.7854 15.0108 29.9186 15.0108 30.1185 15.1441C30.385 15.2107 30.385 15.1441 30.4516 15.344C30.5848 15.4772 32.3836 16.3433 32.9832 16.5432C33.5829 16.7431 35.3151 17.3427 35.3151 17.3427C35.3151 17.3427 34.5156 17.4759 34.7155 20.1409C34.7155 20.1409 33.6494 19.7411 32.7167 19.3414C31.7174 18.9417 30.7847 18.8084 30.185 18.4753C29.6521 18.1422 29.119 17.8757 28.1863 17.5426C27.3202 17.2095 26.7206 16.8097 26.7206 16.8097C26.7206 16.8097 25.1884 9.68095 25.4549 9.34779Z" fill="#344A5E"/>
<path d="M27.1871 26.4702L27.0539 26.4036C26.6541 24.8046 26.2544 23.3388 26.2544 23.3388H25.9879C26.3876 21.8065 26.2544 18.9417 25.9879 17.6092C25.5881 15.0775 25.1217 12.4125 24.4555 11.2799C23.7893 10.1473 23.0564 8.81481 23.0564 8.81481C23.0564 8.81481 24.8553 8.81481 25.4549 9.2812C25.4549 9.2812 26.2544 10.1473 26.5875 11.613C26.9206 13.0121 26.9206 16.1434 26.9206 16.6098C26.9206 17.0762 27.0538 20.4741 27.2537 21.4068C27.3869 22.1396 27.6534 24.8046 27.7867 26.0038C27.7867 26.3369 27.5202 26.5368 27.1871 26.4702Z" fill="#344A5E"/>
<path d="M26.5208 4.95059C26.5208 4.95059 26.1877 5.48356 26.1211 5.55021C26.1211 5.55021 26.1211 5.68344 26.2543 5.94995C26.3875 6.21647 26.5208 6.54957 26.5208 6.54957C26.5208 6.54957 26.5875 6.81609 26.321 6.88267C26.0544 6.94932 25.9212 7.08254 25.9212 7.14919C25.9212 7.21583 26.1211 7.41571 25.9212 7.54893C25.9212 7.54893 26.0544 7.68216 25.9212 7.88203C25.788 8.0819 25.5215 8.14855 25.5215 8.48165C25.4548 8.74817 25.3882 9.14791 24.5221 9.08127C23.656 9.01462 23.3895 9.14791 23.2562 9.41437C23.1229 9.68082 22.9231 10.6136 23.1896 11.613L23.4561 12.6123L19.925 8.48165C19.925 8.48165 20.5913 7.61552 20.7245 6.88267C20.8578 6.14983 21.2575 3.48484 21.2575 3.48484L26.5208 4.95059Z" fill="#FFD15C"/>
<path d="M25.3216 13.8116C25.2549 13.6784 25.3216 13.4785 25.3216 13.3452C24.8552 12.4125 24.4555 11.5464 24.2556 10.547V10.4138L23.8558 9.9474L23.0564 11.1466C23.0564 11.1466 22.9231 10.8801 22.59 10.7469C22.3234 10.6137 20.6579 9.34779 20.6579 9.34779L19.4586 9.41443L21.9903 24.205H23.8558C25.7213 24.205 26.3875 23.6054 26.3875 23.6054C26.3875 23.6054 26.4542 17.8757 25.3216 13.8116Z" fill="#CED6E0"/>
<path d="M27.2537 21.4068C27.2537 21.4068 26.5209 18.1422 26.0545 17.0762C25.5881 15.9436 24.9219 12.679 24.5222 11.9462C24.1224 11.2133 23.2563 9.74759 23.2563 9.74759L23.3895 9.21462C23.4562 9.21462 23.5227 9.14797 23.5894 9.14797C23.9891 9.94746 25.5881 13.0122 26.321 15.877C27.1871 19.0749 27.2537 21.4068 27.2537 21.4068Z" fill="#415A6B"/>
<path d="M19.6586 8.28184C19.6586 8.28184 19.2588 8.68158 18.7259 8.9481C18.1929 9.21462 17.993 9.14797 17.5266 9.41449C17.0602 9.68101 15.5945 10.6137 15.2614 11.3466C15.2614 11.3466 15.9276 10.4804 16.7271 10.8136C17.5933 11.1467 19.059 14.4113 19.1922 15.4107C19.3255 16.41 16.5273 23.4056 15.7944 25.7374C15.0616 28.0692 15.2614 29.8015 15.9943 30.2678C16.7271 30.7341 19.8585 32.9994 21.5907 31.0673C23.3229 29.1352 23.9225 21.4068 23.9225 21.4068C23.9225 21.4068 24.0558 17.9423 23.0564 15.7437C22.057 13.5451 19.6586 8.28184 19.6586 8.28184Z" fill="#344A5E"/>
<path d="M19.8585 8.01532L20.2582 7.68222C20.2582 7.68222 20.7246 8.88145 21.2576 9.41443C21.7905 9.9474 22.6567 10.6803 22.6567 10.6803C22.6567 10.6803 22.3236 10.747 21.9904 10.6137L21.3242 11.3465C21.3242 11.3465 19.7918 8.14855 19.8585 8.01532Z" fill="#E8EAE9"/>
<path d="M20.5246 7.14918C20.5246 7.14918 21.3908 6.81608 21.9238 5.61685C22.3901 4.41762 23.123 5.08388 23.3229 5.28375C23.5227 5.55027 23.5894 6.21647 23.4561 6.54963H23.9891C23.9891 6.54963 23.9891 5.15052 24.4555 4.81742C24.9218 4.48432 26.4542 5.15052 26.4542 5.15052C26.4542 5.15052 26.9871 4.95065 26.7873 4.48426C26.5874 4.01787 21.9903 2.35231 21.3907 2.61877C20.7911 2.95187 20.0583 3.55148 20.1915 4.08452C20.3247 4.61755 20.5912 5.6835 20.5912 6.21647C20.5913 6.81608 20.4581 7.01596 20.5246 7.14918Z" fill="#344A5E"/>
<path d="M23.3891 5.52646C23.3705 4.97485 23.0573 4.53775 22.6895 4.55019C22.3218 4.56263 22.0388 5.01988 22.0575 5.5715C22.0762 6.12312 22.3894 6.56021 22.7571 6.54777C23.1248 6.53534 23.4078 6.07808 23.3891 5.52646Z" fill="#FFD15C"/>
<path d="M19.5253 3.21839L19.4586 2.88529C19.4586 2.88529 19.925 0.286945 22.59 0.0204275C25.2549 -0.24609 26.7873 2.15238 26.7873 3.88465C26.7873 3.88465 26.5208 4.35104 26.5208 4.41762C26.4542 4.41762 21.7239 4.95059 19.5253 3.21839Z" fill="#F05540"/>
<path d="M19.4587 2.88528C19.4587 2.88528 22.8566 4.28439 25.4549 4.15116C25.4549 4.15116 26.5209 4.15116 26.7874 3.81806C26.7874 3.81806 26.7207 3.95129 26.7874 4.15116C26.854 4.35104 27.7867 4.88401 27.7867 5.0173C27.7867 5.21717 27.387 5.48369 26.6541 5.28381C25.9213 5.08394 25.0551 5.15059 24.3223 5.0173C23.656 4.88407 20.8578 4.41768 19.4587 3.81806C19.2588 3.81806 19.1922 3.55155 19.2588 3.41832C19.3254 3.21838 19.3921 3.08516 19.4587 2.88528Z" fill="#F3705A"/>
<path d="M23.656 17.8091C23.2563 16.6098 22.4568 13.3452 21.7905 11.5464C21.1243 9.74753 20.2582 8.61494 20.2582 8.28178C20.1916 7.94868 20.4581 7.28242 20.4581 7.28242C20.4581 7.28242 19.7252 8.21513 19.4587 8.48165V8.5483C19.3255 8.74817 19.2588 8.94804 19.3255 9.21456C19.4587 9.6143 19.6586 10.014 19.6586 10.014L20.5913 10.547L19.9917 11.08C19.9917 11.08 20.0583 11.1466 20.8578 12.146C21.6573 13.1454 22.9898 16.4765 23.5228 17.6758C24.0558 18.875 23.9892 21.4067 23.9892 21.4067C23.9892 21.4067 24.0558 19.0083 23.656 17.8091Z" fill="#415A6B"/>
<path d="M23.5227 9.14791C23.5227 9.14791 24.1224 10.1473 24.1224 10.3471C24.1224 10.547 23.656 10.8801 23.656 10.8801C23.656 10.8801 23.3229 11.1466 23.2562 11.4797C23.1896 11.8128 23.3229 12.4791 23.3229 12.4791C23.1896 11.8795 23.0564 11.4797 22.9898 10.9468C23.0564 10.9468 22.8565 9.34778 23.5227 9.14791Z" fill="#E8EAE9"/>
<path d="M23.5227 9.14791C23.5227 9.14791 24.1224 10.1473 24.1224 10.3471C24.1224 10.547 23.656 10.8801 23.656 10.8801C23.656 10.8801 23.3229 11.1466 23.2562 11.4797C23.1896 11.8128 23.3229 12.4791 23.3229 12.4791C23.1896 11.8795 23.0564 11.4797 22.9898 10.9468C23.0564 10.9468 22.8565 9.34778 23.5227 9.14791Z" fill="#E8EAE9"/>
<path d="M23.9225 9.08133C23.9225 9.08133 22.7899 8.48171 22.3902 7.28248C22.3902 7.28248 22.5234 8.48171 23.2563 9.41443V9.34778C23.3229 9.21456 23.4562 9.14791 23.9225 9.08133Z" fill="#F7B64C"/>
<path d="M18.4594 28.0026L25.9213 26.2704L34.9155 18.2088C34.9155 18.2088 38.1135 22.073 42.444 21.0737L23.1231 29.6682C23.123 29.6682 20.7245 30.3344 18.4594 28.0026Z" fill="#E8EAE9"/>
<path d="M22.057 23.3388L23.2563 24.0717C23.2563 24.0717 23.7892 24.2049 24.189 24.3382C24.4555 24.4049 24.7886 24.6713 24.9885 24.8046C25.0551 24.8712 25.1217 24.9378 25.1217 25.0711L25.1884 25.4709C25.1884 25.4709 25.788 25.9372 25.9878 26.1371C26.1877 26.337 26.4542 26.337 26.3876 26.6701C26.3876 26.6701 26.5208 26.7367 26.5208 26.9366C26.5208 27.1365 26.2543 27.2697 26.2543 27.2697C26.2543 27.2697 26.1211 27.4696 25.8546 27.5362C25.588 27.6029 24.9884 27.6695 24.9884 27.6695C24.9884 27.6695 24.7885 27.8027 24.3888 27.8693C23.9891 27.936 23.5893 27.8027 23.2562 27.7361C22.8565 27.6695 22.3901 27.4696 22.3235 27.2697C22.2568 27.0698 22.057 26.8033 21.9904 26.6034C21.9237 26.4036 21.9237 26.1371 21.9237 26.1371C21.9237 26.1371 21.6572 25.804 21.4574 25.6707C21.2575 25.5374 19.9916 24.6047 19.9916 24.6047C19.9916 24.6047 21.3241 22.8059 22.057 23.3388Z" fill="#FFD15C"/>
<path d="M26.4543 26.7367C26.4543 26.7367 26.3876 26.8699 26.321 26.9366C26.2544 27.0032 26.0545 27.0698 25.9213 27.0032C25.7881 26.9366 25.255 26.6035 25.0551 26.5368C24.8553 26.4036 24.5888 26.1371 24.3889 26.0704C24.2557 25.9372 23.9891 25.8705 23.9891 25.8705C23.9891 25.8705 24.1224 26.0704 24.2557 26.1371C24.3889 26.2037 24.722 26.3369 24.9219 26.4702C25.1218 26.6034 25.4549 26.8033 25.5882 26.8699C25.7214 26.9366 25.9213 27.0698 26.1212 27.0698C26.321 27.0698 26.3876 26.87 26.4543 26.7367ZM26.321 27.3363C26.321 27.3363 26.2543 27.4029 25.9879 27.4695C25.788 27.5362 25.3882 27.4695 25.255 27.4695C25.1218 27.4695 24.9885 27.5362 24.7886 27.4029C24.5888 27.3362 23.9225 26.8699 23.8559 26.8033C23.7893 26.7366 23.4562 26.67 23.4562 26.67C23.4562 26.67 23.656 26.8033 23.9226 26.9366C24.1891 27.0698 24.5222 27.2697 24.6554 27.3363C24.7886 27.4029 24.9219 27.5362 25.1884 27.5362C25.4549 27.4696 26.0545 27.6028 26.321 27.3363ZM24.5221 27.736C24.189 27.6028 23.7226 27.4029 23.5894 27.3363C23.3895 27.2697 23.0564 27.1364 23.123 27.2031C23.1896 27.2697 23.7226 27.5362 23.9225 27.6028C24.1224 27.6695 24.5888 27.9359 24.9219 27.8027C24.9885 27.8027 24.9885 27.736 24.9885 27.736C24.9885 27.8027 24.8553 27.8693 24.5221 27.736ZM24.189 24.5381C24.2557 24.6047 24.2557 24.6047 24.2557 24.6713C24.2557 24.6713 24.2557 24.738 24.3223 24.738C24.3223 24.8046 24.3889 24.8712 24.4555 24.9378L24.5222 25.0045C24.5222 25.0045 24.5888 25.0711 24.6554 25.0711C24.722 25.1378 24.7886 25.2043 24.8553 25.2043C24.9219 25.271 24.9885 25.271 25.0551 25.3376C25.1218 25.4042 25.1884 25.4042 25.1884 25.4042L25.255 25.4709H25.1884C25.1217 25.4709 25.1217 25.4042 25.0551 25.4042C24.9885 25.3376 24.9219 25.3376 24.8553 25.271C24.7886 25.271 24.7886 25.2043 24.722 25.2043C24.6554 25.2043 24.6554 25.1377 24.5888 25.1377C24.5222 25.1377 24.5222 25.0711 24.4556 25.0711C24.389 25.0711 24.3889 25.0044 24.3889 25.0044C24.3223 24.9378 24.3223 24.8712 24.2557 24.8045V24.7379C24.2557 24.6047 24.2557 24.6047 24.189 24.5381Z" fill="#F7B64C"/>
<path d="M22.4568 23.5387C22.4568 23.5387 21.724 23.6719 21.2576 24.4714C20.8578 25.3376 20.7912 26.6034 20.7912 26.6034C20.7912 26.6034 18.6592 25.604 18.2595 25.1376C18.0596 24.8711 17.2601 24.0716 16.6605 23.2721C16.1941 22.6725 15.7278 22.0729 15.5945 21.7398C15.328 21.007 15.328 19.3413 15.3946 19.0082C15.4613 18.7417 14.9282 16.8763 14.7284 16.21C14.5285 15.5438 14.9282 13.7449 14.9282 13.7449C14.9282 13.7449 14.8616 12.0793 15.2613 11.3464C15.2613 11.3464 15.9276 10.4803 16.7271 10.8135C17.5932 11.1466 19.0589 14.4112 19.1922 15.4105C19.3254 15.9435 19.059 16.2767 19.059 17.0095C19.059 17.7424 18.6592 18.4086 18.8591 19.0749C19.059 19.8077 18.8591 20.1409 19.059 20.474C19.1922 20.7405 20.1916 21.7399 20.7246 22.073C21.1909 22.4061 22.4568 23.5387 22.4568 23.5387Z" fill="#415A6B"/>
</g>
<defs>
<clipPath id="clip0_107_3146">
<rect width="32" height="32" fill="white"/>
</clipPath>
</defs>
</svg>
