<svg width="32" height="32" viewBox="0 0 32 32" fill="none" xmlns="http://www.w3.org/2000/svg">
<g clip-path="url(#clip0_106_1989)">
<path d="M24.4466 7.01597C24.4466 7.01597 24.3134 7.54894 24.2467 7.8821C24.1801 8.28185 23.9802 9.48108 23.2473 10.0807L22.3812 12.1461L20.0494 11.4798C20.0494 11.4798 20.5824 8.88146 20.649 8.48172C20.7156 8.08197 20.5158 7.14926 20.5824 6.1499C20.649 5.21712 24.1801 5.55022 24.4466 7.01597Z" fill="#FFD15C"/>
<path d="M24.4466 7.01597C24.4466 7.01597 24.3134 7.54894 24.2467 7.8821C24.1801 8.28185 23.9802 9.48108 23.2473 10.0807V12.4792C22.0481 16.2767 18.9168 15.2774 20.116 11.4798C20.116 11.4798 20.649 8.88146 20.7157 8.48172C20.7823 8.08197 20.5824 7.14926 20.649 6.1499C20.649 5.21712 24.1801 5.55022 24.4466 7.01597Z" fill="#FFD15C"/>
<path d="M20.649 6.0166L20.116 5.41698C20.116 5.41698 20.5824 3.55149 22.1148 3.35161C23.6471 3.15174 24.9796 4.21775 24.913 5.88331C24.913 5.88331 25.0462 6.28305 24.8463 6.54957C24.6464 6.81609 21.5151 6.81609 20.649 6.0166Z" fill="#F05540"/>
<path d="M20.116 5.41698C20.116 5.41698 20.4491 5.75008 20.9155 5.88337C21.3818 6.01666 23.9802 6.14988 24.5132 6.28311C25.0461 6.41634 24.8463 6.01659 24.9129 5.81672C24.9129 5.81672 25.1128 6.61621 25.1128 6.88273C25.1128 7.14925 24.9129 7.14925 24.713 7.14925C24.5132 7.14925 22.3146 6.94937 21.5151 6.7495C20.7156 6.54963 20.6489 6.61627 20.4491 6.54963C20.1825 6.48298 19.9161 6.08324 19.9161 5.88337C19.8495 5.75008 20.116 5.41698 20.116 5.41698Z" fill="#F3705A"/>
<path d="M23.1807 10.1473C23.1807 10.1473 22.8476 10.4804 22.1813 10.4138C21.5151 10.3472 20.7156 9.34778 20.5824 8.54829C20.5824 8.54829 20.4491 9.6143 21.4485 10.8135C21.7816 11.2133 22.1813 11.4798 22.5145 11.6797L23.1807 10.1473Z" fill="#F7B64C"/>
<path d="M21.4485 10.6803C21.4485 10.6803 22.0481 11.613 21.8482 12.4792C21.8482 12.4792 22.0481 11.6797 22.0481 11.3466C22.0481 11.0135 22.5811 10.4138 22.5811 10.4138L23.3806 11.813L21.5151 18.0756L19.2498 17.5427L19.7828 10.6138L21.4485 10.6803Z" fill="#CED6E0"/>
<path d="M18.0507 31.9334C18.1173 31.5336 18.5171 30.2011 18.7835 29.4682C19.1166 28.6687 19.583 27.5362 19.583 27.5362C19.583 27.5362 19.7162 27.6028 19.9161 28.269C20.116 28.8686 20.8488 31.4003 20.9821 31.9334H24.5798C24.8463 30.5342 24.7797 25.7373 24.7797 25.7373L21.5817 21.6732C21.5817 21.6732 16.5183 22.4061 15.4523 24.8712C14.453 27.1364 14.7861 31.2671 14.8527 31.9999H18.0507V31.9334Z" fill="#415A6B"/>
<path d="M20.9119 7.25211C20.8766 6.88584 20.6995 6.60324 20.5164 6.6209C20.3333 6.63856 20.2135 6.9498 20.2488 7.31606C20.2841 7.68233 20.4612 7.96493 20.6443 7.94727C20.8274 7.92961 20.9472 7.61837 20.9119 7.25211Z" fill="#FFD15C"/>
<path d="M19.4498 10.0807C19.4498 10.0807 19.3165 10.0141 18.8502 10.2806C18.3172 10.5471 17.3844 10.6137 17.1179 10.6137L16.8514 10.6803C16.8514 10.6803 18.1839 13.4119 17.9174 14.811C17.6509 16.2101 14.986 23.4055 14.6528 24.2716C14.3863 25.1378 14.2531 25.5375 14.2531 25.5375C14.2531 25.5375 15.7854 26.7367 16.4517 26.9366C17.1179 27.1365 17.6509 27.2697 18.1173 26.2704C18.5837 25.271 20.1827 21.0737 20.3826 19.2748C20.5158 17.4093 19.7829 10.4138 19.7829 10.4138L19.4498 10.0807Z" fill="#344A5E"/>
<path d="M18.517 19.6079C18.517 19.6079 17.5843 19.4747 17.3178 18.4753C17.1179 17.4093 18.517 18.6752 18.517 19.6079Z" fill="#FFD15C"/>
<path d="M23.5138 9.74753C23.5138 9.74753 23.2473 10.2139 22.5811 10.3471L22.5144 11.9461L23.5138 10.2805V9.74753Z" fill="#E8EAE9"/>
<path d="M26.2454 26.6701C26.2454 26.6701 26.0456 27.0032 24.913 27.2031C23.7804 27.4029 23.1141 27.4696 23.1141 27.4696C23.1141 27.4696 22.0481 27.6695 21.7817 26.9366C21.5151 26.2038 20.3159 22.073 20.3159 20.2076C20.3159 18.2755 23.9136 10.4138 23.9136 10.4138C23.9136 10.4138 24.5799 10.7469 24.8463 11.0135L25.3127 11.4799C25.5792 11.7464 26.4453 12.0128 26.4453 12.0128C26.4453 12.0128 25.3127 12.6791 24.7797 14.2114C24.1801 15.6771 26.2454 26.6701 26.2454 26.6701Z" fill="#344A5E"/>
<path d="M26.9116 14.0781C26.9116 15.4772 26.7118 18.7418 25.9789 19.8078C25.6458 20.2742 25.4459 20.6073 25.2461 20.8071C25.0462 21.007 24.8463 21.0737 24.6465 21.1402C24.3799 21.2069 22.0481 20.9404 20.3159 20.7405C19.2499 20.6073 18.4504 20.5406 18.4504 20.5406L18.3172 17.9423C18.3172 17.9423 19.7163 18.0089 20.8489 18.0089H21.9815C22.5811 18.0089 23.3139 17.476 23.5804 17.4093C23.7803 17.3427 23.7803 16.4766 24.0468 15.877C24.2467 15.2774 24.7797 14.2114 24.7797 14.1448C25.3127 12.679 26.4453 11.9462 26.4453 11.9462C26.4453 11.9462 26.9116 12.6124 26.9116 14.0781Z" fill="#415A6B"/>
<path d="M23.5138 9.88081C23.5138 9.88081 23.2473 10.4804 23.1141 10.7469C22.9808 11.0135 22.2479 12.4126 22.048 12.8123C21.8482 13.2121 21.3152 14.1448 20.7822 16.2101C20.2492 18.3421 20.3158 20.2076 20.3158 20.2076C20.3158 20.2076 20.9154 17.4094 21.9148 15.6105C22.9141 13.8117 24.2466 11.8796 24.2466 11.8796L23.7136 11.5465L24.2466 11.4799C24.2466 11.4799 24.2466 10.9469 24.0467 10.6137C23.8468 10.2806 23.647 10.1473 23.5803 10.0141L23.5138 9.88081Z" fill="#415A6B"/>
<path d="M20.5824 8.88145C20.5824 8.88145 20.7822 10.1473 21.4485 10.6803L21.3153 10.8802L21.0487 10.747C21.0487 10.747 20.4491 11.1467 20.4491 11.9462C20.4491 11.9462 20.116 10.6137 20.116 10.1473C20.116 9.74753 20.3825 9.08133 20.5824 8.88145Z" fill="#E8EAE9"/>
<path d="M20.4491 9.14792C20.4491 9.14792 20.1826 9.34779 19.9827 9.68089C19.7829 10.014 19.4498 10.0806 19.4498 10.0806L19.05 10.7469L19.4498 10.9468L18.7835 11.08C18.7835 11.08 19.7829 15.8103 20.0494 17.0095C20.3825 18.1421 20.3159 19.2748 20.3159 19.2748C20.3159 19.2748 20.7823 15.8103 20.5824 13.8782C20.4491 11.8129 20.1826 9.88083 20.4491 9.14792Z" fill="#415A6B"/>
<path d="M22.4479 18.6086C22.4479 18.6086 21.5817 18.6752 20.4491 18.7418C19.1833 18.8084 17.6509 18.8084 16.7182 18.6751C16.5183 18.6085 16.3185 18.6085 16.1852 18.5419C14.7861 18.0089 15.0526 15.8769 15.0526 15.8769C15.0526 15.8769 15.9854 12.2126 16.3185 11.4797C16.6516 10.7469 16.9181 10.7469 16.9181 10.7469C16.9181 10.7469 18.2506 13.4785 17.9841 14.8776C17.9175 15.0774 17.8509 15.4105 17.7176 15.8103C17.7176 15.8103 18.3172 16.0768 18.9835 16.2767C19.6498 16.4765 19.5831 16.2767 19.9829 16.2767H20.3826C21.1155 16.2767 22.448 16.4099 22.448 16.4099C22.7143 16.8763 22.4479 18.6086 22.4479 18.6086Z" fill="#415A6B"/>
<path d="M18.3171 16.2101C18.3171 16.2101 18.0506 15.0109 17.984 14.9442C17.9174 14.811 17.8508 14.811 17.7841 14.9442L17.5843 14.6111C17.5843 14.6111 17.3178 14.5445 17.3844 14.8776C17.3844 14.8776 17.1845 14.811 17.1845 15.0775C17.1845 15.344 17.3178 15.4772 17.3178 15.4772C17.3178 15.4772 17.1179 15.5439 17.2511 16.0102C17.3843 16.4766 17.3843 16.6098 17.3843 16.6098L18.3171 16.2101Z" fill="#FFD15C"/>
<path d="M17.8508 15.1441C17.8508 15.2107 17.8508 15.2773 17.9174 15.3439C17.9174 15.4106 17.9841 15.4772 17.9841 15.5438C17.9841 15.6105 17.9841 15.6105 18.0507 15.677C18.0507 15.7437 18.1174 15.7437 18.1174 15.7437C18.1174 15.8103 18.184 15.8769 18.184 15.9436C18.184 15.9436 18.184 16.0102 18.2507 16.0102V15.9436C18.2507 15.8769 18.184 15.8103 18.184 15.7437C18.184 15.7437 18.184 15.677 18.1174 15.677C18.1174 15.6104 18.1174 15.6104 18.0507 15.5438C18.0507 15.4772 17.9841 15.4106 17.9841 15.3439C17.9174 15.2107 17.9174 15.1441 17.8508 15.1441ZM17.451 14.811C17.5177 14.8776 17.5177 14.9442 17.5843 15.0108C17.5843 15.0775 17.6509 15.1441 17.6509 15.2107C17.6509 15.2774 17.6509 15.2774 17.7176 15.3439C17.7176 15.4106 17.7176 15.4106 17.7842 15.4772C17.7842 15.5438 17.8509 15.6104 17.8509 15.677C17.8509 15.7437 17.9175 15.8103 17.9175 15.8769C17.9841 16.0101 17.9841 16.0768 17.9841 16.0768C17.9841 16.0768 17.9175 16.0101 17.9175 15.8769C17.9175 15.8103 17.8509 15.7437 17.8509 15.677C17.8509 15.6104 17.7842 15.5438 17.7842 15.4772C17.7842 15.4105 17.7842 15.4105 17.7176 15.3439C17.7176 15.2773 17.7176 15.2773 17.6509 15.2107C17.6509 15.1441 17.5843 15.0775 17.5843 15.0108C17.451 14.8776 17.451 14.811 17.451 14.811ZM17.3178 15.4772H17.451V15.5439C17.451 15.6105 17.451 15.6771 17.5177 15.6771C17.5177 15.7438 17.5177 15.8103 17.5843 15.8103V16.0768C17.5843 16.0768 17.5843 16.0101 17.5177 15.9436C17.5177 15.8769 17.5177 15.8769 17.451 15.8103C17.451 15.7437 17.451 15.6771 17.3844 15.6771C17.3844 15.6105 17.3844 15.5439 17.3178 15.5439V15.4772C17.451 15.4772 17.3844 15.4772 17.3178 15.4772ZM25.9123 19.5413C25.9123 19.5413 25.9123 19.4746 25.779 19.3414C25.6458 19.2747 25.1128 18.9416 24.9129 18.7418C24.713 18.5419 24.3799 18.2754 24.1801 18.1422C23.9802 18.0089 23.847 18.0755 23.5138 18.0755H23.3139V19.0749H23.647L23.7803 18.9416C23.9135 18.875 24.18 18.9416 24.2466 18.9416C24.2466 18.9416 25.1794 19.4746 25.3127 19.4746C25.3127 19.4746 25.8456 19.941 26.1788 19.6745L25.9123 19.5413Z" fill="#F7B64C"/>
<path d="M23.2473 22.073L28.444 21.0737C28.444 21.0737 32.1084 19.6746 31.1756 15.4772L23.847 19.6079L17.1179 20.7405L16.918 23.7386L23.2473 22.073Z" fill="#66C6B9"/>
<path d="M20.4491 18.2088C20.4491 18.2088 21.9149 19.0083 22.1813 19.1415C22.4479 19.2748 22.781 19.408 23.2473 19.408C23.7137 19.408 24.4466 19.6746 24.6465 19.7411C24.913 19.8078 25.1128 19.6079 24.913 19.408C24.7131 19.1415 24.4466 19.075 24.4466 19.075L23.6471 18.8751C23.6471 18.8751 23.847 18.6752 23.9802 18.6086C24.1134 18.5419 24.3799 18.6086 24.4466 18.6086C24.4466 18.6086 25.1794 19.1415 25.4459 19.2748C25.4459 19.2748 25.9789 19.9411 26.3787 19.4747L26.1121 19.2748C26.1121 19.2748 26.0455 19.2082 25.9123 19.1416C25.779 19.075 25.3127 18.6752 25.0461 18.4753C24.8463 18.2755 24.5132 17.9424 24.3133 17.8091C24.1134 17.6758 24.0468 17.7424 23.647 17.7424C23.3139 17.7424 22.581 17.7424 22.3146 17.6758C22.048 17.6091 21.2486 17.3427 21.2486 17.3427L20.2492 17.5426L20.4491 18.2088Z" fill="#FFD15C"/>
<path d="M8.3235 31.9334L8.59001 31.0006C8.59001 31.4004 8.65666 31.7335 8.65666 31.9334H13.7867C13.8533 31.6668 13.9199 30.934 13.7867 29.868C13.5868 28.4689 12.3876 25.071 12.3876 25.071L12.5875 23.7386L8.19027 23.8718C8.19027 23.8718 3.65985 25.3376 3.19346 27.2696C2.79372 29.0018 3.12682 31.467 3.19346 31.9999H8.3235V31.9334Z" fill="#415A6B"/>
<path d="M8.3235 31.9334L8.59001 31.0006C8.59001 31.4004 8.65666 31.7335 8.65666 31.9334H13.7867C13.8533 31.6668 13.9199 30.934 13.7867 29.868C13.5868 28.4689 12.2544 23.4054 12.2544 23.4054L8.19027 23.8052C8.19027 23.8052 3.65985 25.2709 3.19346 27.203C2.79372 28.9352 3.12682 31.4003 3.19346 31.9333L8.3235 31.9334Z" fill="#415A6B"/>
<path d="M11.4549 9.34778C11.4549 9.34778 12.1877 10.014 12.4542 10.6802C12.7207 11.3465 12.6541 11.6796 12.7873 11.8128C12.9206 12.0127 13.1204 12.0793 13.1871 12.2792C13.2537 12.4791 14.1198 13.8116 14.1198 13.8116C14.1198 13.8116 14.9193 14.1447 15.0525 14.4112C15.1857 14.6777 15.1857 14.8109 15.1857 14.8109C15.1857 14.8109 15.3856 14.7443 15.5855 14.8776C15.7854 15.0108 15.9186 15.0108 16.1185 15.1441C16.385 15.2107 16.385 15.1441 16.4516 15.3439C16.5848 15.4772 18.3836 16.3433 18.9832 16.5432C19.5829 16.7431 21.3151 17.3427 21.3151 17.3427C21.3151 17.3427 20.5156 17.4759 20.7155 20.1409C20.7155 20.1409 19.6494 19.7411 18.7167 19.3414C17.7174 18.9417 16.7847 18.8084 16.185 18.4753C15.6521 18.1422 15.119 17.8756 14.1863 17.5425C13.3202 17.2094 12.7206 16.8097 12.7206 16.8097C12.7206 16.8097 11.1884 9.68094 11.4549 9.34778Z" fill="#344A5E"/>
<path d="M13.1871 26.4702L13.0539 26.4036C12.6541 24.8046 12.2544 23.3389 12.2544 23.3389H11.9878C12.3876 21.8065 12.2544 18.9417 11.9878 17.6092C11.5881 15.0775 11.1217 12.4125 10.4555 11.2799C9.78925 10.1473 9.0564 8.81482 9.0564 8.81482C9.0564 8.81482 10.8553 8.81482 11.4549 9.28121C11.4549 9.28121 12.2544 10.1473 12.5875 11.613C12.9206 13.0121 12.9206 16.1435 12.9206 16.6098C12.9206 17.0762 13.0538 20.4741 13.2537 21.4068C13.3869 22.1396 13.6534 24.8046 13.7866 26.0038C13.7867 26.3369 13.5202 26.5368 13.1871 26.4702Z" fill="#344A5E"/>
<path d="M12.5208 4.95058C12.5208 4.95058 12.1877 5.48356 12.1211 5.5502C12.1211 5.5502 12.1211 5.68343 12.2543 5.94995C12.3875 6.21646 12.5208 6.54956 12.5208 6.54956C12.5208 6.54956 12.5875 6.81608 12.3209 6.88266C12.0544 6.94931 11.9212 7.08254 11.9212 7.14918C11.9212 7.21583 12.1211 7.4157 11.9212 7.54892C11.9212 7.54892 12.0544 7.68215 11.9212 7.88202C11.788 8.0819 11.5215 8.14854 11.5215 8.48164C11.4548 8.74816 11.3882 9.1479 10.5221 9.08126C9.65596 9.01461 9.38951 9.1479 9.25622 9.41436C9.12293 9.68081 8.92312 10.6136 9.18957 11.613L9.45609 12.6123L5.92503 8.48164C5.92503 8.48164 6.5913 7.61551 6.72452 6.88266C6.85775 6.14982 7.2575 3.48483 7.2575 3.48483L12.5208 4.95058Z" fill="#FFD15C"/>
<path d="M11.3216 13.8116C11.2549 13.6784 11.3216 13.4785 11.3216 13.3452C10.8552 12.4125 10.4555 11.5464 10.2556 10.547V10.4138L9.85583 9.94739L9.05634 11.1466C9.05634 11.1466 8.92312 10.8801 8.58995 10.7469C8.32344 10.6137 6.65788 9.34778 6.65788 9.34778L5.45864 9.41442L7.99034 24.205H9.85583C11.7213 24.205 12.3875 23.6054 12.3875 23.6054C12.3875 23.6054 12.4542 17.8757 11.3216 13.8116Z" fill="#CED6E0"/>
<path d="M13.2537 21.4068C13.2537 21.4068 12.5209 18.1422 12.0545 17.0762C11.5881 15.9436 10.9219 12.679 10.5222 11.9462C10.1224 11.2133 9.25628 9.7476 9.25628 9.7476L9.38951 9.21462C9.45615 9.21462 9.52273 9.14798 9.58938 9.14798C9.98912 9.94747 11.5881 13.0122 12.3209 15.877C13.1871 19.075 13.2537 21.4068 13.2537 21.4068Z" fill="#415A6B"/>
<path d="M5.65858 8.28185C5.65858 8.28185 5.25883 8.68159 4.72586 8.94811C4.19289 9.21462 3.99301 9.14798 3.52662 9.4145C3.06023 9.68101 1.59455 10.6137 1.26138 11.3466C1.26138 11.3466 1.92764 10.4804 2.72713 10.8136C3.59327 11.1467 5.05896 14.4113 5.19225 15.4107C5.32547 16.41 2.52726 23.4056 1.79442 25.7374C1.06157 28.0692 1.26145 29.8015 1.99429 30.2678C2.72713 30.7341 5.85851 32.9994 7.59072 31.0673C9.32292 29.1352 9.92254 21.4068 9.92254 21.4068C9.92254 21.4068 10.0558 17.9423 9.0564 15.7437C8.05704 13.5451 5.65858 8.28185 5.65858 8.28185Z" fill="#344A5E"/>
<path d="M5.85845 8.01532L6.2582 7.68222C6.2582 7.68222 6.72459 8.88145 7.25756 9.41443C7.79053 9.9474 8.65666 10.6803 8.65666 10.6803C8.65666 10.6803 8.32356 10.747 7.9904 10.6137L7.32414 11.3465C7.32414 11.3465 5.79181 8.14855 5.85845 8.01532Z" fill="#E8EAE9"/>
<path d="M6.52465 7.14919C6.52465 7.14919 7.39078 6.81609 7.92376 5.61686C8.39015 4.41762 9.12299 5.08389 9.32286 5.28376C9.52274 5.55028 9.58938 6.21648 9.45609 6.54964H9.98906C9.98906 6.54964 9.98906 5.15053 10.4555 4.81743C10.9218 4.48433 12.4542 5.15053 12.4542 5.15053C12.4542 5.15053 12.9871 4.95066 12.7873 4.48427C12.5874 4.01788 7.99034 2.35232 7.39072 2.61877C6.7911 2.95187 6.05826 3.55149 6.19149 4.08452C6.32471 4.61756 6.59123 5.6835 6.59123 6.21648C6.59129 6.81609 6.45807 7.01596 6.52465 7.14919Z" fill="#344A5E"/>
<path d="M9.38913 5.52647C9.37047 4.97485 9.05725 4.53776 8.68953 4.5502C8.32181 4.56263 8.03884 5.01989 8.05749 5.57151C8.07615 6.12312 8.38937 6.56022 8.75709 6.54778C9.12481 6.53534 9.40778 6.07809 9.38913 5.52647Z" fill="#FFD15C"/>
<path d="M5.52529 3.21839L5.45864 2.88529C5.45864 2.88529 5.92503 0.286945 8.58995 0.0204275C11.2549 -0.24609 12.7873 2.15238 12.7873 3.88465C12.7873 3.88465 12.5208 4.35104 12.5208 4.41762C12.4542 4.41762 7.72388 4.95059 5.52529 3.21839Z" fill="#F05540"/>
<path d="M5.45871 2.88528C5.45871 2.88528 8.85654 4.28439 11.4549 4.15116C11.4549 4.15116 12.5209 4.15116 12.7873 3.81806C12.7873 3.81806 12.7207 3.95129 12.7873 4.15116C12.854 4.35104 13.7867 4.88401 13.7867 5.0173C13.7867 5.21717 13.387 5.48369 12.6541 5.28381C11.9213 5.08394 11.0551 5.15059 10.3223 5.0173C9.65602 4.88407 6.85781 4.41768 5.45871 3.81806C5.25883 3.81806 5.19219 3.55155 5.25883 3.41832C5.32542 3.21838 5.39206 3.08516 5.45871 2.88528Z" fill="#F3705A"/>
<path d="M9.65602 17.8091C9.25628 16.6098 8.45679 13.3452 7.79053 11.5464C7.12427 9.74752 6.25819 8.61493 6.25819 8.28177C6.19155 7.94867 6.45807 7.28241 6.45807 7.28241C6.45807 7.28241 5.72522 8.21513 5.45871 8.48164V8.54829C5.32548 8.74816 5.25883 8.94803 5.32548 9.21455C5.45871 9.61429 5.65858 10.014 5.65858 10.014L6.59129 10.547L5.99168 11.08C5.99168 11.08 6.05832 11.1466 6.85781 12.146C7.6573 13.1454 8.98976 16.4765 9.5228 17.6758C10.0558 18.875 9.98919 21.4067 9.98919 21.4067C9.98919 21.4067 10.0558 19.0083 9.65602 17.8091Z" fill="#415A6B"/>
<path d="M9.52273 9.14792C9.52273 9.14792 10.1224 10.1473 10.1224 10.3472C10.1224 10.547 9.65596 10.8801 9.65596 10.8801C9.65596 10.8801 9.32286 11.1466 9.25622 11.4797C9.18957 11.8128 9.32286 12.4791 9.32286 12.4791C9.18963 11.8795 9.05634 11.4797 8.98976 10.9468C9.05641 10.9468 8.85653 9.34779 9.52273 9.14792Z" fill="#E8EAE9"/>
<path d="M9.52273 9.14792C9.52273 9.14792 10.1224 10.1473 10.1224 10.3472C10.1224 10.547 9.65596 10.8801 9.65596 10.8801C9.65596 10.8801 9.32286 11.1466 9.25622 11.4797C9.18957 11.8128 9.32286 12.4791 9.32286 12.4791C9.18963 11.8795 9.05634 11.4797 8.98976 10.9468C9.05641 10.9468 8.85653 9.34779 9.52273 9.14792Z" fill="#E8EAE9"/>
<path d="M9.92248 9.08132C9.92248 9.08132 8.78989 8.4817 8.39014 7.28247C8.39014 7.28247 8.52337 8.48171 9.25628 9.41442V9.34778C9.32286 9.21455 9.45615 9.1479 9.92248 9.08132Z" fill="#F7B64C"/>
<path d="M4.45934 28.0026L11.9213 26.2704L20.9155 18.2088C20.9155 18.2088 24.1135 22.073 28.444 21.0737L9.12305 29.6682C9.12299 29.6682 6.72452 30.3344 4.45934 28.0026Z" fill="#E8EAE9"/>
<path d="M8.05705 23.3388L9.25628 24.0717C9.25628 24.0717 9.78925 24.2049 10.189 24.3382C10.4555 24.4049 10.7886 24.6713 10.9885 24.8046C11.0551 24.8712 11.1217 24.9378 11.1217 25.0711L11.1884 25.4709C11.1884 25.4709 11.788 25.9372 11.9878 26.1371C12.1877 26.337 12.4542 26.337 12.3876 26.6701C12.3876 26.6701 12.5208 26.7367 12.5208 26.9366C12.5208 27.1365 12.2543 27.2697 12.2543 27.2697C12.2543 27.2697 12.1211 27.4696 11.8546 27.5362C11.588 27.6029 10.9884 27.6695 10.9884 27.6695C10.9884 27.6695 10.7886 27.8027 10.3888 27.8693C9.98906 27.936 9.58932 27.8027 9.25622 27.7361C8.85647 27.6695 8.39008 27.4696 8.3235 27.2697C8.25686 27.0698 8.05698 26.8033 7.9904 26.6034C7.92376 26.4036 7.92376 26.1371 7.92376 26.1371C7.92376 26.1371 7.65724 25.804 7.45737 25.6707C7.25749 25.5374 5.99162 24.6047 5.99162 24.6047C5.99162 24.6047 7.32414 22.8059 8.05705 23.3388Z" fill="#FFD15C"/>
<path d="M12.4542 26.7367C12.4542 26.7367 12.3876 26.8699 12.321 26.9366C12.2544 27.0032 12.0545 27.0698 11.9213 27.0032C11.788 26.9366 11.255 26.6035 11.0551 26.5368C10.8553 26.4036 10.5887 26.1371 10.3889 26.0704C10.2556 25.9372 9.98912 25.8705 9.98912 25.8705C9.98912 25.8705 10.1224 26.0704 10.2556 26.1371C10.3889 26.2037 10.722 26.3369 10.9219 26.4702C11.1218 26.6034 11.4549 26.8033 11.5882 26.8699C11.7214 26.9366 11.9213 27.0698 12.1211 27.0698C12.3209 27.0698 12.3876 26.87 12.4542 26.7367ZM12.3209 27.3363C12.3209 27.3363 12.2543 27.4029 11.9878 27.4695C11.788 27.5362 11.3882 27.4695 11.255 27.4695C11.1218 27.4695 10.9885 27.5362 10.7886 27.4029C10.5887 27.3362 9.92248 26.8699 9.8559 26.8033C9.78925 26.7366 9.45615 26.67 9.45615 26.67C9.45615 26.67 9.65602 26.8033 9.92254 26.9366C10.1891 27.0698 10.5222 27.2697 10.6554 27.3363C10.7886 27.4029 10.9219 27.5362 11.1884 27.5362C11.4549 27.4696 12.0545 27.6028 12.3209 27.3363ZM10.5221 27.736C10.189 27.6028 9.72261 27.4029 9.58938 27.3363C9.38951 27.2697 9.05641 27.1364 9.12299 27.2031C9.18957 27.2697 9.72261 27.5362 9.92248 27.6028C10.1224 27.6695 10.5887 27.9359 10.9218 27.8027C10.9885 27.8027 10.9885 27.736 10.9885 27.736C10.9885 27.8027 10.8553 27.8693 10.5221 27.736ZM10.189 24.5381C10.2556 24.6047 10.2556 24.6047 10.2556 24.6713C10.2556 24.6713 10.2556 24.738 10.3223 24.738C10.3223 24.8046 10.3889 24.8712 10.4555 24.9378L10.5222 25.0045C10.5222 25.0045 10.5888 25.0711 10.6554 25.0711C10.722 25.1378 10.7886 25.2043 10.8553 25.2043C10.9219 25.271 10.9885 25.271 11.0551 25.3376C11.1218 25.4042 11.1884 25.4042 11.1884 25.4042L11.255 25.4709H11.1884C11.1217 25.4709 11.1217 25.4042 11.0551 25.4042C10.9885 25.3376 10.9219 25.3376 10.8553 25.271C10.7886 25.271 10.7886 25.2043 10.722 25.2043C10.6554 25.2043 10.6554 25.1377 10.5888 25.1377C10.5222 25.1377 10.5222 25.0711 10.4556 25.0711C10.389 25.0711 10.3889 25.0044 10.3889 25.0044C10.3223 24.9378 10.3223 24.8712 10.2557 24.8045V24.7379C10.2556 24.6047 10.2556 24.6047 10.189 24.5381Z" fill="#F7B64C"/>
<path d="M8.45679 23.5387C8.45679 23.5387 7.72395 23.6719 7.25756 24.4714C6.85781 25.3376 6.79117 26.6034 6.79117 26.6034C6.79117 26.6034 4.65921 25.604 4.25947 25.1376C4.0596 24.8711 3.26011 24.0716 2.66049 23.2721C2.1941 22.6725 1.72777 22.0729 1.59448 21.7398C1.32797 21.007 1.32797 19.3413 1.39461 19.0082C1.46126 18.7417 0.928223 16.8763 0.72835 16.21C0.528478 15.5438 0.928223 13.7449 0.928223 13.7449C0.928223 13.7449 0.861578 12.0793 1.26132 11.3464C1.26132 11.3464 1.92758 10.4803 2.72707 10.8135C3.59321 11.1466 5.0589 14.4112 5.19219 15.4105C5.32541 15.9435 5.05896 16.2767 5.05896 17.0095C5.05896 17.7424 4.65921 18.4086 4.85909 19.0749C5.05896 19.8077 4.85909 20.1409 5.05896 20.474C5.19219 20.7405 6.19155 21.7399 6.72458 22.073C7.19091 22.4061 8.45679 23.5387 8.45679 23.5387Z" fill="#415A6B"/>
</g>
<defs>
<clipPath id="clip0_106_1989">
<rect width="32" height="32" fill="white"/>
</clipPath>
</defs>
</svg>
