<svg width="194" height="30" viewBox="0 0 194 30" fill="none" xmlns="http://www.w3.org/2000/svg">
<g clip-path="url(#clip0_99_197)">
<path d="M46.368 2.62817V7.0197H37.0951V13.2293H45.9706V17.6272H37.1017V23.6319H46.3747V28.0235H32.2334V2.62817H46.368Z" fill="black"/>
<path d="M63.4436 28.5356C61.0576 28.5415 58.7143 27.9244 56.6611 26.7495C54.5766 25.587 52.8398 23.9217 51.6206 21.9163C50.3713 19.8927 49.7206 17.5766 49.7395 15.2202C49.7266 12.934 50.3586 10.6876 51.5676 8.72254C52.7702 6.73532 54.4807 5.07991 56.5352 3.91491C58.5898 2.72533 60.9426 2.10314 63.3376 2.11604C65.9573 2.10714 68.5232 2.83442 70.7229 4.20938C72.9528 5.55505 74.7008 7.53059 75.7303 9.86842H70.193C69.2965 8.84949 68.2117 8.0007 66.9938 7.36539C65.8078 6.77929 64.4907 6.48466 63.1588 6.50757C61.6325 6.51336 60.1427 6.95915 58.88 7.78789C57.5784 8.61739 56.5072 9.74283 55.7603 11.0655C54.9902 12.3701 54.5851 13.8462 54.5851 15.3482C54.5851 16.8502 54.9902 18.3263 55.7603 19.6309C56.5283 20.9648 57.6249 22.0949 58.9528 22.9214C60.2407 23.7543 61.7549 24.1998 63.3045 24.2017C64.496 24.2161 65.6747 23.9642 66.7488 23.4655C67.9517 22.847 69.0235 22.0152 69.9082 21.0137H75.5515C74.8826 22.51 73.9043 23.8585 72.6769 24.9763C71.4355 26.1242 69.9787 27.0325 68.3848 27.6522C66.8114 28.2497 65.134 28.5496 63.4436 28.5356Z" fill="black"/>
<path d="M84.639 21.4682L81.8373 28.0235H76.4722L87.4077 2.62817H91.2096L102.218 28.0235H96.8264L94.0246 21.4682H84.639ZM86.2751 17.0383H92.3091L89.3285 9.25387H89.2557L86.2751 17.0383Z" fill="black"/>
<path d="M100.138 7.0197V2.62817H114.77V7.0197H109.868V28.0235H105.006V7.0197H100.138Z" fill="black"/>
<path d="M120.36 2.62817V25.7253H131.223V28.0235H117.73V2.62817H120.36Z" fill="url(#paint0_linear_99_197)"/>
<path d="M131.719 28.5036H117.234V2.16083H120.857V25.2579H131.719V28.5036ZM118.227 27.5433H130.726V26.2054H119.863V3.10827H118.227V27.5433Z" fill="url(#paint1_linear_99_197)"/>
<path d="M146.629 28.4652C144.251 28.4683 141.913 27.8726 139.846 26.7367C137.749 25.6061 135.979 23.9837 134.7 22.0187C133.397 20.0645 132.707 17.788 132.713 15.4634C132.696 13.1212 133.342 10.8191 134.581 8.80575C135.795 6.79472 137.532 5.12613 139.621 3.96611C141.746 2.7638 144.167 2.13996 146.629 2.16085C149.07 2.14353 151.473 2.75327 153.59 3.9277C155.682 5.07435 157.432 6.72377 158.671 8.71613C159.899 10.7023 160.548 12.9732 160.548 15.2874C160.548 17.6016 159.899 19.8725 158.671 21.8587C157.433 23.8566 155.683 25.5125 153.59 26.6663C151.478 27.8571 149.074 28.4783 146.629 28.4652ZM146.596 4.48464C144.611 4.46989 142.661 4.99089 140.966 5.98902C139.274 6.97771 137.87 8.36544 136.886 10.0221C135.888 11.6726 135.366 13.5517 135.375 15.4634C135.373 17.3281 135.908 19.1567 136.919 20.7448C137.933 22.377 139.357 23.7355 141.058 24.6946C142.742 25.6667 144.668 26.1758 146.629 26.167C148.627 26.1852 150.592 25.6761 152.312 24.6946C154.021 23.7403 155.443 22.3724 156.438 20.7256C157.427 19.0936 157.949 17.2364 157.949 15.345C157.949 13.4537 157.427 11.5965 156.438 9.96444C155.448 8.30887 154.028 6.93189 152.319 5.96982C150.589 4.97486 148.608 4.46092 146.596 4.48464Z" fill="url(#paint2_linear_99_197)"/>
<path d="M146.629 28.9453C144.167 28.9469 141.748 28.3291 139.608 27.1528C137.447 25.9812 135.625 24.3039 134.309 22.2748C132.97 20.2395 132.264 17.8753 132.276 15.4634C132.256 13.0389 132.915 10.6544 134.183 8.56247C135.447 6.48461 137.245 4.75787 139.403 3.54999C141.603 2.34359 144.089 1.70941 146.619 1.70941C149.149 1.70941 151.635 2.34359 153.835 3.54999C156.001 4.73885 157.812 6.44771 159.094 8.51126C160.373 10.5707 161.048 12.9273 161.048 15.329C161.048 17.7307 160.373 20.0873 159.094 22.1467C157.807 24.2096 155.997 25.9215 153.835 27.1208C151.643 28.3365 149.156 28.9662 146.629 28.9453ZM146.629 2.66016C144.26 2.63844 141.929 3.23325 139.879 4.3822C137.867 5.50503 136.189 7.11291 135.011 9.04899C133.828 10.9879 133.208 13.1995 133.216 15.4506C133.205 17.6813 133.858 19.8679 135.097 21.7498C136.332 23.6456 138.04 25.2107 140.065 26.3014C142.088 27.4041 144.372 27.9797 146.695 27.9719C149.017 27.964 151.297 27.3729 153.312 26.2566C155.328 25.1413 157.016 23.5457 158.214 21.6218C159.401 19.7118 160.029 17.5254 160.029 15.297C160.029 13.0686 159.401 10.8822 158.214 8.97218C157.008 7.03825 155.305 5.43912 153.27 4.33067C151.236 3.22221 148.938 2.64226 146.602 2.64736L146.629 2.66016ZM146.629 26.6471C144.579 26.652 142.567 26.1188 140.807 25.1043C139.034 24.1075 137.551 22.6937 136.495 20.9944C135.438 19.3306 134.878 17.416 134.879 15.4634C134.871 13.4687 135.415 11.5083 136.455 9.78519C137.479 8.05643 138.943 6.60882 140.707 5.57931C142.483 4.53992 144.52 3.99492 146.596 4.00451C148.692 3.99064 150.753 4.52838 152.557 5.5601C154.337 6.56812 155.818 8.00368 156.856 9.72757C157.888 11.4338 158.432 13.3748 158.432 15.3514C158.432 17.328 157.888 19.2691 156.856 20.9752C155.822 22.6857 154.348 24.1083 152.577 25.1043C150.776 26.1308 148.72 26.6641 146.629 26.6471ZM146.596 4.96476C144.701 4.9518 142.841 5.45068 141.224 6.40512C139.604 7.34252 138.259 8.66472 137.316 10.2461C136.364 11.8234 135.865 13.6181 135.872 15.4442C135.872 17.2234 136.384 18.9676 137.349 20.4823C138.323 22.045 139.69 23.3443 141.323 24.2593C142.926 25.1815 144.757 25.6681 146.622 25.6676C148.531 25.6814 150.408 25.1947 152.054 24.2593C153.678 23.3454 155.029 22.0396 155.975 20.4695C156.914 18.9155 157.409 17.148 157.409 15.3482C157.409 13.5484 156.914 11.781 155.975 10.2269C155.029 8.6373 153.67 7.31345 152.034 6.38592C150.388 5.44345 148.508 4.95213 146.596 4.96476Z" fill="url(#paint3_linear_99_197)"/>
<path d="M191.47 16.3533C191.299 18.5511 190.542 20.6684 189.271 22.4989C188.005 24.3388 186.281 25.8422 184.257 26.8712C182.206 27.9315 179.913 28.4794 177.587 28.4652C175.173 28.4473 172.802 27.8472 170.689 26.7192C168.576 25.5912 166.787 23.9712 165.486 22.006C164.162 20.0089 163.472 17.6814 163.499 15.3098C163.486 12.9858 164.144 10.7043 165.4 8.72255C167.175 5.94768 169.911 3.8711 173.121 2.86192C176.332 1.85275 179.808 1.97634 182.933 3.21074C184.555 3.84826 186.047 4.76098 187.337 5.90584C188.469 6.86954 189.372 8.05724 189.987 9.38832H186.907C185.971 7.86848 184.612 6.63306 182.986 5.82261C181.327 4.94443 179.466 4.4843 177.574 4.48467C175.574 4.47565 173.607 4.97691 171.871 5.93784C170.14 6.8819 168.691 8.24257 167.665 9.88766C166.636 11.5401 166.092 13.4324 166.092 15.361C166.092 17.2897 166.636 19.182 167.665 20.8345C168.698 22.4757 170.16 23.8248 171.904 24.7458C173.665 25.6893 175.647 26.1788 177.66 26.167C179.25 26.1681 180.822 25.8407 182.27 25.2068C183.723 24.585 185.023 23.673 186.085 22.5309C187.131 21.4275 187.885 20.0967 188.284 18.6515H173.66V16.3533H191.47Z" fill="url(#paint4_linear_99_197)"/>
<path d="M177.594 28.9454C175.093 28.9321 172.636 28.3149 170.445 27.1499C168.254 25.9849 166.399 24.3091 165.049 22.2749C163.679 20.1994 162.961 17.7845 162.982 15.3227C162.977 12.9098 163.665 10.5427 164.97 8.48573C166.81 5.60949 169.648 3.45885 172.977 2.41761C176.306 1.37637 179.91 1.51228 183.145 2.80107C184.82 3.46232 186.36 4.40513 187.695 5.58579C188.868 6.59874 189.803 7.843 190.437 9.23472L190.729 9.87488H186.642L186.503 9.63802C185.607 8.19587 184.313 7.02326 182.767 6.25155C181.132 5.39226 179.297 4.95172 177.436 4.97189C175.575 4.99206 173.751 5.47227 172.136 6.36679C170.48 7.27028 169.093 8.57113 168.109 10.1438C167.121 11.7178 166.605 13.5264 166.619 15.3675C166.605 17.2091 167.129 19.0173 168.129 20.5848C169.117 22.1551 170.515 23.4466 172.183 24.3298C173.87 25.2337 175.77 25.7032 177.7 25.6933C179.214 25.6915 180.711 25.3795 182.091 24.7779C183.48 24.1802 184.723 23.3079 185.741 22.2172C186.581 21.3238 187.227 20.2768 187.642 19.1381H173.15V15.8796H192.014L191.967 16.3982C191.795 18.6879 191.007 20.8945 189.682 22.7998C188.374 24.7048 186.593 26.263 184.502 27.3321C182.374 28.4168 180 28.9712 177.594 28.9454ZM177.554 2.66024C175.201 2.65284 172.885 3.23077 170.83 4.33844C168.774 5.44611 167.048 7.04627 165.817 8.98506C164.611 10.8926 163.978 13.0871 163.989 15.3227C163.967 17.6014 164.633 19.8369 165.903 21.7563C167.761 24.5984 170.658 26.6597 174.018 27.5294C177.378 28.399 180.954 28.0132 184.032 26.4487C185.981 25.4541 187.641 24.0038 188.861 22.23C189.979 20.6139 190.685 18.7644 190.921 16.8335H174.143V18.165H188.96L188.794 18.8052C188.369 20.3205 187.577 21.7162 186.483 22.8766C185.376 24.0681 184.022 25.0212 182.509 25.6741C181.002 26.3325 179.367 26.673 177.713 26.6728C175.616 26.6832 173.552 26.1718 171.719 25.1876C169.9 24.2267 168.374 22.8205 167.294 21.1098C166.217 19.3823 165.648 17.4036 165.648 15.3867C165.648 13.3698 166.217 11.3911 167.294 9.66363C168.366 7.95059 169.876 6.53303 171.679 5.54737C173.442 4.57461 175.432 4.05289 177.462 4.0316C179.491 4.01032 181.493 4.49019 183.277 5.42575C184.898 6.23703 186.269 7.44708 187.251 8.93384H189.238C188.663 7.94183 187.925 7.04675 187.052 6.28356C185.807 5.17667 184.367 4.29424 182.8 3.67809C181.139 3.00556 179.355 2.65955 177.554 2.66024Z" fill="url(#paint5_linear_99_197)"/>
<path d="M10.9386 30.1744H2.32802V9.95807H7.87856V24.8099H10.9386C13.5179 24.7454 15.9691 23.7097 17.7698 21.9238C19.5705 20.1378 20.5782 17.7427 20.5782 15.249C20.5782 12.7553 19.5705 10.3602 17.7698 8.57427C15.9691 6.7883 13.5179 5.75268 10.9386 5.68817H8.733V0.323608H10.9254C14.9657 0.404485 18.8123 2.01251 21.6401 4.80276C24.4679 7.59301 26.0517 11.3432 26.0517 15.249C26.0517 19.1548 24.4679 22.905 21.6401 25.6953C18.8123 28.4855 14.9657 30.0936 10.9254 30.1744H10.9386Z" fill="black"/>
<path d="M7.87852 24.8099C7.87852 24.8099 7.93814 20.4888 10.7333 19.5029C13.8397 18.4083 16.827 19.3557 17.9397 19.7014C18.3932 19.8834 18.8794 19.977 19.3704 19.9767C19.7785 20.003 20.1879 19.948 20.5731 19.8151C20.9584 19.6823 21.3113 19.4744 21.61 19.2043C21.9087 18.9342 22.1468 18.6077 22.3096 18.2451C22.4724 17.8824 22.5564 17.4913 22.5564 17.0959C22.5564 16.7006 22.4724 16.3095 22.3096 15.9468C22.1468 15.5841 21.9087 15.2576 21.61 14.9876C21.3113 14.7175 20.9584 14.5096 20.5731 14.3767C20.1879 14.2439 19.7785 14.1889 19.3704 14.2152C18.8786 14.2139 18.3918 14.3098 17.9397 14.4969C15.6135 15.2655 13.101 15.3347 10.7333 14.6953C8.01762 13.8695 7.87852 9.9325 7.87852 9.9325" fill="#EAC7AE"/>
<path d="M27.1002 15.5403C28.0769 15.5403 28.8687 14.8553 28.8687 14.0103C28.8687 13.1653 28.0769 12.4803 27.1002 12.4803C26.1235 12.4803 25.3317 13.1653 25.3317 14.0103C25.3317 14.8553 26.1235 15.5403 27.1002 15.5403Z" fill="#EAC7AE"/>
<path d="M2.328 30.1744V4.95837H8.18323C8.18323 12.3843 8.06401 17.2943 8.06401 24.8034C12.6608 24.8034 15.2241 27.3065 19.9864 27.3065C18.7627 28.5066 17.2277 29.3667 15.542 29.7967C14.5365 30.1073 13.4908 30.2797 12.4356 30.3089C9.39534 30.3793 5.46757 30.1744 2.328 30.1744Z" fill="url(#paint6_linear_99_197)"/>
</g>
<defs>
<linearGradient id="paint0_linear_99_197" x1="117.73" y1="15.3226" x2="131.223" y2="15.3226" gradientUnits="userSpaceOnUse">
<stop stop-color="#0BDBB6"/>
<stop offset="1" stop-color="#0BDBB6"/>
</linearGradient>
<linearGradient id="paint1_linear_99_197" x1="117.234" y1="15.3226" x2="131.719" y2="15.3226" gradientUnits="userSpaceOnUse">
<stop stop-color="#0BDBB6"/>
<stop offset="1" stop-color="#0BDBB6"/>
</linearGradient>
<linearGradient id="paint2_linear_99_197" x1="132.746" y1="15.3226" x2="160.552" y2="15.3226" gradientUnits="userSpaceOnUse">
<stop stop-color="#0BDBB6"/>
<stop offset="1" stop-color="#0BDBB6"/>
</linearGradient>
<linearGradient id="paint3_linear_99_197" x1="132.249" y1="15.3226" x2="161.048" y2="15.3226" gradientUnits="userSpaceOnUse">
<stop stop-color="#0BDBB6"/>
<stop offset="1" stop-color="#0BDBB6"/>
</linearGradient>
<linearGradient id="paint4_linear_99_197" x1="163.492" y1="15.3226" x2="191.47" y2="15.3226" gradientUnits="userSpaceOnUse">
<stop stop-color="#0BDBB6"/>
<stop offset="1" stop-color="#0BDBB6"/>
</linearGradient>
<linearGradient id="paint5_linear_99_197" x1="162.996" y1="15.3227" x2="192.014" y2="15.3227" gradientUnits="userSpaceOnUse">
<stop stop-color="#0BDBB6"/>
<stop offset="1" stop-color="#0BDBB6"/>
</linearGradient>
<linearGradient id="paint6_linear_99_197" x1="2.328" y1="17.64" x2="20.0063" y2="17.64" gradientUnits="userSpaceOnUse">
<stop stop-color="#0BDBB6"/>
<stop offset="1" stop-color="#41B06E"/>
</linearGradient>
<clipPath id="clip0_99_197">
<rect width="194" height="30" fill="white"/>
</clipPath>
</defs>
</svg>
