<svg width="62" height="62" viewBox="0 0 62 62" fill="none" xmlns="http://www.w3.org/2000/svg">
<g filter="url(#filter0_d_99_963)">
<circle cx="27" cy="27" r="26" fill="white"/>
</g>
<path d="M29.2753 18.5499C29.3008 18.4549 29.3447 18.3658 29.4047 18.2877C29.4647 18.2097 29.5394 18.1442 29.6247 18.095C29.7101 18.0458 29.8043 18.0139 29.9019 18.001C29.9996 17.9882 30.0989 17.9947 30.1941 18.0201C31.5844 18.3823 32.853 19.1079 33.869 20.1222C34.8851 21.1366 35.6119 22.403 35.9747 23.791C36.0002 23.886 36.0067 23.9851 35.9939 24.0826C35.981 24.1801 35.949 24.2742 35.8997 24.3593C35.8505 24.4445 35.7849 24.5192 35.7067 24.579C35.6285 24.6389 35.5392 24.6828 35.4441 24.7082C35.3807 24.7248 35.3155 24.7333 35.25 24.7334C35.0847 24.7334 34.9241 24.6789 34.793 24.5784C34.662 24.4779 34.5679 24.3369 34.5253 24.1775C34.2295 23.0444 33.6362 22.0106 32.8069 21.1826C31.9775 20.3546 30.9419 19.7624 29.8069 19.4671C29.7116 19.4418 29.6223 19.3979 29.544 19.3381C29.4657 19.2783 29.4 19.2037 29.3506 19.1185C29.3012 19.0333 29.2692 18.9392 29.2563 18.8417C29.2433 18.7441 29.2498 18.6449 29.2753 18.5499ZM29.0569 22.462C30.3497 22.8064 31.1803 23.6356 31.5253 24.9262C31.5679 25.0857 31.662 25.2266 31.793 25.3271C31.9241 25.4277 32.0847 25.4822 32.25 25.4822C32.3155 25.482 32.3807 25.4735 32.4441 25.4569C32.5392 25.4315 32.6285 25.3876 32.7067 25.3277C32.7849 25.2679 32.8505 25.1932 32.8997 25.1081C32.949 25.0229 32.981 24.9288 32.9939 24.8313C33.0067 24.7338 33.0002 24.6347 32.9747 24.5397C32.4947 22.7465 31.2403 21.4942 29.4441 21.0151C29.3489 20.9897 29.2497 20.9833 29.152 20.9962C29.0543 21.0091 28.9602 21.0411 28.8749 21.0903C28.7897 21.1395 28.7149 21.205 28.655 21.2831C28.5951 21.3612 28.5512 21.4502 28.5258 21.5453C28.5004 21.6403 28.4939 21.7393 28.5069 21.8368C28.5198 21.9343 28.5518 22.0283 28.6011 22.1134C28.6505 22.1986 28.7161 22.2731 28.7943 22.333C28.8725 22.3928 28.9617 22.4366 29.0569 22.462ZM36.7388 31.3859C36.5716 32.6541 35.9477 33.8182 34.9837 34.6607C34.0196 35.5033 32.7813 35.9667 31.5 35.9644C24.0563 35.9644 18 29.9184 18 22.4872C17.9977 21.2081 18.4619 19.9719 19.3059 19.0095C20.1499 18.0471 21.3159 17.4243 22.5863 17.2574C22.9075 17.2182 23.2328 17.2838 23.5136 17.4444C23.7944 17.605 24.0157 17.8519 24.1444 18.1484L26.1244 22.5612V22.5724C26.2229 22.7993 26.2636 23.0471 26.2428 23.2935C26.222 23.54 26.1404 23.7774 26.0053 23.9847C25.9884 24.01 25.9706 24.0334 25.9519 24.0568L24 26.3666C24.7022 27.7911 26.1947 29.2679 27.6403 29.9708L29.9222 28.0325C29.9446 28.0137 29.9681 27.9962 29.9925 27.9801C30.2 27.842 30.4387 27.7577 30.687 27.7348C30.9353 27.7119 31.1854 27.7512 31.4147 27.8491L31.4269 27.8547L35.8434 29.8304C36.1409 29.9584 36.3889 30.1791 36.5502 30.4595C36.7116 30.7399 36.7778 31.0649 36.7388 31.3859ZM35.25 31.1987H35.2397L30.8334 29.2286L28.5506 31.1669C28.5285 31.1856 28.5053 31.2031 28.4813 31.2193C28.2654 31.3631 28.0159 31.4485 27.7571 31.4672C27.4983 31.4859 27.239 31.4372 27.0047 31.326C25.2488 30.479 23.4984 28.7448 22.6491 27.0105C22.5366 26.7783 22.4861 26.521 22.5025 26.2635C22.519 26.0061 22.6017 25.7572 22.7428 25.5411C22.7587 25.5158 22.7766 25.4917 22.7963 25.4691L24.75 23.1564L22.7813 18.7576C22.7809 18.7539 22.7809 18.7501 22.7813 18.7464C21.8721 18.8648 21.0374 19.31 20.4334 19.9986C19.8294 20.6872 19.4975 21.572 19.5 22.4872C19.5035 25.6634 20.7689 28.7084 23.0186 30.9543C25.2682 33.2002 28.3185 34.4634 31.5 34.4669C32.4163 34.4701 33.3023 34.1399 33.9925 33.5383C34.6827 32.9366 35.1297 32.1046 35.25 31.1978V31.1987Z" fill="#0BDBB6"/>
<defs>
<filter id="filter0_d_99_963" x="0.1875" y="0.1875" width="61.75" height="61.75" filterUnits="userSpaceOnUse" color-interpolation-filters="sRGB">
<feFlood flood-opacity="0" result="BackgroundImageFix"/>
<feColorMatrix in="SourceAlpha" type="matrix" values="0 0 0 0 0 0 0 0 0 0 0 0 0 0 0 0 0 0 127 0" result="hardAlpha"/>
<feOffset dx="4.0625" dy="4.0625"/>
<feGaussianBlur stdDeviation="2.4375"/>
<feComposite in2="hardAlpha" operator="out"/>
<feColorMatrix type="matrix" values="0 0 0 0 0.266667 0 0 0 0 0.266667 0 0 0 0 0.266667 0 0 0 0.06 0"/>
<feBlend mode="normal" in2="BackgroundImageFix" result="effect1_dropShadow_99_963"/>
<feBlend mode="normal" in="SourceGraphic" in2="effect1_dropShadow_99_963" result="shape"/>
</filter>
</defs>
</svg>
