<svg width="262" height="164" viewBox="0 0 262 164" fill="none" xmlns="http://www.w3.org/2000/svg">
<path d="M22.1438 151.694C7.21381 115.914 15.1438 72.6145 41.9538 43.6145C60.5438 23.4945 86.6438 10.6145 113.604 2.45449C145.134 -7.14551 178.534 -10.9655 211.604 -9.79551C228.534 -9.19551 246.174 -7.04552 260.174 1.91448C283.304 16.7145 290.354 45.9145 290.034 72.2245C289.524 116.394 272.294 161.395 237.904 191.514C187.904 235.255 108.064 234.824 55.6838 194.514C40.9538 183.134 29.1138 168.394 22.1438 151.694Z" fill="#0BDBB6"/>
<path d="M76.9438 20.7143C76.3487 21.3692 75.6139 21.8819 74.7938 22.2143C74.0849 22.5415 73.2992 22.6661 72.5238 22.5743C72.1375 22.5264 71.7682 22.3871 71.4465 22.1679C71.1248 21.9488 70.8599 21.6562 70.6738 21.3143C70.4632 20.7941 70.3644 20.2353 70.3838 19.6743L70.2938 16.6743C70.2345 16.0034 70.2886 15.3273 70.4538 14.6743C71.2038 12.3643 73.5138 12.9043 75.0538 13.9243C77.8038 15.7643 78.7138 18.6543 76.9438 20.7143Z" fill="#0BDBB6"/>
<path d="M52.0438 26.9945C52.1792 27.7286 52.1484 28.4837 51.9538 29.2045C51.8148 29.8537 51.5 30.4522 51.0438 30.9345C50.8129 31.1701 50.5292 31.3473 50.2162 31.4516C49.9033 31.556 49.5699 31.5844 49.2438 31.5345C48.7838 31.4112 48.3547 31.1932 47.9838 30.8945L45.9238 29.3945C45.4457 29.0921 45.0201 28.7138 44.6638 28.2745C43.4838 26.5845 45.0338 25.2745 46.5138 24.7745C49.1338 23.8945 51.5538 24.7445 52.0438 26.9945Z" fill="#0BDBB6"/>
<path d="M42.2938 26.4543C42.9212 26.5846 43.5099 26.8585 44.0138 27.2543C44.4792 27.5785 44.846 28.0249 45.0739 28.5443C45.1838 28.8045 45.2303 29.0871 45.2094 29.3688C45.1886 29.6505 45.1009 29.9232 44.9538 30.1643C44.7014 30.4862 44.3847 30.7519 44.0238 30.9443L42.1939 32.0843C41.8006 32.3663 41.3604 32.5762 40.8938 32.7043C39.1738 33.0743 38.6639 31.4344 38.7439 30.0944C38.8339 27.7144 40.2938 26.0943 42.2938 26.4543Z" fill="#0BDBB6"/>
<path d="M32.2938 45.8244C32.1896 46.3106 31.974 46.7659 31.6638 47.1545C31.4131 47.513 31.0666 47.7937 30.6638 47.9645C30.4629 48.0501 30.2442 48.0858 30.0265 48.0684C29.8088 48.051 29.5985 47.981 29.4138 47.8644C29.1674 47.6713 28.9632 47.4297 28.8138 47.1545L27.9338 45.7244C27.7166 45.4231 27.5572 45.084 27.4638 44.7244C27.1738 43.3944 28.4638 43.0044 29.4638 43.0744C31.3638 43.1844 32.6138 44.3344 32.2938 45.8244Z" fill="#0BDBB6"/>
<path d="M25.2938 62.9345C24.9415 62.1461 24.7739 61.2876 24.8038 60.4245C24.7884 59.6622 24.9858 58.9108 25.3738 58.2545C25.5718 57.9303 25.8434 57.6572 26.1665 57.4574C26.4896 57.2576 26.8553 57.1367 27.2338 57.1045C27.7816 57.1248 28.3195 57.2576 28.8138 57.4945L31.5138 58.5845C32.1282 58.7978 32.7028 59.1121 33.2138 59.5145C34.9838 61.0945 33.5938 62.9445 32.0738 63.9145C29.4138 65.6445 26.4738 65.3245 25.2938 62.9345Z" fill="#0BDBB6"/>
<path d="M34.6939 81.9944C34.8967 82.6682 34.9478 83.3785 34.8438 84.0744C34.7792 84.6962 34.5438 85.288 34.1638 85.7844C33.9703 86.0264 33.7233 86.2201 33.4422 86.3502C33.161 86.4804 32.8535 86.5434 32.5438 86.5344C32.1064 86.462 31.6881 86.3021 31.3139 86.0644L29.2238 84.9144C28.7483 84.6822 28.3156 84.3711 27.9439 83.9944C26.6639 82.5444 27.9438 81.1844 29.2938 80.5444C31.6538 79.3944 34.0039 79.9544 34.6939 81.9944Z" fill="#0BDBB6"/>
<path d="M8.23377 88.9346C7.73172 89.7639 7.04785 90.4683 6.23377 90.9946C5.53375 91.493 4.7107 91.7904 3.85377 91.8546C3.42641 91.8774 2.99973 91.7987 2.60865 91.6249C2.21757 91.4511 1.8732 91.1871 1.60377 90.8546C1.26964 90.3374 1.0513 89.7541 0.963752 89.1446L0.243781 85.9446C0.0436202 85.2431 -0.0342261 84.5125 0.0137394 83.7846C0.353739 81.1446 2.9438 81.2446 4.8238 82.0346C8.1338 83.3946 9.71377 86.3946 8.23377 88.9346Z" fill="#0BDBB6"/>
<path d="M9.45378 104.654C8.6289 105.283 7.67109 105.714 6.6538 105.914C5.76533 106.142 4.83124 106.122 3.95379 105.854C3.51839 105.711 3.12302 105.467 2.79979 105.142C2.47657 104.817 2.23466 104.421 2.0938 103.984C1.95889 103.345 1.95889 102.684 2.0938 102.044C2.2738 100.884 2.44383 99.7345 2.62383 98.5745C2.69657 97.797 2.90648 97.0387 3.24382 96.3345C4.60382 93.8345 7.14378 94.9545 8.70378 96.4645C11.5038 99.1445 11.9338 102.674 9.45378 104.654Z" fill="#0BDBB6"/>
<path d="M22.9338 121.164C22.2458 121.181 21.5627 121.044 20.9338 120.764C20.3567 120.551 19.8533 120.176 19.4838 119.685C19.2983 119.442 19.1742 119.157 19.122 118.856C19.0698 118.555 19.091 118.246 19.1838 117.954C19.3586 117.551 19.6177 117.19 19.9438 116.894L21.5838 115.204C21.9206 114.802 22.3271 114.463 22.7838 114.204C24.4938 113.354 25.4538 114.954 25.7238 116.384C26.1838 118.934 25.0638 121.034 22.9338 121.164Z" fill="#0BDBB6"/>
<path d="M147.294 134.944C146.294 138.654 144.294 141.255 142.294 144.395C141.294 146.075 140.744 148.454 140.084 150.324C139.354 152.324 138.654 154.384 137.954 156.414C135.184 164.564 132.564 172.744 129.384 180.734C128.034 184.145 127.224 188.474 123.604 190.224C120.854 191.554 116.884 190.415 114.074 189.715C106.791 188.023 100.235 184.059 95.3538 178.395L95.1839 178.185C92.3939 174.825 89.6739 170.034 89.9339 165.544C89.9572 164.892 90.082 164.248 90.3038 163.634C91.3038 160.914 92.7838 158.264 93.9838 155.634C96.5821 150.226 98.7976 144.643 100.614 138.924C100.718 138.647 100.718 138.342 100.614 138.065C100.505 137.879 100.355 137.721 100.174 137.604C97.5038 135.664 94.3438 133.884 92.4138 131.115C91.4138 129.695 91.2138 127.525 90.7638 125.875C89.7638 122.245 89.0538 118.325 86.5838 115.365C85.5038 114.085 84.1338 112.994 83.1438 111.664C82.6038 110.934 82.2738 110.025 81.7238 109.315C76.9738 103.215 69.8238 99.8645 63.9538 95.0845C62.6938 94.0845 62.4538 93.0845 62.8038 92.1845C63.6238 90.1045 67.6839 88.5745 69.6839 88.3045C71.4926 88.114 73.3211 88.3135 75.0462 88.8896C76.7712 89.4658 78.3527 90.4052 79.6839 91.6445C82.5239 94.0445 84.2939 97.4545 86.9439 99.9145C87.8238 100.769 88.837 101.475 89.9439 102.004C90.5639 102.294 91.1638 102.604 91.7838 102.914C93.5338 103.784 95.2838 104.694 97.0838 105.395C97.0838 105.395 97.0838 105.395 97.0838 105.335C96.2294 102.117 95.0916 98.9813 93.6839 95.9645C89.7539 87.5145 89.0138 77.7945 84.8438 69.4645C84.7026 69.2329 84.6149 68.9725 84.5872 68.7026C84.5595 68.4327 84.5925 68.16 84.6839 67.9045C85.1039 66.8345 86.6838 66.2845 87.9838 66.1845C89.8651 65.8622 91.7988 66.0628 93.5739 66.7645C93.3239 65.6245 92.9138 64.1145 93.7238 63.2645C94.1653 62.884 94.6945 62.6193 95.2638 62.4945C96.6375 62.1307 98.0745 62.0738 99.4727 62.3278C100.871 62.5819 102.196 63.1407 103.354 63.9645C104.165 63.8396 104.994 63.9081 105.774 64.1645C109.891 65.6219 113.584 68.0747 116.524 71.3045C118.084 72.9245 118.294 75.3045 118.944 77.4745C119.674 79.9245 120.474 82.3545 121.324 84.7745C122.173 87.3999 123.299 89.9275 124.684 92.3145C125.254 93.2445 127.834 97.1345 129.204 96.4345C129.402 96.3243 129.562 96.157 129.664 95.9545C129.757 95.7367 129.801 95.5012 129.794 95.2645C129.887 90.3663 129.212 85.4837 127.794 80.7945C127.611 80.2912 127.58 79.7454 127.704 79.2245C127.728 79.1426 127.765 79.065 127.814 78.9945C128.394 78.0745 129.814 78.3145 130.624 78.7545C134.504 80.8945 135.724 85.3845 137.014 89.3545C138.094 92.6645 138.494 96.0045 139.254 99.3545C140.085 103.07 141.178 106.723 142.524 110.285C144.054 114.285 145.854 117.934 147.084 121.974C148.343 126.197 148.416 130.684 147.294 134.944Z" fill="url(#paint0_linear_99_456)"/>
<path d="M117.204 96.4445C112.034 90.0445 110.904 81.6145 109.504 73.8045C109.204 72.1145 109.194 70.1145 108.204 68.7445C107.108 67.4469 105.835 66.3092 104.424 65.3645C105.858 66.0505 107.151 67.0004 108.234 68.1645C109.104 69.3968 109.688 70.8078 109.944 72.2945C111.304 78.1745 111.444 84.4245 114.094 89.8445C115.407 92.3316 116.972 94.6773 118.764 96.8445C118.212 96.9183 117.652 96.7749 117.204 96.4445Z" fill="#D96D5F"/>
<path d="M95.0739 67.8545C96.8011 69.8024 98.2668 71.9673 99.4338 74.2945C100.248 76.315 100.871 78.4076 101.294 80.5445C102.506 85.6009 104.08 90.5637 106.004 95.3945C106.694 97.1345 107.414 97.6045 109.194 97.5645C106.194 94.5645 104.934 90.2945 103.754 86.2145L100.994 76.6245C100.646 75.2028 100.132 73.8267 99.4638 72.5245C98.4238 70.9 97.1424 69.4433 95.6638 68.2045L95.0739 67.8545Z" fill="#D96D5F"/>
<path d="M120.604 120.394C113.908 113.937 105.98 108.893 97.2938 105.564C106.884 108.414 116.404 113.064 122.184 121.234C121.634 121.001 121.105 120.719 120.604 120.394Z" fill="url(#paint1_linear_99_456)"/>
<path d="M137.224 111.455C132.514 113.935 128.631 117.737 126.054 122.395C126.533 119.614 127.995 117.098 130.174 115.305C132.281 113.62 134.667 112.317 137.224 111.455Z" fill="url(#paint2_linear_99_456)"/>
<path d="M133.494 106.794C123.564 104.741 113.371 104.269 103.294 105.394C113.394 105.604 123.074 106.024 133.494 106.794Z" fill="url(#paint3_linear_99_456)"/>
<path d="M133.114 140.125C130.444 141.612 128.27 143.851 126.864 146.565C125.474 149.268 124.326 152.089 123.434 154.995C120.494 163.481 117.194 171.815 113.534 179.995C114.936 177.897 116.148 175.678 117.154 173.365C120.487 165.765 123.804 158.171 127.104 150.585C128.64 146.471 131.152 142.793 134.424 139.865C133.979 139.904 133.54 139.992 133.114 140.125Z" fill="url(#paint4_linear_99_456)"/>
<path d="M124.644 146.225C122.552 152.4 120.146 158.465 117.434 164.395C117.434 164.305 117.364 163.875 117.434 163.785C120.004 157.635 121.034 151.155 124.644 146.225Z" fill="url(#paint5_linear_99_456)"/>
<g style="mix-blend-mode:multiply">
<path d="M116.294 115.834C115.234 114.604 112.954 113.544 111.674 112.704C109.824 111.484 107.954 110.324 106.034 109.234C103.144 107.584 100.104 106.704 97.1338 105.354C96.2794 102.137 95.1416 99.0011 93.7338 95.9843C89.8038 87.5343 89.0638 77.8143 84.8938 69.4843C84.7525 69.2527 84.6649 68.9924 84.6372 68.7224C84.6095 68.4525 84.6425 68.1798 84.7338 67.9243C84.9938 69.4543 86.4438 70.4943 87.3338 71.9243C88.5984 73.9517 89.6061 76.1284 90.3338 78.4043C91.5838 82.1343 92.3338 86.0143 93.4238 89.7843C94.3013 92.905 95.5116 95.9223 97.0338 98.7843C98.0338 100.654 99.4238 103.104 101.244 104.314C103.064 105.524 106.244 105.414 108.514 105.704C107.74 106.165 107.004 106.686 106.314 107.264C110.275 109.286 113.697 112.224 116.294 115.834Z" fill="#F0D3E1"/>
</g>
<g style="mix-blend-mode:multiply">
<path d="M112.194 139.904C111.206 140.307 110.159 140.543 109.094 140.604C107.314 140.784 105.544 140.974 103.784 141.174C100.944 147.964 98.0239 154.724 96.3739 161.884C95.0721 167.224 94.67 172.743 95.1839 178.214C92.3939 174.854 89.6739 170.064 89.9339 165.574C89.9572 164.922 90.082 164.278 90.3038 163.664C91.3038 160.944 92.7838 158.294 93.9838 155.664C96.5821 150.256 98.7976 144.673 100.614 138.954C100.718 138.677 100.718 138.372 100.614 138.094C100.505 137.909 100.355 137.751 100.174 137.634C97.5038 135.694 94.3438 133.914 92.4138 131.144C91.4138 129.724 91.2138 127.554 90.7638 125.904C89.7638 122.274 89.0538 118.354 86.5838 115.394C85.5038 114.114 84.1338 113.024 83.1438 111.694C82.6038 110.964 82.2738 110.054 81.7238 109.344C76.9738 103.244 69.8238 99.8943 63.9538 95.1143C62.6938 94.1143 62.4538 93.1144 62.8038 92.2144C63.1663 93.132 63.7627 93.9388 64.5338 94.5544C68.5767 97.8113 73.1228 100.388 77.9938 102.184C79.5665 102.875 81.2784 103.19 82.9938 103.104C83.8448 103.052 84.6625 102.755 85.349 102.25C86.0354 101.744 86.5614 101.051 86.8638 100.254L86.9538 99.9443C87.8337 100.799 88.847 101.505 89.9538 102.034C90.5738 102.324 91.1738 102.634 91.7938 102.944C91.2298 103.017 90.7093 103.286 90.3239 103.704C89.6895 104.578 89.3403 105.625 89.3239 106.704C89.0524 110.828 89.3893 114.969 90.3239 118.994C90.7211 121.268 91.3236 123.5 92.1239 125.664C93.6286 129.326 96.037 132.546 99.1239 135.024C102.714 137.704 108.014 138.744 112.194 139.904Z" fill="#F0D3E1"/>
</g>
<g style="mix-blend-mode:multiply">
<path d="M131.544 97.0844C131.533 97.1664 131.505 97.2453 131.462 97.316C131.419 97.3866 131.362 97.4474 131.294 97.4944C131.207 97.5307 131.112 97.5451 131.018 97.5364C130.923 97.5277 130.833 97.4961 130.754 97.4444C130.201 97.1981 129.694 96.86 129.254 96.4444C129.452 96.3341 129.612 96.1669 129.714 95.9644C129.807 95.7466 129.851 95.5111 129.844 95.2744C129.937 90.3762 129.262 85.4936 127.844 80.8044C127.661 80.3011 127.63 79.7553 127.754 79.2344C128.264 82.7844 130.524 85.8844 131.494 89.3544C132.197 91.8808 132.214 94.549 131.544 97.0844Z" fill="#F0D3E1"/>
</g>
<path d="M162.504 134.944C163.504 138.654 165.504 141.254 167.504 144.394C168.554 146.074 169.054 148.454 169.714 150.324C170.444 152.324 171.144 154.384 171.844 156.414C174.614 164.564 177.234 172.744 180.414 180.734C181.764 184.144 182.574 188.474 186.194 190.224C188.944 191.554 192.914 190.414 195.734 189.714C202.999 188.013 209.536 184.049 214.404 178.394L214.574 178.184C217.364 174.824 220.084 170.034 219.834 165.544C219.802 164.893 219.674 164.249 219.454 163.634C218.454 160.914 216.974 158.264 215.784 155.634C213.182 150.227 210.964 144.643 209.144 138.924C209.023 138.653 209.005 138.348 209.094 138.064C209.205 137.881 209.356 137.724 209.534 137.604C212.204 135.664 215.364 133.884 217.294 131.114C218.294 129.694 218.504 127.524 218.944 125.874C219.944 122.244 220.654 118.324 223.134 115.364C224.204 114.084 225.574 112.994 226.564 111.664C227.104 110.934 227.434 110.024 227.984 109.314C232.744 103.214 239.884 99.8644 245.754 95.0844C247.014 94.0844 247.254 93.0845 246.904 92.1845C246.084 90.1045 242.024 88.5745 240.024 88.3045C238.215 88.1139 236.387 88.3134 234.662 88.8896C232.936 89.4658 231.355 90.4052 230.024 91.6444C227.184 94.0444 225.414 97.4544 222.764 99.9144C221.884 100.769 220.871 101.475 219.764 102.004C219.154 102.294 218.544 102.604 217.934 102.914C216.174 103.784 214.424 104.694 212.624 105.394C212.624 105.394 212.624 105.394 212.624 105.334C213.478 102.117 214.616 98.9813 216.024 95.9645C219.954 87.5145 220.704 77.7945 224.874 69.4645C225.012 69.2313 225.096 68.9707 225.122 68.7011C225.148 68.4316 225.115 68.1596 225.024 67.9045C224.604 66.8345 223.024 66.2845 221.724 66.1845C219.843 65.8627 217.909 66.0633 216.134 66.7644C216.384 65.6244 216.794 64.1144 215.984 63.2644C215.545 62.8857 215.019 62.6212 214.454 62.4945C213.078 62.1305 211.64 62.0735 210.24 62.3275C208.84 62.5816 207.514 63.1404 206.354 63.9645C205.543 63.8403 204.714 63.9088 203.934 64.1644C199.817 65.6219 196.124 68.0747 193.184 71.3045C191.624 72.9245 191.414 75.3044 190.774 77.4744C190.034 79.9211 189.237 82.3545 188.384 84.7745C187.539 87.4015 186.412 89.9296 185.024 92.3145C184.464 93.2445 181.874 97.1345 180.504 96.4345C180.306 96.3242 180.146 96.157 180.044 95.9544C179.951 95.7366 179.907 95.5012 179.914 95.2644C179.82 90.3662 180.495 85.4836 181.914 80.7944C182.101 80.2921 182.133 79.7449 182.004 79.2244C181.979 79.1425 181.942 79.0649 181.894 78.9945C181.314 78.0745 179.894 78.3144 179.084 78.7544C175.204 80.8944 173.984 85.3844 172.694 89.3544C171.614 92.6644 171.224 96.0044 170.454 99.3544C169.632 103.073 168.539 106.726 167.184 110.284C165.654 114.284 163.854 117.934 162.624 121.974C161.394 126.205 161.353 130.692 162.504 134.944Z" fill="url(#paint6_linear_99_456)"/>
<path d="M192.554 96.4445C197.724 90.0445 198.864 81.6145 200.254 73.8045C200.554 72.1145 200.564 70.1145 201.564 68.7445C202.644 67.4583 203.899 66.3306 205.294 65.3945C203.861 66.083 202.569 67.0325 201.484 68.1945C200.614 69.4268 200.029 70.8378 199.774 72.3245C198.424 78.2045 198.274 84.4545 195.624 89.8745C194.315 92.3614 192.753 94.7071 190.964 96.8745C191.244 96.9114 191.529 96.8924 191.802 96.8186C192.075 96.7448 192.33 96.6177 192.554 96.4445Z" fill="#D96D5F"/>
<path d="M214.694 67.8545C212.953 69.8005 211.474 71.9655 210.294 74.2945C209.48 76.315 208.857 78.4076 208.434 80.5445C207.231 85.6001 205.667 90.5629 203.754 95.3945C203.064 97.1345 202.344 97.6045 200.564 97.5645C203.564 94.5645 204.834 90.2945 206.004 86.2145L208.764 76.6245C209.446 73.2558 211.347 70.2575 214.104 68.2045L214.694 67.8545Z" fill="#D96D5F"/>
<path d="M189.164 120.394C195.85 113.929 203.771 108.878 212.454 105.544C202.864 108.394 193.344 113.044 187.564 121.214C188.12 120.987 188.655 120.713 189.164 120.394Z" fill="url(#paint7_linear_99_456)"/>
<path d="M172.544 111.455C177.249 113.938 181.127 117.74 183.704 122.395C183.225 119.614 181.763 117.098 179.584 115.305C177.479 113.622 175.096 112.319 172.544 111.455Z" fill="url(#paint8_linear_99_456)"/>
<path d="M176.294 106.794C186.201 104.749 196.369 104.276 206.424 105.394C196.364 105.604 186.684 106.024 176.294 106.794Z" fill="url(#paint9_linear_99_456)"/>
<path d="M176.644 140.125C179.314 141.612 181.487 143.851 182.894 146.565C184.273 149.269 185.411 152.09 186.294 154.995C189.234 163.481 192.534 171.815 196.194 179.995C194.791 177.897 193.58 175.678 192.574 173.365C189.241 165.765 185.924 158.171 182.624 150.585C181.078 146.488 178.563 142.827 175.294 139.915C175.75 139.935 176.203 140.006 176.644 140.125Z" fill="url(#paint10_linear_99_456)"/>
<path d="M185.114 146.225C187.191 152.401 189.588 158.466 192.294 164.395C192.294 164.305 192.354 163.875 192.294 163.785C189.754 157.635 188.724 151.155 185.114 146.225Z" fill="url(#paint11_linear_99_456)"/>
<g style="mix-blend-mode:multiply">
<path d="M193.464 115.834C194.534 114.604 196.804 113.544 198.084 112.704C199.934 111.484 201.804 110.324 203.724 109.234C206.614 107.584 209.654 106.704 212.624 105.354C213.478 102.137 214.616 99.0011 216.024 95.9843C219.954 87.5343 220.704 77.8143 224.874 69.4843C225.011 69.2511 225.096 68.9905 225.122 68.721C225.148 68.4514 225.114 68.1795 225.024 67.9243C224.764 69.4543 223.314 70.4943 222.424 71.9243C221.159 73.9517 220.152 76.1284 219.424 78.4043C218.174 82.1343 217.424 86.0143 216.344 89.7843C215.459 92.9038 214.245 95.9207 212.724 98.7843C211.724 100.654 210.334 103.104 208.524 104.314C206.714 105.524 203.524 105.414 201.244 105.704C202.018 106.165 202.753 106.686 203.444 107.264C199.484 109.288 196.063 112.226 193.464 115.834Z" fill="#F0D3E1"/>
</g>
<g style="mix-blend-mode:multiply">
<path d="M197.564 139.904C198.555 140.308 199.606 140.544 200.674 140.604C202.444 140.784 204.214 140.974 205.974 141.174C208.814 147.964 211.734 154.724 213.384 161.884C214.686 167.224 215.088 172.743 214.574 178.214C217.364 174.854 220.084 170.064 219.834 165.574C219.802 164.922 219.674 164.279 219.454 163.664C218.454 160.944 216.974 158.294 215.784 155.664C213.182 150.257 210.964 144.673 209.144 138.954C209.023 138.683 209.005 138.378 209.094 138.094C209.205 137.911 209.356 137.754 209.534 137.634C212.204 135.694 215.364 133.914 217.294 131.144C218.294 129.724 218.504 127.554 218.944 125.904C219.944 122.274 220.654 118.354 223.134 115.394C224.204 114.114 225.574 113.024 226.564 111.694C227.104 110.964 227.434 110.054 227.984 109.344C232.744 103.244 239.884 99.8943 245.754 95.1143C247.014 94.1143 247.254 93.1144 246.904 92.2144C246.541 93.132 245.945 93.9388 245.174 94.5544C241.131 97.8113 236.585 100.388 231.714 102.184C230.141 102.875 228.429 103.19 226.714 103.104C225.863 103.051 225.046 102.754 224.36 102.248C223.674 101.743 223.147 101.051 222.844 100.254C222.844 100.154 222.784 100.044 222.754 99.9443C221.874 100.799 220.861 101.505 219.754 102.034C219.144 102.324 218.534 102.634 217.924 102.944C218.484 103.019 219.001 103.288 219.384 103.704C220.018 104.578 220.367 105.625 220.384 106.704C220.66 110.828 220.323 114.97 219.384 118.994C218.991 121.269 218.389 123.501 217.584 125.664C216.079 129.326 213.671 132.546 210.584 135.024C207.044 137.704 201.744 138.744 197.564 139.904Z" fill="#F0D3E1"/>
</g>
<g style="mix-blend-mode:multiply">
<path d="M178.214 97.0844C178.24 97.2487 178.33 97.3961 178.464 97.4944C178.551 97.5307 178.646 97.5451 178.74 97.5364C178.834 97.5277 178.925 97.4961 179.004 97.4444C179.558 97.2005 180.066 96.8622 180.504 96.4444C180.306 96.3341 180.146 96.1669 180.044 95.9644C179.951 95.7466 179.907 95.5111 179.914 95.2744C179.82 90.3762 180.495 85.4936 181.914 80.8044C182.101 80.3021 182.133 79.7548 182.004 79.2344C181.494 82.7844 179.234 85.8844 178.264 89.3544C177.561 91.8808 177.543 94.549 178.214 97.0844Z" fill="#F0D3E1"/>
</g>
<path d="M181.874 66.3944C179.338 69.5031 176.624 72.4614 173.744 75.2544C169.064 79.9744 161.984 85.0544 156.344 88.6344L156.084 88.8044C149.275 84.9147 142.805 80.459 136.744 75.4844C130.814 70.7944 124.994 65.8344 120.624 59.6444C116.254 53.4544 113.444 45.9244 114.224 38.4044C115.004 30.8844 119.884 23.5844 127.074 21.2344C132.824 19.3544 138.794 20.8344 143.924 23.7144C148.574 26.2944 151.924 31.9844 154.404 36.7844C154.554 37.1044 154.714 37.4044 154.864 37.7044C157.524 33.0544 160.424 28.3244 164.864 25.3644C172.414 20.3644 183.614 22.1544 189.414 29.1244C199.294 40.9544 189.714 56.3944 181.874 66.3944Z" fill="url(#paint12_linear_99_456)"/>
<path d="M156.344 88.6044L156.084 88.7744C149.275 84.8847 142.805 80.429 136.744 75.4544C130.814 70.7644 124.994 65.8044 120.624 59.6144C116.254 53.4244 113.444 45.8944 114.224 38.3744C115.004 30.8544 119.884 23.5544 127.074 21.2044C132.824 19.3244 138.794 20.8044 143.924 23.6844C148.574 26.2644 151.924 31.9544 154.404 36.7544L156.344 88.6044Z" fill="url(#paint13_linear_99_456)"/>
<defs>
<linearGradient id="paint0_linear_99_456" x1="72.2938" y1="25.9945" x2="111.724" y2="124.264" gradientUnits="userSpaceOnUse">
<stop stop-color="#F07969"/>
<stop offset="0.21" stop-color="#F4937C"/>
<stop offset="0.53" stop-color="#FAB596"/>
<stop offset="0.8" stop-color="#FECAA5"/>
<stop offset="0.98" stop-color="#FFD2AB"/>
</linearGradient>
<linearGradient id="paint1_linear_99_456" x1="113.634" y1="84.2345" x2="106.974" y2="134.184" gradientUnits="userSpaceOnUse">
<stop stop-color="#F07969"/>
<stop offset="0.21" stop-color="#F4937C"/>
<stop offset="0.53" stop-color="#FAB596"/>
<stop offset="0.8" stop-color="#FECAA5"/>
<stop offset="0.98" stop-color="#FFD2AB"/>
</linearGradient>
<linearGradient id="paint2_linear_99_456" x1="135.604" y1="87.1546" x2="128.944" y2="137.115" gradientUnits="userSpaceOnUse">
<stop stop-color="#F07969"/>
<stop offset="0.21" stop-color="#F4937C"/>
<stop offset="0.53" stop-color="#FAB596"/>
<stop offset="0.8" stop-color="#FECAA5"/>
<stop offset="0.98" stop-color="#FFD2AB"/>
</linearGradient>
<linearGradient id="paint3_linear_99_456" x1="121.194" y1="85.2445" x2="114.544" y2="135.194" gradientUnits="userSpaceOnUse">
<stop stop-color="#F07969"/>
<stop offset="0.21" stop-color="#F4937C"/>
<stop offset="0.53" stop-color="#FAB596"/>
<stop offset="0.8" stop-color="#FECAA5"/>
<stop offset="0.98" stop-color="#FFD2AB"/>
</linearGradient>
<linearGradient id="paint4_linear_99_456" x1="137.264" y1="114.604" x2="118.864" y2="177.435" gradientUnits="userSpaceOnUse">
<stop stop-color="#F07969"/>
<stop offset="0.21" stop-color="#F4937C"/>
<stop offset="0.53" stop-color="#FAB596"/>
<stop offset="0.8" stop-color="#FECAA5"/>
<stop offset="0.98" stop-color="#FFD2AB"/>
</linearGradient>
<linearGradient id="paint5_linear_99_456" x1="133.194" y1="113.415" x2="114.804" y2="176.245" gradientUnits="userSpaceOnUse">
<stop stop-color="#F07969"/>
<stop offset="0.21" stop-color="#F4937C"/>
<stop offset="0.53" stop-color="#FAB596"/>
<stop offset="0.8" stop-color="#FECAA5"/>
<stop offset="0.98" stop-color="#FFD2AB"/>
</linearGradient>
<linearGradient id="paint6_linear_99_456" x1="237.464" y1="25.9944" x2="198.034" y2="124.264" gradientUnits="userSpaceOnUse">
<stop stop-color="#F07969"/>
<stop offset="0.21" stop-color="#F4937C"/>
<stop offset="0.53" stop-color="#FAB596"/>
<stop offset="0.8" stop-color="#FECAA5"/>
<stop offset="0.98" stop-color="#FFD2AB"/>
</linearGradient>
<linearGradient id="paint7_linear_99_456" x1="196.124" y1="84.2344" x2="202.784" y2="134.184" gradientUnits="userSpaceOnUse">
<stop stop-color="#F07969"/>
<stop offset="0.21" stop-color="#F4937C"/>
<stop offset="0.53" stop-color="#FAB596"/>
<stop offset="0.8" stop-color="#FECAA5"/>
<stop offset="0.98" stop-color="#FFD2AB"/>
</linearGradient>
<linearGradient id="paint8_linear_99_456" x1="174.164" y1="87.1546" x2="180.814" y2="137.115" gradientUnits="userSpaceOnUse">
<stop stop-color="#F07969"/>
<stop offset="0.21" stop-color="#F4937C"/>
<stop offset="0.53" stop-color="#FAB596"/>
<stop offset="0.8" stop-color="#FECAA5"/>
<stop offset="0.98" stop-color="#FFD2AB"/>
</linearGradient>
<linearGradient id="paint9_linear_99_456" x1="188.564" y1="85.2444" x2="195.214" y2="135.194" gradientUnits="userSpaceOnUse">
<stop stop-color="#F07969"/>
<stop offset="0.21" stop-color="#F4937C"/>
<stop offset="0.53" stop-color="#FAB596"/>
<stop offset="0.8" stop-color="#FECAA5"/>
<stop offset="0.98" stop-color="#FFD2AB"/>
</linearGradient>
<linearGradient id="paint10_linear_99_456" x1="172.494" y1="114.605" x2="190.894" y2="177.435" gradientUnits="userSpaceOnUse">
<stop stop-color="#F07969"/>
<stop offset="0.21" stop-color="#F4937C"/>
<stop offset="0.53" stop-color="#FAB596"/>
<stop offset="0.8" stop-color="#FECAA5"/>
<stop offset="0.98" stop-color="#FFD2AB"/>
</linearGradient>
<linearGradient id="paint11_linear_99_456" x1="176.564" y1="113.415" x2="194.954" y2="176.245" gradientUnits="userSpaceOnUse">
<stop stop-color="#F07969"/>
<stop offset="0.21" stop-color="#F4937C"/>
<stop offset="0.53" stop-color="#FAB596"/>
<stop offset="0.8" stop-color="#FECAA5"/>
<stop offset="0.98" stop-color="#FFD2AB"/>
</linearGradient>
<linearGradient id="paint12_linear_99_456" x1="106.434" y1="66.8144" x2="218.554" y2="29.0844" gradientUnits="userSpaceOnUse">
<stop stop-color="#E83A23"/>
<stop offset="1" stop-color="#7A0843"/>
</linearGradient>
<linearGradient id="paint13_linear_99_456" x1="95.6038" y1="14.0044" x2="171.394" y2="74.0744" gradientUnits="userSpaceOnUse">
<stop stop-color="#E83A23"/>
<stop offset="1" stop-color="#7A0843"/>
</linearGradient>
</defs>
</svg>
