<svg width="32" height="32" viewBox="0 0 32 32" fill="none" xmlns="http://www.w3.org/2000/svg">
<g clip-path="url(#clip0_107_3377)">
<path d="M24.3393 19.2835H27.0388V22.5884H24.3393V19.2835Z" fill="#FFDFCF"/>
<path d="M26.0778 19.2834H27.0391V22.5891H26.0778V19.2834Z" fill="#FFCEBF"/>
<path d="M30.3779 23.1289V28.4452L27.6376 30.8745H21.6979C21.3123 30.8745 21 30.5616 21 30.1766V28.4452L21.5093 27.3758L21 26.3063V23.6188C21 23.322 21.1784 23.0542 21.4526 22.9402L24.3391 21.7388H27.0388L28.7779 22.4625L30.3779 23.1289Z" fill="#FEA613"/>
<path d="M30.3779 23.1289V28.4452L27.6376 30.8745H26.6705L28.7779 22.4625L30.3779 23.1289ZM26.1722 23.3626V30.8745H25.2064V23.3626C25.2064 23.0954 25.4221 22.8797 25.6893 22.8797C25.9558 22.8797 26.1722 23.0954 26.1722 23.3626Z" fill="#FE9901"/>
<path d="M27.2685 20.1336H24.1096C23.1698 20.1336 22.4079 19.3717 22.4079 18.4319V15.4373L25.6927 15.0893L28.9702 15.4373V18.4319C28.9702 19.3717 28.2084 20.1336 27.2685 20.1336Z" fill="#FFDFCF"/>
<path d="M28.97 15.4373V18.4319C28.97 19.3719 28.2083 20.1336 27.2683 20.1336H26.3437C27.2837 20.1336 28.0454 19.3719 28.0454 18.4319V15.4373L28.3377 15.3701L28.97 15.4373Z" fill="#FFCEBF"/>
<path d="M29.3362 13.7025L25.6927 14.2618L22.042 13.7025C22.042 12.1401 23.3086 10.8734 24.871 10.8734H26.5071C28.0696 10.8734 29.3362 12.1401 29.3362 13.7025Z" fill="#FFD15B"/>
<path d="M29.3364 13.7027L28.6539 13.8072L28.5219 13.7027C28.5219 12.1401 27.2554 10.8736 25.6927 10.8736H26.5072C28.0693 10.8736 29.3364 12.1401 29.3364 13.7027Z" fill="#FFC344"/>
<path d="M24.3393 21.7387L25.3551 23.7593C25.4931 24.0338 25.8849 24.0338 26.023 23.7593L27.0388 21.7387H24.3393Z" fill="#0593FC"/>
<path d="M27.0391 21.7388L26.0228 23.7597C25.8848 24.0341 25.493 24.0341 25.3551 23.7596L25.2086 23.4682L26.0778 21.7388H27.0391Z" fill="#0181FA"/>
<path d="M21 26.3063H30.3779V28.4452H21V26.3063Z" fill="#EAF6FF"/>
<path d="M30.3779 26.3063V28.4452H27.279L27.8146 26.3063H30.3779ZM25.2064 26.3063H26.1722V28.4452H25.2064V26.3063Z" fill="#C8EFFE"/>
<path d="M25.6891 17.3217C25.561 17.3217 25.4382 17.2709 25.3476 17.1803C25.2571 17.0897 25.2062 16.9669 25.2062 16.8388V15.4373C25.2062 15.1706 25.4223 14.9544 25.6891 14.9544C25.9558 14.9544 26.172 15.1706 26.172 15.4373V16.8389C26.172 16.967 26.1211 17.0898 26.0305 17.1803C25.94 17.2709 25.8171 17.3217 25.6891 17.3217ZM25.6891 19.1479C25.1762 19.1479 24.7045 18.8476 24.4875 18.3829C24.4333 18.2669 24.4274 18.1341 24.4712 18.0137C24.5149 17.8933 24.6047 17.7952 24.7207 17.741C24.8368 17.6869 24.9696 17.681 25.09 17.7247C25.2104 17.7685 25.3084 17.8582 25.3626 17.9743C25.4215 18.1005 25.5497 18.1821 25.6891 18.1821C25.8285 18.1821 25.9566 18.1005 26.0155 17.9743C26.0713 17.8609 26.1694 17.7738 26.2886 17.7319C26.4078 17.6899 26.5388 17.6964 26.6533 17.7499C26.7678 17.8033 26.8568 17.8996 26.9012 18.018C26.9456 18.1363 26.9418 18.2674 26.8907 18.3829C26.6736 18.8477 26.202 19.1479 25.6891 19.1479Z" fill="#FFCEBF"/>
<path d="M29.9928 14.0716V15.0683C29.9928 15.2718 29.8274 15.4373 29.6239 15.4373H21.754C21.5505 15.4373 21.3857 15.2718 21.3857 15.0683V14.0716C21.3857 13.8675 21.5505 13.7027 21.754 13.7027H24.332C24.632 13.7027 24.8748 13.4593 24.8748 13.1599V10.3862C24.8748 10.2085 25.019 10.0642 25.1974 10.0642H26.1805C26.3589 10.0642 26.5031 10.2085 26.5031 10.3862V13.1599C26.5031 13.4593 26.7465 13.7027 27.0459 13.7027H29.6239C29.7218 13.7027 29.8156 13.7416 29.8848 13.8108C29.954 13.88 29.9928 13.9738 29.9928 14.0716Z" fill="#FEA613"/>
<path d="M29.9925 14.0716V15.0683C29.9925 15.2718 29.8277 15.4373 29.6242 15.4373H28.6945C28.7429 15.4373 28.7909 15.4277 28.8357 15.4092C28.8804 15.3907 28.9211 15.3635 28.9554 15.3292C28.9896 15.295 29.0168 15.2543 29.0353 15.2095C29.0539 15.1648 29.0634 15.1168 29.0634 15.0683V14.0716C29.0634 13.8675 28.8986 13.7027 28.6945 13.7027H29.6242C29.8277 13.7027 29.9925 13.8675 29.9925 14.0716ZM27.0459 13.7027H26.1548C25.8972 13.7027 25.6886 13.4941 25.6886 13.2372V10.3862C25.6886 10.2085 25.5444 10.0642 25.3667 10.0642H26.1805C26.3589 10.0642 26.5031 10.2085 26.5031 10.3862V13.1599C26.5031 13.4593 26.7465 13.7027 27.0459 13.7027Z" fill="#FE9901"/>
<path d="M32.3661 12.3582C31.2682 12.3582 30.3782 11.4682 30.3782 10.3703C30.3782 9.27235 31.2682 8.38234 32.3661 8.38234L32.7131 10.3703L32.3661 12.3582Z" fill="#FFDFCF"/>
<path d="M32.7131 10.3701L32.3661 12.3583C32.0036 12.3583 31.6643 12.2611 31.372 12.0924V8.64838C31.6741 8.4735 32.0171 8.38175 32.3661 8.38247L32.7131 10.3701Z" fill="#FFCEBF"/>
<path d="M46.3624 30.8745H42.2829L37 30.2149L31.7171 30.8745H27.6376L30.0579 21.214C30.1551 20.8238 30.3399 20.4671 30.5929 20.1665L32.7492 19.2953L35.0935 17.9722H38.9065L41.6937 19.5129L43.4071 20.1665C43.6601 20.4671 43.8449 20.8238 43.9421 21.214L46.3624 30.8745Z" fill="#0593FC"/>
<path d="M43.4071 20.1665C42.682 20.9986 42.2827 22.0651 42.2829 23.1688V24.4234L42.045 26.0635L42.2829 27.4434V30.8745H31.7171V27.4434L32.2417 25.9335L31.7171 24.4234V23.1688C31.7171 22.0613 31.316 20.9964 30.5929 20.1665C30.8624 19.8434 31.2062 19.5904 31.5948 19.4292L35.0935 17.9722L36.5171 20.1433L36.5937 20.2598C36.7856 20.5528 37.2144 20.5528 37.4063 20.2598L37.4829 20.1433L38.9065 17.9722L42.4052 19.4292C42.7938 19.5904 43.1376 19.8434 43.4071 20.1665Z" fill="#FEA613"/>
<path d="M31.7171 24.4237H42.2829V27.4434H31.7171V24.4237Z" fill="#EAF6FF"/>
<path d="M42.1509 6.26415L41.3371 6.35172H41.3326L36.9433 6.82303L31.8491 6.26415C31.8491 5.38077 32.1363 4.56371 32.6224 3.90182L33.1722 3.80202L33.2965 3.18713C33.988 2.61345 34.8759 2.26898 35.8449 2.26898H38.1551C39.1241 2.26898 40.012 2.61345 40.7035 3.18713L40.8954 3.69514L41.3815 3.90697C41.8826 4.59065 42.1521 5.41652 42.1509 6.26415Z" fill="#FFD15B"/>
<path d="M43.0781 6.78505V7.86158C43.0781 8.14939 42.845 8.38247 42.5572 8.38247H31.4428C31.155 8.38247 30.9219 8.14939 30.9219 7.86158V6.78505C30.9219 6.49724 31.155 6.26416 31.4428 6.26416H35.333C35.6183 6.26416 35.8501 6.03237 35.8501 5.74714V1.5807C35.8501 1.32959 36.0535 1.12549 36.3053 1.12549H37.6947C37.9458 1.12549 38.1499 1.32959 38.1499 1.5807V5.74714C38.1499 6.03237 38.3817 6.26416 38.667 6.26416H42.5572C42.845 6.26416 43.0781 6.49724 43.0781 6.78505Z" fill="#FEA613"/>
</g>
<defs>
<clipPath id="clip0_107_3377">
<rect width="32" height="32" fill="white"/>
</clipPath>
</defs>
</svg>
