<svg width="32" height="32" viewBox="0 0 32 32" fill="none" xmlns="http://www.w3.org/2000/svg">
<g clip-path="url(#clip0_106_2066)">
<path d="M16.5479 25.7713C16.5479 28.2566 17.7281 29.4516 17.7281 29.4516H15.1667C14.9594 29.4516 14.7643 29.3531 14.6446 29.1844C14.3039 28.7061 13.6787 27.5806 13.6787 25.7713C13.6787 23.9614 14.3039 22.8359 14.6446 22.3576C14.7643 22.1889 14.9594 22.0904 15.1667 22.0904H17.7281C17.7281 22.0904 16.5479 23.2854 16.5479 25.7713Z" fill="#FB3A82"/>
<path d="M17.7281 22.0904C17.7281 22.0904 16.5813 23.2512 16.5485 25.6657L14.1456 28.2682C13.8964 27.6688 13.6788 26.8395 13.6788 25.7714C13.6788 23.9615 14.304 22.836 14.6446 22.3576C14.7644 22.1889 14.9595 22.0904 15.1668 22.0904H17.7281V22.0904Z" fill="#FB1466"/>
<path d="M36.2754 25.771C36.2754 27.2024 36.7872 28.5011 37.6172 29.4517H17.0843C17.0843 29.4517 15.904 28.2567 15.904 25.771C15.904 23.2853 17.0843 22.0902 17.0843 22.0902H37.6172C36.7872 23.0409 36.2754 24.3396 36.2754 25.771Z" fill="#E0D3CE"/>
<path d="M19.8489 22.0904L15.9252 26.3405C15.9117 26.1589 15.904 25.969 15.904 25.7713C15.904 23.2854 17.0842 22.0904 17.0842 22.0904H19.8489ZM36.2756 25.7713C36.2756 27.2029 36.7874 28.5011 37.6174 29.4519H35.1844C34.3544 28.5011 33.8426 27.2028 33.8426 25.7713C33.8426 24.3397 34.3544 23.0406 35.1844 22.0907H37.6174C36.7874 23.0406 36.2756 24.3397 36.2756 25.7713Z" fill="#CDBFBB"/>
<path d="M38.9994 21.4034C38.9994 21.6982 38.8796 21.9655 38.6864 22.1586C38.4932 22.3517 38.2261 22.4716 37.9312 22.4716H17.5175C16.9277 22.4716 16.4493 21.9932 16.4493 21.4034C16.4493 21.1085 16.5691 20.8406 16.7622 20.6475C16.8613 20.5482 16.979 20.4694 17.1087 20.4157C17.2383 20.362 17.3772 20.3344 17.5175 20.3346H37.9312C38.521 20.3346 38.9994 20.8129 38.9994 21.4034Z" fill="#FB3A82"/>
<path d="M21.4696 20.3346L19.4974 22.4716H17.5175C16.9277 22.4716 16.4493 21.9932 16.4493 21.4034C16.4493 21.1085 16.5691 20.8406 16.7622 20.6475C16.8613 20.5482 16.979 20.4694 17.1087 20.4157C17.2383 20.362 17.3772 20.3344 17.5175 20.3346H21.4696ZM39 21.4029C39 21.6979 38.88 21.9654 38.6872 22.1582C38.588 22.2578 38.4701 22.3367 38.3404 22.3905C38.2106 22.4443 38.0715 22.472 37.931 22.4719H35.8587C36.1537 22.4719 36.4212 22.3519 36.6141 22.1582C36.7133 22.0591 36.7921 21.9414 36.8458 21.8118C36.8994 21.6822 36.927 21.5432 36.9269 21.4029C36.9269 20.8129 36.4488 20.3348 35.8587 20.3348H37.931C38.5211 20.3348 39 20.8129 39 21.4029Z" fill="#FB1466"/>
<path d="M37.9311 31.2072H17.5176C16.9275 31.2072 16.4491 30.7289 16.4491 30.1388C16.4491 29.5487 16.9275 29.0704 17.5176 29.0704H37.9312C38.5213 29.0704 38.9996 29.5487 38.9996 30.1388C38.9996 30.7289 38.5213 31.2072 37.9311 31.2072Z" fill="#FB3A82"/>
<path d="M26.1491 24.6664C26.1492 24.7299 26.1367 24.7927 26.1124 24.8513C26.0882 24.9099 26.0526 24.9631 26.0078 25.0079C25.9629 25.0528 25.9097 25.0884 25.8511 25.1126C25.7925 25.1369 25.7297 25.1493 25.6662 25.1493H15.9297C15.956 24.8241 16.0062 24.5013 16.0797 24.1835H25.6662C25.7297 24.1835 25.7925 24.196 25.8511 24.2202C25.9097 24.2445 25.9629 24.2801 26.0078 24.3249C26.0526 24.3698 26.0882 24.423 26.1124 24.4816C26.1367 24.5402 26.1491 24.603 26.1491 24.6664ZM36.4941 24.1836C36.4044 24.4995 36.3421 24.8227 36.308 25.1494H29.6453C29.3787 25.1494 29.1624 24.9331 29.1624 24.6665C29.1624 24.3999 29.3788 24.1836 29.6453 24.1836H36.4941V24.1836ZM31.2771 27.3429H20.0271C19.8991 27.3429 19.7762 27.2921 19.6857 27.2015C19.5951 27.1109 19.5442 26.9881 19.5442 26.8601C19.5442 26.732 19.5951 26.6092 19.6857 26.5186C19.7762 26.4281 19.8991 26.3772 20.0271 26.3772H31.2771C31.4052 26.3772 31.528 26.4281 31.6186 26.5186C31.7091 26.6092 31.76 26.732 31.76 26.8601C31.76 26.9881 31.7091 27.1109 31.6186 27.2015C31.528 27.2921 31.4052 27.3429 31.2771 27.3429Z" fill="#CDBFBB"/>
<path d="M21.0647 18.8749L19.3398 17.15L7.59812 27.9892C6.82219 28.7056 6.79787 29.9234 7.54456 30.6702C8.29125 31.4169 9.50919 31.3926 10.2255 30.6166L21.0647 18.8749Z" fill="#873F30"/>
<path d="M10.1736 30.6708C9.45168 31.3927 8.27343 31.3989 7.54481 30.6702C7.33673 30.463 7.18125 30.209 7.09137 29.9294C7.73537 30.1388 8.47012 29.9856 8.97818 29.4776C8.99599 29.4597 9.01381 29.4408 9.03112 29.4224L19.8706 17.6805L21.065 18.8749L10.2254 30.6167C10.2081 30.6351 10.1909 30.6535 10.1736 30.6708Z" fill="#6C3328"/>
<path d="M22.7633 13.0631L18.7914 17.8009L20.4139 19.4234L25.1518 15.4516L22.7633 13.0631Z" fill="#873F30"/>
<path d="M22.7632 13.0631L21.4798 14.594L21.8649 14.9791C22.1484 15.2626 22.1484 15.7221 21.8649 16.0056L19.4306 18.4399L20.4139 19.4233L25.1517 15.4515L22.7632 13.0631Z" fill="#6C3328"/>
<path d="M19.3936 20.3962L17.8186 18.8212C17.3633 18.3659 17.3633 17.6277 17.8186 17.1723C18.2739 16.717 19.0121 16.717 19.4675 17.1723L21.0425 18.7473C21.4978 19.2026 21.4978 19.9409 21.0425 20.3962C20.5872 20.8516 19.8489 20.8516 19.3936 20.3962Z" fill="#BA5D4F"/>
<path d="M21.0421 20.3962C20.934 20.5046 20.8055 20.5905 20.6642 20.6491C20.5228 20.7077 20.3712 20.7378 20.2181 20.7377C20.0649 20.7379 19.9131 20.7079 19.7715 20.6493C19.6299 20.5907 19.5013 20.5047 19.3931 20.3962L18.1993 19.2024C18.3074 19.3108 18.4359 19.3968 18.5774 19.4553C18.7189 19.5138 18.8706 19.5437 19.0237 19.5433C19.1769 19.5437 19.3286 19.5138 19.4701 19.4553C19.6116 19.3968 19.7401 19.3108 19.8482 19.2024C20.3039 18.7467 20.3034 18.0086 19.8482 17.5534L21.0421 18.7472C21.4977 19.2029 21.4977 19.9405 21.0421 20.3962Z" fill="#A34F41"/>
<path d="M24.8211 2.23468L28.3183 5.73181L22.8279 11.2222L19.3307 7.72505L24.8211 2.23468Z" fill="#BA5D4F"/>
<path d="M30.4883 18.8871L26.9911 15.39L32.4816 9.89962L35.9787 13.3967L30.4883 18.8871Z" fill="#A34F41"/>
<path d="M18.347 8.93012L18.2255 8.80862C17.7649 8.34799 17.7649 7.60112 18.2255 7.14043L24.2351 1.13087C24.6957 0.670244 25.4426 0.670244 25.9033 1.13087L26.0248 1.25237C26.4854 1.71299 26.4854 2.45987 26.0248 2.92056L20.0152 8.93012C19.5545 9.39074 18.8077 9.39074 18.347 8.93012Z" fill="#873F30"/>
<path d="M29.2847 19.8678L29.4062 19.9893C29.8668 20.4499 30.6137 20.4499 31.0744 19.9893L37.0839 13.9797C37.5446 13.5191 37.5446 12.7722 37.0839 12.3116L36.9624 12.1901C36.5018 11.7294 35.7549 11.7294 35.2942 12.1901L29.2847 18.1996C28.8241 18.6603 28.8241 19.4071 29.2847 19.8678Z" fill="#6C3328"/>
<path d="M29.8361 4.44706L33.7633 8.37437L25.4712 16.6664L21.5439 12.7392L29.8361 4.44706Z" fill="#FCC16D"/>
<path d="M23.4811 14.6833L31.7733 6.3913L33.761 8.37899L25.4689 16.6711L23.4811 14.6833Z" fill="#FCA62F"/>
<path d="M29.8552 4.28181L28.893 3.88843C28.7317 3.82248 28.5545 3.80565 28.3836 3.84004C28.2128 3.87443 28.0559 3.95851 27.9326 4.08174L21.1764 10.8381C21.0531 10.9613 20.969 11.1182 20.9346 11.289C20.9003 11.4599 20.9171 11.6371 20.9831 11.7984L21.3764 12.7606C21.5359 13.1507 22.0414 13.2525 22.3394 12.9545L30.0491 5.24474C30.3471 4.94668 30.2453 4.44131 29.8552 4.28181Z" fill="#873F30"/>
<path d="M33.933 8.35962L34.3264 9.32181C34.3923 9.48313 34.4092 9.66034 34.3748 9.8312C34.3404 10.0021 34.2563 10.1589 34.1331 10.2822L27.3768 17.0384C27.2535 17.1617 27.0966 17.2458 26.9258 17.2802C26.7549 17.3146 26.5777 17.2977 26.4164 17.2317L25.4542 16.8384C25.0641 16.6789 24.9623 16.1734 25.2603 15.8754L32.9699 8.16575C33.2681 7.86775 33.7735 7.9695 33.933 8.35962Z" fill="#6C3328"/>
</g>
<defs>
<clipPath id="clip0_106_2066">
<rect width="32" height="32" fill="white"/>
</clipPath>
</defs>
</svg>
