<svg width="17" height="25" viewBox="0 0 17 25" fill="none" xmlns="http://www.w3.org/2000/svg">
<path d="M8.3105 15.5901C12.6241 15.5901 16.121 12.1001 16.121 7.79504C16.121 3.48997 12.6241 0 8.3105 0C3.99688 0 0.5 3.48997 0.5 7.79504C0.5 12.1001 3.99688 15.5901 8.3105 15.5901Z" fill="#0BDBB6"/>
<path d="M12.8031 7.79511C12.8031 10.271 10.7913 12.2787 8.31051 12.2787C5.82974 12.2787 3.81799 10.271 3.81799 7.79511C3.81799 5.31925 5.82974 3.31146 8.31051 3.31146C10.7913 3.31146 12.8031 5.31925 12.8031 7.79511Z" stroke="#CEF8F0" stroke-width="0.763866" stroke-miterlimit="10"/>
<path d="M8.31052 15.5911V20.979" stroke="#0BDBB6" stroke-width="0.916682" stroke-miterlimit="10" stroke-linecap="round" stroke-linejoin="round"/>
<path d="M9.72163 22.5917C9.72163 23.3697 9.09012 24 8.31051 24C7.5309 24 6.89941 23.3697 6.89941 22.5917C6.89941 21.8136 7.5309 21.1833 8.31051 21.1833C9.09012 21.1833 9.72163 21.8146 9.72163 22.5917Z" stroke="#0BDBB6" stroke-width="0.916682" stroke-miterlimit="10" stroke-linecap="round" stroke-linejoin="round"/>
</svg>
