<svg width="457" height="500" viewBox="0 0 457 500" fill="none" xmlns="http://www.w3.org/2000/svg">
<path d="M137.597 80.1112C137.597 80.1112 132.246 79.0721 131.354 77.142C130.462 75.212 132.692 72.0947 127.489 71.3518C122.286 70.6089 121.84 72.6883 119.909 67.4916C117.977 62.295 114.41 63.6315 114.856 58.7322C115.302 53.833 116.788 53.2394 115.6 46.7062C114.411 40.1743 115.6 42.698 119.018 40.1743C122.437 37.6506 123.477 36.4622 121.991 34.6815C120.505 32.8995 118.126 34.5334 118.424 29.9303C118.722 25.3272 113.667 29.1874 112.479 26.0701C111.29 22.9529 111.735 23.8426 108.318 22.3593C104.899 20.8747 104.453 22.3593 104.601 18.351C104.749 14.3428 102.371 15.2338 106.385 14.1947C106.385 14.1947 107.24 14.7142 108.577 13.1556C109.915 11.597 111.81 8.81292 113.371 8.81292C114.931 8.81292 115.601 7.92192 116.938 8.81292C118.276 9.70392 118.163 9.92605 120.059 9.92605C121.954 9.92605 121.24 8.81292 120.816 6.91986C120.392 5.0268 123.848 5.69566 126.635 5.69566C129.423 5.69566 129.98 4.13703 131.652 4.2481C133.323 4.35916 138.787 5.25017 140.793 5.47353C142.8 5.6969 144.36 11.5982 145.252 12.0425C146.144 12.4867 151.383 12.9335 153.837 15.272C156.289 17.6106 156.289 19.2803 159.41 20.9512C162.531 22.6209 160.748 25.405 162.308 25.8505C163.869 26.296 168.552 27.6325 168.998 28.5222C169.444 29.412 168.886 31.4173 170.669 31.7518C172.452 32.0862 177.804 29.4132 179.252 29.08C180.702 28.7456 180.924 26.0738 183.265 25.8505C185.607 25.6283 191.515 26.0726 193.075 25.2939C194.636 24.514 193.967 23.6242 195.639 24.514C197.311 25.405 196.196 26.296 198.984 26.407C201.771 26.5181 203.665 25.7394 205.114 29.0788C206.564 32.4194 207.232 31.5284 206.229 35.0912C205.225 38.6539 206.005 40.2138 203.887 41.3269C201.77 42.44 203.33 44.111 199.986 46.5606C196.641 49.0102 195.749 49.0102 195.192 50.5688C194.635 52.1275 195.303 52.1275 191.512 53.575C187.722 55.0226 187.276 56.4702 187.945 58.1398C188.614 59.8095 189.617 60.7005 188.057 62.037C186.496 63.3735 187.388 64.9322 189.284 65.3777C191.179 65.8232 193.854 64.2645 193.743 66.9363C193.631 69.6081 194.523 71.279 195.527 73.0597C196.53 74.8417 195.749 77.6245 194.412 77.959C193.075 78.2934 190.622 78.6266 189.507 79.5176C188.393 80.4086 188.058 81.2613 186.497 80.1112C184.937 78.961 186.497 76.7336 184.826 76.3991C183.154 76.0647 181.37 76.2881 180.924 77.9578C180.478 79.6274 180.813 80.4074 182.262 82.4115C183.711 84.4156 184.603 82.857 184.38 85.9743C184.157 89.0915 182.596 88.5349 187.613 90.5391C192.629 92.5432 190.847 96.8859 192.853 97.3314C194.859 97.7769 193.188 97.2203 195.863 99.6699C198.538 102.12 199.653 100.338 202.552 102.565C205.45 104.793 205.739 104.124 206.709 106.128C207.679 108.132 207.457 108.243 211.246 109.357C215.037 110.471 216.708 112.475 216.04 113.7C215.372 114.924 214.145 113.366 213.03 115.259C211.916 117.152 212.362 119.156 210.021 119.601C207.679 120.047 207.568 122.608 207.122 123.944C206.676 125.281 208.236 125.948 205.673 127.061C203.109 128.174 205.673 131.737 204.669 133.185C203.666 134.632 203.109 136.302 205.004 137.639C206.9 138.975 209.574 138.306 210.801 138.975C212.027 139.643 210.913 139.977 213.589 140.423C216.264 140.868 215.038 140.534 216.933 142.427C218.829 144.32 220.946 147.437 224.848 148.217C228.75 148.997 227.3 150.778 230.421 151.334C233.542 151.891 234.88 151.891 237.333 153.673C239.785 155.455 241.792 153.895 242.46 155.788C243.129 157.681 243.798 158.127 246.027 158.127C248.257 158.127 248.926 156.568 252.493 157.013C256.06 157.459 254.722 159.686 256.617 158.127C258.512 156.568 262.636 156.233 265.089 160.687C267.541 165.141 269.771 165.03 272 165.586C274.23 166.143 274.118 166.589 277.017 166.477C279.915 166.366 280.25 165.287 281.475 166.495C282.701 167.703 283.706 168.259 285.377 168.259C287.049 168.259 288.276 167.368 291.063 168.259C293.85 169.15 296.749 170.264 300.65 170.375C304.551 170.486 302.099 170.486 305.443 171.488C308.788 172.49 314.473 170.375 315.253 169.26C316.034 168.146 316.479 163.137 316.257 161.689C316.034 160.242 313.804 158.127 314.139 156.122C314.474 154.118 315.031 154.007 315.699 151.223C316.368 148.439 316.925 147.548 318.598 146.435C320.27 145.322 321.385 144.207 322.611 144.431C323.838 144.653 326.401 147.326 325.844 149.33C325.287 151.334 325.22 154.34 325.922 156.568C326.624 158.795 325.844 161.802 329.522 163.026C333.2 164.251 337.661 162.804 338.775 164.584C339.89 166.366 341.228 163.396 344.2 162.802C347.173 162.209 347.025 162.505 353.267 162.059C359.51 161.614 362.928 162.357 366.644 161.466C370.359 160.575 372.292 160.872 372.589 159.536C372.887 158.199 373.777 151.074 369.914 151.074C366.049 151.074 364.117 150.628 364.265 148.996C364.413 147.363 364.859 144.096 367.09 143.948C369.32 143.8 371.103 144.691 373.779 142.761C376.454 140.831 373.333 139.792 378.089 138.753C382.846 137.714 382.548 137.862 384.035 134.299C385.521 130.736 385.669 127.915 391.615 127.47C397.56 127.024 397.114 123.61 401.276 120.938C405.438 118.266 406.925 116.632 409.898 117.671C412.87 118.71 413.763 119.453 417.033 117.374C420.303 115.296 424.911 112.475 425.951 114.85C426.991 117.226 426.695 116.928 425.951 118.858C425.207 120.789 424.911 120.64 428.775 120.789C432.64 120.937 429.964 124.797 429.37 126.727C428.775 128.657 428.032 132.072 429.667 131.924C431.302 131.775 432.492 128.954 435.91 130.142C439.329 131.329 440.518 130.29 441.856 134.447C443.194 138.605 444.977 139.049 444.382 140.683C443.788 142.316 443.49 139.792 443.044 143.95C442.598 148.106 437.247 148.701 435.613 148.403C433.978 148.106 434.275 146.771 431.005 148.106C427.735 149.442 425.06 151.521 421.938 152.114C418.817 152.708 420.6 158.795 418.221 162.952C415.843 167.108 413.317 174.828 412.573 176.313C411.829 177.798 408.56 176.758 409.302 178.837C410.046 180.915 412.869 182.845 412.721 186.557C412.573 190.269 412.127 191.754 413.167 192.495C414.207 193.237 413.761 196.207 411.978 196.058C410.196 195.909 409.898 194.287 407.668 196.063C405.438 197.839 405.884 204.52 404.249 204.668C402.614 204.816 403.655 204.371 399.938 204.668C396.222 204.966 394.439 203.629 393.101 203.629C391.763 203.629 396.222 208.974 395.776 211.795C395.33 214.616 393.397 219.811 392.209 222.93C391.02 226.047 391.02 226.79 392.061 228.571C393.101 230.353 392.209 233.767 390.574 234.064C388.94 234.361 387.007 233.173 385.372 231.985C383.737 230.798 382.399 229.759 382.547 226.047C382.695 222.335 382.399 216.101 380.913 215.21C379.426 214.319 375.264 216.546 373.927 216.992C372.589 217.437 370.062 218.328 367.684 218.179C365.305 218.031 364.117 216.842 363.967 214.17C363.819 211.499 363.819 206.154 365.602 204.669C367.386 203.185 367.088 202.739 370.061 202.442C373.034 202.144 374.222 202.294 376.155 201.403C378.087 200.512 377.343 196.801 377.493 194.871C377.641 192.941 376.601 192.199 379.871 192.05C383.141 191.902 381.952 187.744 379.127 187.299C376.303 186.853 376.155 186.26 371.844 186.853C367.533 187.447 366.345 184.478 362.48 186.408C358.615 188.338 360.993 188.783 354.75 188.338C348.507 187.892 345.981 188.338 342.414 185.666C338.847 182.994 341.819 178.095 341.67 176.758C341.522 175.422 341.818 172.898 339.589 172.602C337.359 172.305 338.401 174.68 333.941 173.493C329.482 172.306 330.67 170.078 327.846 169.93C325.021 169.782 327.251 173.345 324.427 171.86C321.603 170.376 323.089 168 320.562 169.039C318.036 170.078 318.928 174.978 317.887 176.76C316.847 178.542 318.036 180.62 320.601 181.844C323.164 183.068 323.164 184.739 325.841 185.074C328.515 185.408 330.299 187.078 328.293 188.414C326.287 189.751 325.618 189.638 323.499 190.084C321.382 190.529 323.834 193.536 321.047 194.427C318.259 195.318 317.591 195.763 317.367 197.322C317.145 198.88 322.384 202.443 325.282 203.001C328.181 203.558 328.738 204.56 326.62 207.12C324.502 209.681 324.614 213.245 326.174 214.691C327.735 216.139 327.4 216.919 327.958 218.032C328.515 219.145 332.082 220.147 331.079 224.044C330.076 227.941 330.968 227.162 331.414 230.613C331.86 234.065 334.424 236.292 330.968 237.628C327.512 238.964 327.623 237.628 324.948 239.41C322.274 241.192 322.496 238.185 321.715 237.071C320.934 235.958 318.482 237.071 316.475 241.079C314.469 245.088 315.472 244.99 312.351 245.874C309.23 246.757 310.456 246.868 306.554 248.316C302.652 249.763 302.876 252.102 302.987 255.219C303.098 258.337 304.213 260.119 301.984 261.677C299.754 263.236 301.427 266.242 299.531 267.913C297.636 269.583 298.826 269.806 296.949 271.588C295.072 273.37 296.745 273.481 292.509 273.815C288.272 274.15 288.607 275.485 286.823 276.487C285.039 277.489 284.035 278.715 283.367 277.824C282.699 276.933 282.475 275.485 281.695 275.374C280.915 275.263 279.243 275.04 278.351 277.602C277.459 280.162 279.019 279.717 277.125 281.944C275.23 284.172 271.663 285.285 270.549 287.957C269.434 290.628 269.768 290.741 266.647 294.971C263.526 299.203 259.958 300.538 258.175 302.32C256.391 304.102 254.497 304.324 252.49 307.887C250.484 311.45 249.703 313.232 244.798 315.014C239.893 316.796 239.558 317.463 237.552 319.691C235.545 321.918 236.883 322.586 237.329 323.922C237.775 325.259 237.44 328.265 232.759 329.378C228.076 330.491 227.854 329.713 223.841 330.38C219.828 331.048 219.717 335.391 217.71 338.286C215.704 341.181 213.474 340.624 211.913 339.399C210.353 338.175 209.796 338.175 207.677 339.51C205.558 340.845 203.107 344.52 203.107 348.195C203.107 351.87 203.441 365.343 204.221 368.349C205.002 371.355 207.677 372.803 205.893 374.139C204.109 375.476 203.775 377.48 204.666 378.815C205.557 380.15 208.679 380.374 207.007 383.38C205.334 386.386 204.332 392.956 202.102 395.962C199.872 398.968 199.427 398.634 199.204 401.975C198.98 405.315 200.207 412.219 199.204 415.225C198.2 418.231 198.535 416.783 197.754 422.128C196.973 427.473 198.089 427.807 195.97 427.807C193.853 427.807 195.189 426.805 191.846 429.589C188.501 432.373 189.951 435.936 187.276 436.715C184.601 437.495 182.706 443.173 183.485 443.285C184.266 443.396 186.606 444.287 184.266 445.178C181.926 446.069 181.033 444.287 178.915 446.737C176.797 449.186 176.017 447.071 173.899 451.525C171.781 455.979 174.456 457.426 167.767 460.767C161.078 464.108 164.757 466.001 161.19 464.886C157.623 463.773 159.852 464.552 156.508 462.993C153.163 461.435 153.052 463.328 151.38 459.43C149.709 455.533 148.593 455.088 145.137 451.859C141.681 448.631 144.134 448.742 142.685 444.065C141.235 439.388 140.121 442.061 141.459 438.164C142.797 434.267 143.243 434.267 142.685 431.149C142.128 428.032 141.124 432.373 139.897 431.149C138.671 429.925 140.232 426.695 137.78 421.907C135.327 417.119 135.216 417.23 135.216 414.558C135.216 411.887 131.425 410.105 129.53 406.653C127.635 403.201 128.527 401.532 125.182 397.3C121.838 393.068 121.504 396.632 120.277 389.171C119.052 381.711 118.828 383.826 117.936 375.698C117.044 367.57 117.49 364.229 114.369 359.33C111.248 354.431 112.251 349.532 109.129 346.748C106.008 343.964 100.211 335.056 98.9844 331.159C97.7588 327.262 97.424 327.818 97.3128 320.358C97.2016 312.898 94.3031 304.993 93.9682 301.318C93.6334 297.643 94.0794 291.965 93.9682 289.626C93.857 287.288 91.2933 283.614 92.073 276.822C92.8538 270.029 92.2953 267.469 93.1874 264.685C94.0794 261.901 92.8526 253.995 92.519 250.767C92.1841 247.537 90.9585 248.22 92.519 245.875C94.0794 243.53 91.6269 242.083 90.9585 240.523C90.2901 238.964 92.7426 236.515 90.9585 235.289C89.1744 234.064 85.4963 235.4 85.9423 239.408C86.3883 243.417 88.3948 245.421 85.0503 247.537C81.7057 249.652 83.7122 254.552 78.1388 254.775C72.5653 254.997 68.886 255.777 64.427 255.221C59.968 254.664 60.9712 250.432 56.7346 248.094C52.4981 245.755 47.9279 241.301 44.6957 239.408C41.4624 237.515 41.3512 234.175 40.1256 231.503C38.8987 228.831 39.2335 226.715 41.4636 227.94C43.6937 229.164 42.8017 231.392 44.9194 231.948C47.0371 232.505 49.156 233.285 51.3848 231.837C53.615 230.39 56.2898 229.164 58.52 228.275C60.7501 227.384 62.8677 224.823 61.0837 223.821C59.2996 222.819 58.8536 223.264 52.9453 223.153C47.0371 223.042 48.0403 225.381 43.8037 223.153C39.5671 220.926 40.4592 218.588 38.5639 217.03C36.6686 215.471 32.9904 213.689 34.1049 211.685C35.2193 209.681 37.8954 210.349 36.4462 209.347C34.9969 208.344 35.6653 209.681 33.3253 208.79C30.984 207.899 30.6491 205.895 31.876 205.449C33.1016 205.004 34.8857 205.671 36.8922 204.669C38.8987 203.667 38.3415 203.667 40.9052 200.994C43.4689 198.323 43.6925 197.988 45.9214 199.212C48.1515 200.437 49.0423 201.773 51.2724 201.773C53.5013 201.773 53.0565 204.001 55.2854 203.555C57.5155 203.11 57.2918 200.66 60.9712 200.325C64.6494 199.991 63.8698 197.987 66.6571 200.214C69.4444 202.442 72.4541 200.103 72.3429 198.656C72.2318 197.208 73.4574 190.972 70.3365 189.079C67.2155 187.186 66.7695 186.295 67.7728 183.958C68.776 181.619 69.5569 180.617 66.6583 180.506C63.7598 180.395 59.3008 181.397 60.4152 176.498C61.5297 171.599 66.5471 168.482 62.5329 167.145C58.5187 165.809 60.1916 166.811 57.6279 165.141C55.0642 163.471 50.9388 159.24 53.2801 157.347C55.6214 155.454 55.2866 156.79 58.7424 152.447C62.1981 148.105 63.8698 144.876 66.5459 145.21C69.2208 145.544 71.8969 145.321 71.8969 148.105C71.8969 150.889 75.2415 147.214 78.586 146.546C81.9306 145.878 84.9403 147.659 87.1704 145.544C89.4005 143.429 93.9707 141.536 96.4232 135.189C98.8757 128.842 102.109 129.177 104.562 128.062C107.014 126.949 107.906 122.161 109.467 117.596C111.027 113.031 114.594 112.586 116.043 112.362C117.493 112.14 117.939 105.793 122.174 103.788C126.41 101.784 129.643 98.9998 129.197 98.3322C128.751 97.6646 127.636 92.2088 128.193 89.5358C128.751 86.864 129.977 82.5213 132.43 82.409C134.882 82.2967 138.673 81.2959 138.673 81.2959L137.597 80.1112Z" stroke="#676B78" stroke-width="1.01956" stroke-miterlimit="10"/>
<path d="M137.597 80.1112C137.597 80.1112 140.681 78.7377 143.468 77.8467C146.255 76.9557 145.586 73.8385 146.367 71.0544C147.148 68.2703 149.599 70.0523 151.829 68.3826C154.059 66.7129 156.065 66.4896 158.518 66.824C160.971 67.1584 159.521 70.6101 162.642 71.2778C165.763 71.9454 166.32 70.6101 168.216 71.4999C170.111 72.3897 170.111 72.502 172.117 71.9454C174.124 71.3888 174.459 71.9454 176.242 75.0626C178.026 78.1799 180.773 78.7019 180.773 78.7019" stroke="#676B78" stroke-width="0.764724" stroke-miterlimit="10" stroke-linecap="round" stroke-linejoin="round" stroke-dasharray="1.2 1.2"/>
<path d="M188.683 91.0624C188.683 91.0624 187.836 92.5445 187.836 94.3265C187.836 96.1085 189.977 96.9982 188.683 98.0015C187.39 99.0036 186.721 98.5581 184.826 98.0015C182.931 97.445 181.592 96.8884 179.364 97.3339C177.134 97.7794 176.243 96.5219 174.236 98.5976C172.23 100.673 169.777 101.119 169.666 104.459C169.555 107.8 171.115 109.135 168.774 109.359C166.433 109.581 166.321 106.798 163.647 105.796C160.972 104.794 161.751 103.235 158.407 102.01C155.062 100.784 157.85 100.228 155.843 97.6671C153.837 95.1064 150.046 97.2216 148.82 93.6588C147.595 90.0961 149.712 88.8707 146.925 86.5321C144.138 84.1935 143.469 77.8467 143.469 77.8467" stroke="#676B78" stroke-width="0.764724" stroke-miterlimit="10" stroke-linecap="round" stroke-linejoin="round" stroke-dasharray="1.2 1.2"/>
<path d="M116.044 112.365C116.044 112.365 116.937 115.817 119.611 116.039C122.286 116.262 129.31 115.482 131.317 116.039C133.323 116.595 132.32 119.379 133.992 120.27C135.663 121.161 136.555 120.492 138.562 120.27C140.568 120.048 141.237 122.952 142.464 120.721C143.69 118.489 143.356 118.377 146.588 118.601C149.821 118.823 148.259 116.485 149.597 114.926C150.936 113.367 151.382 113.923 153.388 114.48C155.395 115.037 155.618 116.039 156.844 112.365C158.069 108.69 159.631 110.583 159.742 107.8C159.854 105.016 159.184 102.337 159.184 102.337" stroke="#676B78" stroke-width="0.764724" stroke-miterlimit="10" stroke-linecap="round" stroke-linejoin="round" stroke-dasharray="1.2 1.2"/>
<path d="M169.23 109.287C169.23 109.287 170.334 111.474 171.449 114.703C172.563 117.933 173.567 117.487 176.354 118.823C179.141 120.158 181.148 120.752 183.711 121.569C186.275 122.385 187.502 122.609 193.41 122.609C199.318 122.609 201.214 123.5 203.444 122.609C205.674 121.718 207.81 121.569 207.81 121.569" stroke="#676B78" stroke-width="0.764724" stroke-miterlimit="10" stroke-linecap="round" stroke-linejoin="round" stroke-dasharray="1.2 1.2"/>
<path d="M125.743 116.146C125.743 116.146 125.743 126.283 126.969 126.283C128.195 126.283 128.418 124.835 130.425 125.392C132.431 125.948 134.884 124.835 135.441 126.95C135.998 129.065 134.674 129.289 137.9 130.736C141.126 132.184 140.235 132.295 139.565 135.413C138.897 138.531 141.349 138.42 143.467 139.534C145.585 140.647 144.248 145.101 145.362 146.994C146.477 148.887 147.815 146.883 150.713 146.214C153.612 145.546 152.943 143.319 153.612 145.546C154.28 147.774 153.277 151.337 155.396 151.337C157.514 151.337 158.629 150.557 158.517 152.784C158.406 155.01 161.972 156.236 163.645 152.339C165.317 148.442 165.577 153.119 166.283 147.774C166.99 142.429 166.32 141.873 164.537 139.98C162.753 138.086 159.546 142.651 159.756 138.198C159.966 133.744 160.19 130.181 161.193 127.842C162.196 125.504 157.18 123.758 160.858 121.57C164.536 119.382 163.645 116.485 164.982 114.816C166.32 113.146 170.333 111.758 170.333 111.758" stroke="#676B78" stroke-width="0.764724" stroke-miterlimit="10" stroke-linecap="round" stroke-linejoin="round" stroke-dasharray="1.2 1.2"/>
<path d="M72.3763 197.556C72.3763 197.556 74.7238 196.231 77.1022 197.556C79.4805 198.88 79.3311 198.88 83.1958 198.88C87.0605 198.88 87.7289 198.435 90.0702 200.774C92.4115 203.112 92.0767 202.667 94.864 202.667C97.6513 202.667 99.1006 203.334 100.326 201.776C101.552 200.217 102.668 199.994 102.11 203.445C101.553 206.897 101.218 207.788 103.337 209.236C105.455 210.683 105.232 210.127 106.458 213.355C107.685 216.584 109.468 216.695 111.809 218.254C114.15 219.813 114.708 218.032 116.492 221.929C118.276 225.826 121.173 226.272 121.732 225.046C122.289 223.821 121.843 223.71 123.516 221.149C125.187 218.589 124.854 217.698 125.746 215.804C126.638 213.911 127.976 214.022 127.195 209.681C126.414 205.338 125.411 206.675 126.303 202.443C127.195 198.212 125.324 199.883 127.43 197.766C129.535 195.651 129.759 192.756 131.43 193.312C133.102 193.869 134.218 193.869 133.772 196.207C133.326 198.546 132.966 199.77 133.871 199.883C134.775 199.994 134.775 199.215 137.227 198.88C139.68 198.546 140.794 197.989 141.129 199.883C141.464 201.776 142.021 202.332 141.129 203.334C140.237 204.336 140.015 203 140.126 206.229C140.237 209.459 137.562 210.238 137.451 211.129C137.34 212.02 136.002 212.465 137.673 213.133C139.345 213.8 140.644 209.993 141.611 209.448C142.579 208.902 144.028 209.236 145.255 207.342C146.48 205.449 147.039 204.595 148.227 205.56C149.416 206.526 148.599 207.417 150.828 207.565C153.058 207.713 152.314 207.565 154.098 208.604C155.883 209.643 157.517 210.088 157.071 206.971C156.625 203.854 156.105 202.963 157.145 202.739C158.186 202.517 158.037 204.002 159.003 202.665C159.97 201.329 159.152 200.735 158.557 200.068C157.963 199.4 154.841 197.766 157.071 195.688C159.301 193.61 162.868 194.649 163.462 193.758C164.057 192.867 163.983 189.304 161.902 189.526C159.821 189.748 159.375 190.397 157.665 189.516C155.957 188.635 154.693 190.565 153.429 187.3C152.166 184.033 150.53 183.068 154.023 180.471C157.516 177.873 159.522 177.427 162.273 174.828C165.023 172.231 165.394 171.859 168.59 171.636C171.786 171.414 176.245 168.926 176.133 167.256C176.022 165.587 173.123 166.476 171.339 166.254C169.555 166.032 168.329 165.92 168.664 163.582C168.999 161.244 169.778 158.905 167.438 158.127C165.097 157.347 164.429 158.349 164.651 156.345C164.875 154.34 164.067 151.481 164.067 151.481" stroke="#676B78" stroke-width="0.764724" stroke-miterlimit="10" stroke-linecap="round" stroke-linejoin="round" stroke-dasharray="1.2 1.2"/>
<path d="M92.5919 269.253C92.5919 269.253 94.8628 267.619 96.7951 266.728C98.7275 265.837 99.2477 267.1 101.478 265.541C103.708 263.982 103.038 263.017 104.302 261.161C105.566 259.305 105.64 260.418 106.681 261.161C107.721 261.904 109.876 261.309 110.693 259.825C111.511 258.34 111.586 255.074 110.693 254.628C109.801 254.183 109.43 251.436 110.916 250.472C112.402 249.507 113.591 250.917 112.997 248.468C112.402 246.018 109.726 245.499 110.246 243.494C110.766 241.49 112.401 241.564 113.887 240.971C115.374 240.377 116.562 238.447 116.934 235.626C117.306 232.805 116.934 233.399 118.718 231.914C120.502 230.429 120.118 225.587 120.118 225.587" stroke="#676B78" stroke-width="0.764724" stroke-miterlimit="10" stroke-linecap="round" stroke-linejoin="round" stroke-dasharray="1.2 1.2"/>
<path d="M255.19 158.333C255.19 158.333 256.506 163.25 258.29 164.289C260.074 165.329 262.451 165.329 261.857 167.556C261.262 169.784 259.297 166.369 258.57 170.228C257.844 174.088 256.026 175.424 258.57 177.355C261.114 179.285 264.681 179.137 265.573 180.769C266.465 182.402 265.127 183.293 263.493 183.441C261.858 183.589 261.708 182.847 259.331 184.628C256.953 186.41 255.615 188.785 254.278 189.825C252.94 190.864 251.008 189.379 249.819 191.903C248.63 194.427 251.603 197.545 252.495 198.584C253.387 199.623 252.495 201.553 250.711 201.999C248.927 202.444 251.942 208.531 249.542 210.015C247.144 211.5 249.373 212.985 245.954 212.539C242.536 212.094 238.82 213.726 239.117 211.5C239.413 209.274 240.306 208.531 240.901 207.046C241.497 205.562 241.495 202.444 239.713 202.147C237.928 201.85 237.928 204.374 234.213 199.919C230.498 195.465 230.2 193.684 228.416 193.684C226.632 193.684 226.038 194.277 222.323 194.723C218.606 195.168 219.194 196.653 215.407 195.168C211.62 193.684 212.809 192.347 209.54 192.941C206.271 193.534 206.121 193.832 204.635 191.456C203.149 189.081 202.257 193.534 197.352 193.238C192.446 192.942 194.527 189.972 190.068 190.566C185.609 191.161 188.81 188.636 185.797 187.745C182.784 186.854 180.704 190.566 181.298 193.832C181.893 197.098 182.487 198.731 184.123 201.255C185.757 203.778 188.513 207.787 185.797 208.232C183.081 208.678 183.081 203.63 179.663 203.63C176.244 203.63 176.62 202.887 176.135 199.029C175.65 195.168 173.202 191.012 176.135 189.378C179.068 187.745 178.772 186.557 182.339 184.776C185.906 182.994 188.878 178.541 188.582 177.056C188.285 175.571 189.851 172.9 185.797 170.82C181.744 168.742 182.299 166.129 179.068 166.366C175.839 166.603 175.839 166.603 175.839 166.603" stroke="#676B78" stroke-width="0.764724" stroke-miterlimit="10" stroke-linecap="round" stroke-linejoin="round" stroke-dasharray="1.2 1.2"/>
<path d="M315.279 159.616C315.279 159.616 317.744 159.205 320.271 158.333C322.797 157.46 323.095 157.312 324.136 157.312C325.176 157.312 326.102 157.312 326.102 157.312" stroke="#676B78" stroke-width="0.764724" stroke-miterlimit="10" stroke-linecap="round" stroke-linejoin="round" stroke-dasharray="1.2 1.2"/>
<path d="M314.05 170.127C314.05 170.127 317.892 168.689 317.595 170.127C317.297 171.564 316.153 173.94 314.05 175.573C311.947 177.205 312.586 181.956 314.05 183.738C315.514 185.52 312.393 187.301 311.501 187.895C310.609 188.488 315.828 193.833 314.557 196.061C313.285 198.287 314.325 197.991 312.839 201.703C311.353 205.415 308.082 201.851 307.34 206.454C306.597 211.057 307.638 210.792 302.287 212.706C296.936 214.62 296.936 212.542 293.963 214.62C290.99 216.698 290.396 214.174 288.018 215.659C285.639 217.143 285.639 218.628 288.018 221.152C290.396 223.675 292.625 225.998 295.449 225.653C298.274 225.309 296.936 231.544 298.72 233.622C300.504 235.7 298.274 238.076 296.193 237.334C294.112 236.591 293.22 231.989 291.586 231.989C289.951 231.989 289.356 233.158 288.761 237.473C288.167 241.789 286.383 242.976 284.451 240.749C282.518 238.521 280.438 239.116 277.167 238.818C273.897 238.521 277.613 235.256 275.235 233.919C272.857 232.583 272.114 234.345 268.1 234.726C264.087 235.108 261.411 236.275 260.965 234.726C260.519 233.178 260.37 232.584 262.153 230.208C263.937 227.833 264.978 229.562 263.045 225.653C261.113 221.745 259.181 221.597 259.032 218.331C258.884 215.064 258.417 217.143 253.979 213.579C249.54 210.017 249.54 210.017 249.54 210.017" stroke="#676B78" stroke-width="0.764724" stroke-miterlimit="10" stroke-linecap="round" stroke-linejoin="round" stroke-dasharray="1.2 1.2"/>
<path d="M310.759 245.876C310.759 245.876 312.245 243.392 308.232 241.847C304.219 240.302 300.652 239.56 300.206 238.669C299.76 237.778 298.638 236.822 298.638 236.822" stroke="#676B78" stroke-width="0.764724" stroke-miterlimit="10" stroke-linecap="round" stroke-linejoin="round" stroke-dasharray="1.2 1.2"/>
<path d="M113.889 240.971C113.889 240.971 116.341 242.65 119.165 241.847C121.99 241.045 120.504 243.123 123.03 245.053C125.557 246.983 127.489 247.577 130.314 248.022C133.138 248.468 133.88 248.17 136.111 249.952C138.341 251.734 141.164 249.061 142.948 251.734C144.732 254.406 145.921 255.594 148.893 255.001C151.866 254.407 151.272 253.664 154.69 250.993C158.109 248.321 160.933 246.968 163.014 247.421C165.095 247.875 161.23 253.071 166.879 252.923C172.527 252.775 172.824 246.764 176.986 248.062C181.148 249.36 181.297 252.627 185.012 250.993C188.729 249.36 190.066 247.357 193.188 248.062C196.309 248.766 199.133 251.587 203.146 251.142C207.159 250.696 210.429 251.142 210.726 252.478C211.023 253.815 208.496 253.518 209.388 256.784C210.28 260.051 212.558 261.981 210.751 266.137C208.943 270.293 208.794 272.521 210.132 274.748C211.47 276.976 214.739 279.796 212.362 280.984C209.983 282.171 208.201 283.36 206.713 287.368C205.227 291.376 210.132 293.604 207.011 295.088C203.89 296.573 210.132 296.87 210.727 298.503C211.323 300.136 214.288 300.879 215.406 304.887C216.524 308.895 219.795 308.599 221.578 308.45C223.362 308.302 222.172 308.747 224.699 304.144C227.225 299.542 229.455 296.721 230.644 294.791C231.832 292.861 236.143 295.236 235.549 289.149C234.955 283.062 233.616 288.703 233.914 281.28C234.212 273.857 230.347 272.075 233.17 271.779C235.995 271.482 238.67 276.679 240.9 276.679C243.13 276.679 242.386 273.561 240.9 272.522C239.414 271.483 238.351 267.029 237.842 264.506C237.333 261.982 236.887 261.834 239.117 259.606C241.346 257.379 238.671 255.598 242.982 254.559C247.292 253.52 249.075 257.826 250.562 251.59C252.048 245.354 250.413 245.178 254.723 241.852C259.034 238.526 260.966 234.73 260.966 234.73" stroke="#676B78" stroke-width="0.764724" stroke-miterlimit="10" stroke-linecap="round" stroke-linejoin="round" stroke-dasharray="1.2 1.2"/>
<path d="M103.663 339.849C103.663 339.849 107.275 337.545 108.909 338.734C110.544 339.921 113.071 340.218 114.855 337.397C116.639 334.576 118.571 333.259 116.787 330.716C115.003 328.174 114.341 328.34 117.496 324.48C120.652 320.62 119.017 319.284 123.03 319.729C127.043 320.175 127.341 320.62 131.056 316.612C134.773 312.604 132.245 311.267 137.15 312.306C142.055 313.345 145.473 313.197 147.852 309.485C150.23 305.773 149.338 304.14 153.351 303.249C157.364 302.358 157.662 303.101 161.823 299.093C165.984 295.085 165.984 298.647 167.174 291.522C168.363 284.395 168.809 284.099 171.633 283.356C174.457 282.613 173.714 284.247 176.24 280.684C178.767 277.122 179.659 275.933 182.334 276.528C185.009 277.122 185.306 281.427 189.617 281.575C193.928 281.723 196.009 276.379 198.685 280.684C201.36 284.99 198.536 290.335 200.319 293.304C202.103 296.273 206.147 295.915 206.147 295.915" stroke="#676B78" stroke-width="0.764724" stroke-miterlimit="10" stroke-linecap="round" stroke-linejoin="round" stroke-dasharray="1.2 1.2"/>
<path d="M111.715 352.099C111.715 352.099 113.072 353.578 113.814 350.609C114.558 347.64 112.764 339.307 112.764 339.307" stroke="#676B78" stroke-width="0.764724" stroke-miterlimit="10" stroke-linecap="round" stroke-linejoin="round" stroke-dasharray="1.2 1.2"/>
<path d="M119.889 386.919C119.889 386.919 128.381 389.358 129.273 392.476C130.165 395.593 131.354 395.743 135.962 397.523C140.57 399.305 141.165 395.593 141.462 400.641C141.758 405.688 145.475 408.212 146.515 409.548C147.555 410.885 148.299 417.119 150.974 418.308C153.649 419.495 150.528 427.513 153.649 429.443C156.77 431.373 158.554 428.552 157.662 435.529C156.77 442.506 159.892 441.913 157.067 446.219C154.243 450.524 155.879 448.594 155.283 452.305C154.689 456.017 156.473 457.204 155.283 458.391C154.095 459.579 151.382 459.43 151.382 459.43" stroke="#676B78" stroke-width="0.764724" stroke-miterlimit="10" stroke-linecap="round" stroke-linejoin="round" stroke-dasharray="1.2 1.2"/>
<path d="M221.576 308.446C221.576 308.446 224.697 308.298 227.373 306.813C230.048 305.329 231.09 305.922 235.549 301.617C240.008 297.311 238.373 294.787 241.792 295.678C245.211 296.569 246.697 297.46 247.887 294.342C249.075 291.224 246.846 290.333 250.859 289.294C254.872 288.255 255.913 285.732 257.548 288.255C259.183 290.779 263.94 292.709 265.724 291.522C267.508 290.335 270.555 287.959 270.555 287.959" stroke="#676B78" stroke-width="0.764724" stroke-miterlimit="10" stroke-linecap="round" stroke-linejoin="round" stroke-dasharray="1.2 1.2"/>
<path d="M141.863 402.922C141.863 402.922 147.109 402.72 147.852 404.353C148.594 405.985 152.013 408.213 153.203 407.174C154.391 406.135 154.585 403.907 158.278 403.759C161.971 403.611 163.755 403.166 165.242 399.453C166.728 395.741 162.269 395.891 164.201 392.476C166.134 389.061 163.458 387.725 167.322 387.725C171.187 387.725 172.227 384.481 173.416 386.919C174.604 389.358 177.281 391.436 178.173 389.506C179.065 387.576 179.957 385.497 182.929 385.052C185.902 384.606 187.388 386.982 189.321 386.239C191.253 385.496 194.82 382.824 194.969 381.637C195.118 380.45 196.567 380.894 200.618 379.855C204.668 378.816 204.198 377.329 204.198 377.329" stroke="#676B78" stroke-width="0.764724" stroke-miterlimit="10" stroke-linecap="round" stroke-linejoin="round" stroke-dasharray="1.2 1.2"/>
<path d="M161.824 299.093C161.824 299.093 165.243 304.438 164.203 306.516C163.162 308.594 160.684 310.079 163.112 312.306C165.539 314.534 162.121 317.503 161.824 321.214C161.526 324.924 165.291 326.521 163.112 328.172C160.932 329.824 161.972 332.497 163.757 333.832C165.541 335.168 165.506 337.692 161.807 338.583C158.108 339.474 157.216 339.029 156.175 341.256C155.135 343.482 158.108 346.897 157.364 349.124C156.62 351.352 153.648 350.317 153.351 352.468C153.053 354.617 150.676 362.19 153.351 362.338C156.026 362.486 161.675 359.814 161.526 363.674C161.378 367.534 157.959 365.456 157.662 368.276C157.364 371.097 160.783 371.543 163.905 371.393C167.027 371.244 168.958 370.057 170.594 372.58C172.228 375.104 169.539 374.506 173.039 377.329C176.539 380.153 177.133 379.707 176.093 382.527C175.053 385.348 173.418 386.918 173.418 386.918" stroke="#676B78" stroke-width="0.764724" stroke-miterlimit="10" stroke-linecap="round" stroke-linejoin="round" stroke-dasharray="1.2 1.2"/>
<path d="M339.594 172.603C339.594 172.603 340.226 169.597 341.007 169.041C341.787 168.484 342.21 163.614 342.21 163.614" stroke="#676B78" stroke-width="0.764724" stroke-miterlimit="10" stroke-linecap="round" stroke-linejoin="round" stroke-dasharray="1.2 1.2"/>
<path d="M341.52 177.744C341.52 177.744 344.796 176.167 348.809 176.278C352.822 176.389 355.832 177.071 357.727 177.009C359.622 176.947 359.957 179.211 362.743 177.744C365.53 176.278 367.202 172.27 370.658 172.605C374.113 172.939 376.231 171.714 375.785 174.832C375.339 177.949 376.009 178.729 378.349 178.951C380.69 179.174 382.697 181.847 382.473 183.405C382.249 184.964 380.121 187.637 380.121 187.637" stroke="#676B78" stroke-width="0.764724" stroke-miterlimit="10" stroke-linecap="round" stroke-linejoin="round" stroke-dasharray="1.2 1.2"/>
<path d="M372.179 160.19C372.179 160.19 370.659 160.692 375.898 158.464C381.137 156.235 386.711 157.237 390.835 156.235C394.959 155.233 396.075 157.571 396.297 152.672C396.52 147.773 397.635 148.218 400.199 146.993C402.763 145.767 401.648 144.543 404.101 144.209C406.553 143.874 407.78 146.77 411.123 143.207C414.468 139.644 417.7 138.864 420.265 138.307C422.829 137.751 424.056 135.747 423.498 138.864C422.941 141.981 420.154 141.536 422.273 143.874C424.39 146.213 425.394 147.104 423.165 149.33C420.935 151.558 420.078 150.731 420.452 153.315" stroke="#676B78" stroke-width="0.764724" stroke-miterlimit="10" stroke-linecap="round" stroke-linejoin="round" stroke-dasharray="1.2 1.2"/>
<path d="M409.831 177.514C409.831 177.514 410.233 174.831 408.783 174.72C407.334 174.609 407.445 177.949 405.216 178.506C402.986 179.063 402.653 177.706 399.419 180.11C396.186 182.514 398.751 182.514 394.18 183.738C389.609 184.963 391.059 188.416 390.167 191.087C389.275 193.759 388.383 195.652 388.829 197.991C389.275 200.329 393.102 203.633 393.102 203.633" stroke="#676B78" stroke-width="0.764724" stroke-miterlimit="10" stroke-linecap="round" stroke-linejoin="round" stroke-dasharray="1.2 1.2"/>
<path d="M376.158 201.405C376.158 201.405 379.02 203.657 378.685 205.668C378.35 207.678 378.257 215.311 378.257 215.311" stroke="#676B78" stroke-width="0.764724" stroke-miterlimit="10" stroke-linecap="round" stroke-linejoin="round" stroke-dasharray="1.2 1.2"/>
<path d="M388.16 198.102C388.16 198.102 388.16 197.322 385.262 197.545C382.363 197.767 385.073 201.553 382.492 202.333C379.911 203.113 378.154 203.633 378.154 203.633" stroke="#676B78" stroke-width="0.764724" stroke-miterlimit="10" stroke-linecap="round" stroke-linejoin="round" stroke-dasharray="1.2 1.2"/>
<path d="M394.181 183.738C394.181 183.738 395.519 181.178 393.735 178.059C391.951 174.942 395.184 172.938 396.298 173.16C397.413 173.382 397.947 173.572 399.297 173.143C400.646 172.714 401.203 167.592 403.21 165.477C405.216 163.362 404.994 164.475 407.447 160.689C409.899 156.902 410.791 156.235 414.358 155.344C417.925 154.453 421.057 152.52 421.057 152.52" stroke="#676B78" stroke-width="0.764724" stroke-miterlimit="10" stroke-linecap="round" stroke-linejoin="round" stroke-dasharray="1.2 1.2"/>
<path d="M142.062 40.4174C147.244 40.4174 151.445 36.2216 151.445 31.0459C151.445 25.8701 147.244 21.6743 142.062 21.6743C136.88 21.6743 132.68 25.8701 132.68 31.0459C132.68 36.2216 136.88 40.4174 142.062 40.4174Z" fill="#0BDBB6"/>
<path d="M147.459 31.0459C147.459 34.0224 145.042 36.4363 142.062 36.4363C139.082 36.4363 136.665 34.0224 136.665 31.0459C136.665 28.0693 139.082 25.6555 142.062 25.6555C145.042 25.6555 147.459 28.0693 147.459 31.0459Z" stroke="white" stroke-width="0.763866" stroke-miterlimit="10"/>
<path d="M142.062 40.4186V46.8963" stroke="#0BDBB6" stroke-width="0.916682" stroke-miterlimit="10" stroke-linecap="round" stroke-linejoin="round"/>
<path d="M143.757 48.8362C143.757 49.7716 142.999 50.5294 142.062 50.5294C141.126 50.5294 140.367 49.7716 140.367 48.8362C140.367 47.9008 141.126 47.1431 142.062 47.1431C142.999 47.1431 143.757 47.9008 143.757 48.8362Z" stroke="#0BDBB6" stroke-width="0.916682" stroke-miterlimit="10" stroke-linecap="round" stroke-linejoin="round"/>
<path d="M120.852 157.333C122.047 152.297 118.927 147.247 113.885 146.054C108.842 144.861 103.786 147.976 102.592 153.013C101.398 158.049 104.517 163.099 109.559 164.292C114.602 165.485 119.658 162.37 120.852 157.333Z" fill="#0BDBB6"/>
<path d="M117.112 155.183C117.112 158.16 114.695 160.574 111.715 160.574C108.735 160.574 106.318 158.16 106.318 155.183C106.318 152.207 108.735 149.793 111.715 149.793C114.696 149.793 117.112 152.207 117.112 155.183Z" stroke="white" stroke-width="0.763866" stroke-miterlimit="10"/>
<path d="M111.715 164.555V171.033" stroke="#0BDBB6" stroke-width="0.916682" stroke-miterlimit="10" stroke-linecap="round" stroke-linejoin="round"/>
<path d="M113.41 172.972C113.41 173.908 112.652 174.665 111.715 174.665C110.779 174.665 110.02 173.908 110.02 172.972C110.02 172.037 110.779 171.279 111.715 171.279C112.652 171.279 113.41 172.037 113.41 172.972Z" stroke="#0BDBB6" stroke-width="0.916682" stroke-miterlimit="10" stroke-linecap="round" stroke-linejoin="round"/>
<path d="M125.743 283.175C130.925 283.175 135.126 278.979 135.126 273.803C135.126 268.627 130.925 264.432 125.743 264.432C120.561 264.432 116.361 268.627 116.361 273.803C116.361 278.979 120.561 283.175 125.743 283.175Z" fill="#0BDBB6"/>
<path d="M131.14 273.803C131.14 276.78 128.723 279.194 125.743 279.194C122.763 279.194 120.347 276.78 120.347 273.803C120.347 270.827 122.763 268.413 125.743 268.413C128.723 268.413 131.14 270.827 131.14 273.803Z" stroke="white" stroke-width="0.763866" stroke-miterlimit="10"/>
<path d="M125.743 283.176V289.653" stroke="#0BDBB6" stroke-width="0.916682" stroke-miterlimit="10" stroke-linecap="round" stroke-linejoin="round"/>
<path d="M127.438 291.593C127.438 292.529 126.68 293.287 125.743 293.287C124.807 293.287 124.048 292.529 124.048 291.593C124.048 290.658 124.807 289.9 125.743 289.9C126.679 289.9 127.438 290.658 127.438 291.593Z" stroke="#0BDBB6" stroke-width="0.916682" stroke-miterlimit="10" stroke-linecap="round" stroke-linejoin="round"/>
<path d="M136.665 356.784C141.847 356.784 146.048 352.589 146.048 347.413C146.048 342.237 141.847 338.041 136.665 338.041C131.483 338.041 127.283 342.237 127.283 347.413C127.283 352.589 131.483 356.784 136.665 356.784Z" fill="#0BDBB6"/>
<path d="M142.062 347.413C142.062 350.389 139.645 352.803 136.665 352.803C133.685 352.803 131.269 350.389 131.269 347.413C131.269 344.436 133.685 342.022 136.665 342.022C139.645 342.022 142.062 344.435 142.062 347.413Z" stroke="white" stroke-width="0.763866" stroke-miterlimit="10"/>
<path d="M136.665 356.784V363.262" stroke="#0BDBB6" stroke-width="0.916682" stroke-miterlimit="10" stroke-linecap="round" stroke-linejoin="round"/>
<path d="M138.36 365.202C138.36 366.137 137.602 366.895 136.665 366.895C135.729 366.895 134.97 366.137 134.97 365.202C134.97 364.266 135.729 363.509 136.665 363.509C137.602 363.509 138.36 364.266 138.36 365.202Z" stroke="#0BDBB6" stroke-width="0.916682" stroke-miterlimit="10" stroke-linecap="round" stroke-linejoin="round"/>
<path d="M207.384 167.637C212.566 167.637 216.766 163.442 216.766 158.266C216.766 153.09 212.566 148.894 207.384 148.894C202.202 148.894 198.001 153.09 198.001 158.266C198.001 163.442 202.202 167.637 207.384 167.637Z" fill="#0BDBB6"/>
<path d="M212.781 158.266C212.781 161.243 210.364 163.656 207.384 163.656C204.404 163.656 201.987 161.243 201.987 158.266C201.987 155.289 204.404 152.876 207.384 152.876C210.365 152.876 212.781 155.288 212.781 158.266Z" stroke="white" stroke-width="0.763866" stroke-miterlimit="10"/>
<path d="M207.384 167.637V174.115" stroke="#0BDBB6" stroke-width="0.916682" stroke-miterlimit="10" stroke-linecap="round" stroke-linejoin="round"/>
<path d="M209.079 176.055C209.079 176.99 208.32 177.748 207.384 177.748C206.447 177.748 205.689 176.99 205.689 176.055C205.689 175.12 206.447 174.362 207.384 174.362C208.32 174.362 209.079 175.12 209.079 176.055Z" stroke="#0BDBB6" stroke-width="0.916682" stroke-miterlimit="10" stroke-linecap="round" stroke-linejoin="round"/>
<path d="M149.138 122.58C154.32 122.58 158.521 118.384 158.521 113.208C158.521 108.032 154.32 103.837 149.138 103.837C143.956 103.837 139.756 108.032 139.756 113.208C139.756 118.384 143.956 122.58 149.138 122.58Z" fill="#0BDBB6"/>
<path d="M154.535 113.208C154.535 116.185 152.118 118.599 149.138 118.599C146.158 118.599 143.741 116.185 143.741 113.208C143.741 110.232 146.158 107.818 149.138 107.818C152.119 107.818 154.535 110.23 154.535 113.208Z" stroke="white" stroke-width="0.763866" stroke-miterlimit="10"/>
<path d="M149.138 122.58V129.057" stroke="#0BDBB6" stroke-width="0.916682" stroke-miterlimit="10" stroke-linecap="round" stroke-linejoin="round"/>
<path d="M150.833 130.997C150.833 131.933 150.075 132.69 149.138 132.69C148.202 132.69 147.443 131.933 147.443 130.997C147.443 130.062 148.202 129.304 149.138 129.304C150.075 129.304 150.833 130.062 150.833 130.997Z" stroke="#0BDBB6" stroke-width="0.916682" stroke-miterlimit="10" stroke-linecap="round" stroke-linejoin="round"/>
<path d="M77.478 217.603C82.6598 217.603 86.8605 213.407 86.8605 208.231C86.8605 203.056 82.6598 198.86 77.478 198.86C72.2961 198.86 68.0954 203.056 68.0954 208.231C68.0954 213.407 72.2961 217.603 77.478 217.603Z" fill="#0BDBB6"/>
<path d="M82.8747 208.231C82.8747 211.208 80.458 213.622 77.4779 213.622C74.4979 213.622 72.0812 211.208 72.0812 208.231C72.0812 205.255 74.4979 202.841 77.4779 202.841C80.4593 202.841 82.8747 205.253 82.8747 208.231Z" stroke="white" stroke-width="0.763866" stroke-miterlimit="10"/>
<path d="M77.478 217.603V224.08" stroke="#0BDBB6" stroke-width="0.916682" stroke-miterlimit="10" stroke-linecap="round" stroke-linejoin="round"/>
<path d="M79.1731 226.02C79.1731 226.956 78.4145 227.713 77.478 227.713C76.5415 227.713 75.7828 226.956 75.7828 226.02C75.7828 225.085 76.5415 224.327 77.478 224.327C78.4145 224.327 79.1731 225.085 79.1731 226.02Z" stroke="#0BDBB6" stroke-width="0.916682" stroke-miterlimit="10" stroke-linecap="round" stroke-linejoin="round"/>
<path d="M280.103 194.156C285.285 194.156 289.486 189.96 289.486 184.784C289.486 179.608 285.285 175.412 280.103 175.412C274.921 175.412 270.721 179.608 270.721 184.784C270.721 189.96 274.921 194.156 280.103 194.156Z" fill="#0BDBB6"/>
<path d="M285.5 184.784C285.5 187.761 283.083 190.174 280.103 190.174C277.123 190.174 274.706 187.761 274.706 184.784C274.706 181.807 277.123 179.394 280.103 179.394C283.084 179.394 285.5 181.806 285.5 184.784Z" stroke="white" stroke-width="0.763866" stroke-miterlimit="10"/>
<path d="M280.103 194.155V200.633" stroke="#0BDBB6" stroke-width="0.916682" stroke-miterlimit="10" stroke-linecap="round" stroke-linejoin="round"/>
<path d="M281.798 202.573C281.798 203.509 281.04 204.266 280.103 204.266C279.167 204.266 278.408 203.509 278.408 202.573C278.408 201.638 279.167 200.88 280.103 200.88C281.04 200.88 281.798 201.638 281.798 202.573Z" stroke="#0BDBB6" stroke-width="0.916682" stroke-miterlimit="10" stroke-linecap="round" stroke-linejoin="round"/>
<path d="M280.103 254.625C285.285 254.625 289.486 250.429 289.486 245.253C289.486 240.078 285.285 235.882 280.103 235.882C274.921 235.882 270.721 240.078 270.721 245.253C270.721 250.429 274.921 254.625 280.103 254.625Z" fill="#0BDBB6"/>
<path d="M285.5 245.253C285.5 248.23 283.083 250.644 280.103 250.644C277.123 250.644 274.706 248.23 274.706 245.253C274.706 242.277 277.123 239.863 280.103 239.863C283.084 239.863 285.5 242.276 285.5 245.253Z" stroke="white" stroke-width="0.763866" stroke-miterlimit="10"/>
<path d="M280.103 254.625V261.102" stroke="#0BDBB6" stroke-width="0.916682" stroke-miterlimit="10" stroke-linecap="round" stroke-linejoin="round"/>
<path d="M281.798 263.042C281.798 263.978 281.04 264.736 280.103 264.736C279.167 264.736 278.408 263.978 278.408 263.042C278.408 262.107 279.167 261.349 280.103 261.349C281.04 261.349 281.798 262.107 281.798 263.042Z" stroke="#0BDBB6" stroke-width="0.916682" stroke-miterlimit="10" stroke-linecap="round" stroke-linejoin="round"/>
<path d="M188.675 327.435C193.857 327.435 198.057 323.239 198.057 318.063C198.057 312.888 193.857 308.692 188.675 308.692C183.493 308.692 179.292 312.888 179.292 318.063C179.292 323.239 183.493 327.435 188.675 327.435Z" fill="#0BDBB6"/>
<path d="M194.071 318.063C194.071 321.04 191.655 323.454 188.675 323.454C185.695 323.454 183.278 321.04 183.278 318.063C183.278 315.087 185.695 312.673 188.675 312.673C191.656 312.673 194.071 315.086 194.071 318.063Z" stroke="white" stroke-width="0.763866" stroke-miterlimit="10"/>
<path d="M188.675 327.435V333.913" stroke="#0BDBB6" stroke-width="0.916682" stroke-miterlimit="10" stroke-linecap="round" stroke-linejoin="round"/>
<path d="M190.37 335.852C190.37 336.788 189.611 337.546 188.675 337.546C187.738 337.546 186.98 336.788 186.98 335.852C186.98 334.917 187.738 334.159 188.675 334.159C189.611 334.159 190.37 334.917 190.37 335.852Z" stroke="#0BDBB6" stroke-width="0.916682" stroke-miterlimit="10" stroke-linecap="round" stroke-linejoin="round"/>
<path d="M388.711 159.834C393.893 159.834 398.094 155.639 398.094 150.463C398.094 145.287 393.893 141.091 388.711 141.091C383.529 141.091 379.329 145.287 379.329 150.463C379.329 155.639 383.529 159.834 388.711 159.834Z" fill="#0BDBB6"/>
<path d="M394.108 150.463C394.108 153.44 391.691 155.853 388.711 155.853C385.731 155.853 383.314 153.44 383.314 150.463C383.314 147.486 385.731 145.073 388.711 145.073C391.691 145.073 394.108 147.486 394.108 150.463Z" stroke="white" stroke-width="0.763866" stroke-miterlimit="10"/>
<path d="M388.711 159.836V166.313" stroke="#0BDBB6" stroke-width="0.916682" stroke-miterlimit="10" stroke-linecap="round" stroke-linejoin="round"/>
<path d="M390.406 168.252C390.406 169.187 389.648 169.945 388.711 169.945C387.775 169.945 387.016 169.187 387.016 168.252C387.016 167.317 387.775 166.559 388.711 166.559C389.648 166.559 390.406 167.318 390.406 168.252Z" stroke="#0BDBB6" stroke-width="0.916682" stroke-miterlimit="10" stroke-linecap="round" stroke-linejoin="round"/>
<path d="M148.883 430.743C154.064 430.743 158.265 426.547 158.265 421.372C158.265 416.196 154.064 412 148.883 412C143.701 412 139.5 416.196 139.5 421.372C139.5 426.547 143.701 430.743 148.883 430.743Z" fill="#0BDBB6"/>
<path d="M154.279 421.372C154.279 424.348 151.863 426.762 148.883 426.762C145.902 426.762 143.486 424.348 143.486 421.372C143.486 418.395 145.902 415.981 148.883 415.981C151.863 415.981 154.279 418.395 154.279 421.372Z" stroke="white" stroke-width="0.763866" stroke-miterlimit="10"/>
<path d="M148.883 430.744V437.222" stroke="#0BDBB6" stroke-width="0.916682" stroke-miterlimit="10" stroke-linecap="round" stroke-linejoin="round"/>
<path d="M150.578 439.161C150.578 440.096 149.819 440.854 148.883 440.854C147.946 440.854 147.187 440.096 147.187 439.161C147.187 438.225 147.946 437.468 148.883 437.468C149.819 437.468 150.578 438.226 150.578 439.161Z" stroke="#0BDBB6" stroke-width="0.916682" stroke-miterlimit="10" stroke-linecap="round" stroke-linejoin="round"/>
<path d="M224.272 240.773C229.454 240.773 233.655 236.578 233.655 231.402C233.655 226.226 229.454 222.03 224.272 222.03C219.09 222.03 214.89 226.226 214.89 231.402C214.89 236.578 219.09 240.773 224.272 240.773Z" fill="#0BDBB6"/>
<path d="M229.669 231.402C229.669 234.378 227.252 236.792 224.272 236.792C221.292 236.792 218.875 234.378 218.875 231.402C218.875 228.425 221.292 226.011 224.272 226.011C227.254 226.011 229.669 228.424 229.669 231.402Z" stroke="white" stroke-width="0.763866" stroke-miterlimit="10"/>
<path d="M224.272 240.773V247.251" stroke="#0BDBB6" stroke-width="0.916682" stroke-miterlimit="10" stroke-linecap="round" stroke-linejoin="round"/>
<path d="M225.967 249.191C225.967 250.126 225.209 250.884 224.272 250.884C223.336 250.884 222.577 250.126 222.577 249.191C222.577 248.255 223.336 247.498 224.272 247.498C225.209 247.498 225.967 248.255 225.967 249.191Z" stroke="#0BDBB6" stroke-width="0.916682" stroke-miterlimit="10" stroke-linecap="round" stroke-linejoin="round"/>
<path d="M187.278 408.431C188.106 403.322 184.631 398.51 179.516 397.683C174.401 396.855 169.583 400.327 168.755 405.436C167.927 410.545 171.403 415.357 176.518 416.184C181.633 417.011 186.45 413.54 187.278 408.431Z" fill="#0BDBB6"/>
<path d="M183.441 406.916C183.441 409.892 181.024 412.306 178.044 412.306C175.064 412.306 172.647 409.892 172.647 406.916C172.647 403.939 175.064 401.525 178.044 401.525C181.024 401.525 183.441 403.939 183.441 406.916Z" stroke="white" stroke-width="0.763866" stroke-miterlimit="10"/>
<path d="M178.044 416.287V422.765" stroke="#0BDBB6" stroke-width="0.916682" stroke-miterlimit="10" stroke-linecap="round" stroke-linejoin="round"/>
<path d="M179.739 424.705C179.739 425.64 178.981 426.398 178.044 426.398C177.108 426.398 176.349 425.64 176.349 424.705C176.349 423.769 177.108 423.012 178.044 423.012C178.981 423.012 179.739 423.769 179.739 424.705Z" stroke="#0BDBB6" stroke-width="0.916682" stroke-miterlimit="10" stroke-linecap="round" stroke-linejoin="round"/>
</svg>
