<svg width="32" height="32" viewBox="0 0 32 32" fill="none" xmlns="http://www.w3.org/2000/svg">
<g clip-path="url(#clip0_107_3612)">
<path d="M23.2258 14.1935V14.5557C23.2258 14.9995 23.2974 15.4404 23.4377 15.8614L24.2581 18.3225H25.8065V12.6451H24.7742C23.9191 12.6451 23.2258 13.3383 23.2258 14.1935Z" fill="#5A4146"/>
<path d="M30.2927 15.2657L29.4194 18.3226L25.2903 14.7097C24.7202 14.7097 24.2581 14.2475 24.2581 13.6774C24.2581 12.8223 24.9513 12.1291 25.8064 12.1291H29.4193C29.9894 12.1291 30.4516 12.5912 30.4516 13.1613V14.1314C30.4516 14.5151 30.3981 14.8968 30.2927 15.2657Z" fill="#694B4B"/>
<path d="M25.29 19.8712H28.3867V22.1556H25.29V19.8712Z" fill="#E6AF78"/>
<path d="M25.2903 20.819C25.769 21.0135 26.291 21.123 26.8387 21.123C27.3863 21.123 27.9083 21.0135 28.387 20.819V19.8709H25.2903V20.819Z" fill="#D29B6E"/>
<path d="M30.8769 21.8344L28.3869 21.1231L26.8387 22.1505L25.2903 21.123L22.8004 21.8344C22.4769 21.9269 22.1923 22.1222 21.9897 22.3908C21.787 22.6595 21.6774 22.9868 21.6774 23.3233V27.0968C21.6774 27.2336 21.7318 27.3649 21.8286 27.4617C21.9254 27.5585 22.0567 27.6129 22.1936 27.6129H31.4839C31.6208 27.6129 31.752 27.5585 31.8488 27.4617C31.9456 27.3649 32 27.2336 32 27.0968V23.3233C32 22.9868 31.8904 22.6594 31.6877 22.3908C31.4851 22.1222 31.2005 21.9269 30.8769 21.8344Z" fill="#D5DCED"/>
<path d="M27.3548 27.6128H26.3226L26.5806 22.1553H27.0968L27.3548 27.6128Z" fill="#AFB9D2"/>
<path d="M26.8387 20.3871C25.1284 20.3871 23.7419 19.0006 23.7419 17.2903V16.6856C23.7419 16.4119 23.8507 16.1493 24.0443 15.9557L24.9802 15.0197C25.1784 14.8216 25.4494 14.7076 25.7295 14.7164C27.3794 14.7685 28.8398 15.1219 29.6381 15.9016C29.8335 16.0925 29.9355 16.3595 29.9355 16.6326V17.2903C29.9355 19.0006 28.549 20.3871 26.8387 20.3871Z" fill="#F0C087"/>
<path d="M25.2903 16.8136C25.2903 16.2182 25.7903 15.745 26.3845 15.7829C27.4264 15.8494 28.9726 16.0235 29.9211 16.4797C29.8902 16.262 29.7966 16.0564 29.6381 15.9016C28.8398 15.1219 27.3794 14.7684 25.7295 14.7164L25.7294 14.7164C25.4494 14.7076 25.1783 14.8216 24.9802 15.0197L24.0443 15.9556C23.9484 16.0514 23.8724 16.1652 23.8205 16.2904C23.7686 16.4157 23.7419 16.5499 23.7419 16.6855V17.2902C23.7419 18.7024 24.6883 19.8915 25.9807 20.2639C25.5505 19.7331 25.2904 19.0594 25.2904 18.3224L25.2903 16.8136Z" fill="#E6AF78"/>
<path d="M29.9355 24.8612C29.9355 24.4505 30.0986 24.0567 30.389 23.7663L31.7175 22.4378C31.8951 22.6916 32 22.9971 32 23.3233V27.0968C32 27.2337 31.9456 27.365 31.8488 27.4618C31.752 27.5586 31.6207 27.6129 31.4839 27.6129H29.9355V24.8612Z" fill="#C7CFE2"/>
<path d="M27.0968 23.1875H26.5806C26.5122 23.1875 26.4466 23.1603 26.3982 23.1119C26.3498 23.0635 26.3226 22.9979 26.3226 22.9294V22.1553H27.3548V22.9294C27.3548 22.9633 27.3481 22.9969 27.3352 23.0282C27.3222 23.0595 27.3032 23.088 27.2792 23.1119C27.2553 23.1359 27.2268 23.1549 27.1955 23.1679C27.1642 23.1808 27.1306 23.1875 27.0968 23.1875Z" fill="#959CB5"/>
<path d="M26.8387 22.1506L25.9639 22.8188C25.9284 22.8458 25.8875 22.8649 25.844 22.8748C25.8005 22.8846 25.7553 22.8849 25.7117 22.8756C25.668 22.8664 25.6269 22.8478 25.5911 22.8212C25.5553 22.7946 25.5257 22.7605 25.5042 22.7214L24.7195 21.2883L25.0354 20.8064C25.0518 20.7813 25.0736 20.7601 25.0991 20.7443C25.1246 20.7284 25.1532 20.7183 25.183 20.7147C25.2128 20.711 25.2431 20.714 25.2716 20.7232C25.3002 20.7325 25.3264 20.7478 25.3484 20.7683L26.8387 22.1506ZM26.8387 22.1506L27.7135 22.8188C27.7489 22.8459 27.7898 22.865 27.8334 22.8748C27.8769 22.8846 27.922 22.8849 27.9657 22.8757C28.0093 22.8664 28.0504 22.8479 28.0862 22.8212C28.1221 22.7946 28.1517 22.7606 28.1731 22.7214L28.9579 21.2883L28.642 20.8065C28.6255 20.7814 28.6038 20.7602 28.5783 20.7443C28.5528 20.7285 28.5241 20.7184 28.4943 20.7147C28.4645 20.7111 28.4343 20.714 28.4057 20.7233C28.3771 20.7325 28.3509 20.7479 28.3289 20.7683L26.8387 22.1506Z" fill="#C7CFE2"/>
<path d="M9.2389 20.1716C8.79783 19.0029 8.44802 16.994 8.37246 15.9481C8.22871 13.9577 6.72877 12.3352 4.70115 12.3352C2.67352 12.3352 1.17358 13.9578 1.02983 15.9481C0.954272 16.9939 0.604459 19.0029 0.163397 20.1716C0.0662093 20.4292 0.178397 20.7133 0.432084 20.8283C0.904709 21.0424 1.9124 21.4621 3.12771 21.6255H6.27452C7.48415 21.4617 8.4989 21.0418 8.97015 20.8283C9.2239 20.7133 9.33608 20.4292 9.2389 20.1716Z" fill="#5A4146"/>
<path d="M8.97017 20.8283C9.22379 20.7133 9.33604 20.4293 9.23879 20.1716C8.79779 19.003 8.44792 16.9941 8.37242 15.9481C8.22873 13.9578 6.72873 12.3353 4.70117 12.3353L4.68586 12.3353C3.13004 12.3416 2.58023 14.4634 3.91954 15.2551C3.99998 15.3027 4.05154 15.3256 4.05154 15.3256L5.22461 21.6256H6.27454C7.48417 21.4616 8.49892 21.0418 8.97017 20.8283Z" fill="#694B4B"/>
<path d="M8.43437 22.6617L6.76412 21.8267C6.59264 21.7409 6.44843 21.6091 6.34764 21.4461C6.24686 21.283 6.19348 21.095 6.1935 20.9033L6.19362 19.3549H3.09675V20.9034C3.09675 21.0951 3.04337 21.283 2.94258 21.4461C2.8418 21.6091 2.69759 21.7409 2.52612 21.8266L0.855875 22.6617C0.59869 22.7903 0.382394 22.988 0.231226 23.2326C0.0800585 23.4772 -7.89365e-06 23.759 5.83699e-10 24.0466L5.83699e-10 27.0967C5.837e-10 27.2336 0.0543773 27.3648 0.15117 27.4616C0.247962 27.5584 0.37924 27.6128 0.516125 27.6128H8.77419C8.91107 27.6128 9.04235 27.5584 9.13914 27.4616C9.23594 27.3648 9.29031 27.2336 9.29031 27.0967V24.0466C9.29031 23.7591 9.21024 23.4772 9.05906 23.2326C8.90788 22.988 8.69157 22.7903 8.43437 22.6617Z" fill="#E6AF78"/>
<path d="M4.64516 21.4193C5.20091 21.4193 5.73322 21.3048 6.22122 21.1008C6.20841 21.0358 6.19347 20.9711 6.19347 20.9032L6.1936 19.3548H3.09672V20.9033C3.09672 20.9715 3.08179 21.0365 3.06885 21.1018C3.55716 21.3047 4.08922 21.4193 4.64516 21.4193Z" fill="#D29B6E"/>
<path d="M8.43437 22.6618L7.2445 22.0668C6.69275 22.9188 5.73581 23.4839 4.64519 23.4839C3.55456 23.4839 2.59756 22.9188 2.04581 22.0667L0.855937 22.6618C0.598746 22.7903 0.382441 22.988 0.231262 23.2326C0.0800838 23.4772 5.08312e-06 23.759 0 24.0466L0 27.0967C0 27.2336 0.0543773 27.3649 0.15117 27.4616C0.247962 27.5584 0.37924 27.6128 0.516125 27.6128H8.77419C8.91107 27.6128 9.04235 27.5584 9.13914 27.4616C9.23594 27.3649 9.29031 27.2336 9.29031 27.0967V24.0466C9.29031 23.7591 9.21024 23.4772 9.05906 23.2326C8.90788 22.988 8.69157 22.7903 8.43437 22.6618Z" fill="#D5DCED"/>
<path d="M4.64516 20.3871C3.07066 20.3871 1.77066 19.2121 1.5741 17.6911C1.5456 17.4707 1.65154 17.2547 1.84991 17.1546C2.08754 17.0347 2.43285 16.8326 2.76348 16.5376C3.13166 16.2091 3.34766 15.8627 3.46966 15.6084C3.57473 15.3894 3.81623 15.2655 4.0516 15.3256C5.86885 15.7891 7.10604 16.7345 7.55491 17.1205C7.67541 17.2241 7.74485 17.3769 7.73248 17.5354C7.60741 19.1311 6.27298 20.3871 4.64516 20.3871Z" fill="#F0C087"/>
<path d="M7.5549 17.1204C7.10608 16.7344 5.86883 15.789 4.05158 15.3255C3.81621 15.2654 3.57471 15.3893 3.46965 15.6083C3.37727 15.8009 3.22458 16.0463 2.99802 16.2968L2.99771 16.2986C2.9274 16.3783 2.85252 16.4581 2.76352 16.5376C2.4329 16.8327 2.08758 17.0348 1.84996 17.1546C1.65158 17.2547 1.54571 17.4708 1.57415 17.6912C1.75071 19.0571 2.81958 20.1444 4.17571 20.3517C3.55777 19.9314 3.09683 19.3532 3.09683 18.3226V17.5866C3.21408 17.5001 3.33215 17.4137 3.45077 17.3079C3.73613 17.0534 3.98457 16.7603 4.1889 16.4371C5.57908 16.8709 6.52158 17.5934 6.8789 17.9007C6.97671 17.9864 7.21946 18.2102 7.50346 18.4766C7.62565 18.1826 7.70646 17.8671 7.7324 17.5355C7.74483 17.3769 7.6754 17.2241 7.5549 17.1204Z" fill="#E6AF78"/>
<path d="M0.314625 23.1162C0.115812 23.3801 0 23.7037 0 24.0466V27.0967C0 27.2336 0.0543773 27.3649 0.15117 27.4616C0.247962 27.5584 0.37924 27.6128 0.516125 27.6128H2.0645V25.0122C2.0645 24.6986 1.92194 24.402 1.67706 24.2061L0.314625 23.1162Z" fill="#C7CFE2"/>
<path d="M23.4152 21.9574L19.0968 20.387L16 21.4193L12.9033 20.3871L8.58483 21.9574C8.18656 22.1023 7.84251 22.3661 7.59938 22.7132C7.35626 23.0603 7.22584 23.4738 7.22583 23.8976V27.0968C7.22583 27.2336 7.28021 27.3649 7.377 27.4617C7.47379 27.5585 7.60507 27.6129 7.74196 27.6129H24.2581C24.395 27.6129 24.5262 27.5585 24.623 27.4617C24.7198 27.3649 24.7742 27.2336 24.7742 27.0968V23.8976C24.7742 23.4738 24.6438 23.0603 24.4007 22.7132C24.1576 22.3661 23.8135 22.1022 23.4152 21.9574Z" fill="#FF507D"/>
<path d="M15.4593 22.4516L14.9678 27.6128H17.0323L16.5407 22.4516H15.4593Z" fill="#707487"/>
<path d="M16.5419 23.1607H15.4581C15.4107 23.1607 15.3637 23.1514 15.3198 23.1332C15.276 23.115 15.2362 23.0884 15.2026 23.0549C15.1691 23.0213 15.1424 22.9815 15.1243 22.9377C15.1061 22.8938 15.0968 22.8468 15.0968 22.7994V21.4193H16.9031V22.7994C16.9031 22.8468 16.8938 22.8938 16.8756 22.9376C16.8575 22.9815 16.8309 23.0213 16.7973 23.0549C16.7638 23.0884 16.724 23.115 16.6801 23.1332C16.6363 23.1513 16.5893 23.1607 16.5419 23.1607Z" fill="#5B5D6E"/>
<path d="M24.2186 22.4909C24.5671 22.865 24.7742 23.3632 24.7742 23.8976V27.0967C24.7742 27.2336 24.7198 27.3648 24.623 27.4616C24.5262 27.5584 24.3949 27.6128 24.2581 27.6128H21.6774V25.8873C21.6774 25.3397 21.8949 24.8146 22.2821 24.4275L24.2186 22.4909Z" fill="#D23C69"/>
<path d="M21.6774 9.74306V5.41931C21.6774 4.84919 21.2153 4.38706 20.6452 4.38706H14.4516C12.1713 4.38706 10.3226 6.23569 10.3226 8.51612V9.74306C10.3226 10.2978 10.412 10.8489 10.5874 11.3752L10.7593 11.8906C10.8119 12.0485 10.8387 12.2138 10.8387 12.3802V12.6451H21.1613V12.3802C21.1613 12.2138 21.1881 12.0485 21.2407 11.8906L21.4125 11.3752C21.588 10.8489 21.6774 10.2978 21.6774 9.74306Z" fill="#5A4146"/>
<path d="M12.9033 6.48381C12.9033 7.64181 13.842 8.58056 15 8.58056H15.2903L15.4304 12.6451H21.1613V12.3802C21.1613 12.2137 21.1881 12.0484 21.2407 11.8906L21.4125 11.3751C21.5879 10.8489 21.6774 10.2977 21.6774 9.743V5.41931C21.6774 4.84919 21.2152 4.38706 20.6451 4.38706H15C13.842 4.38706 12.9033 5.32581 12.9033 6.48381Z" fill="#694B4B"/>
<path d="M12.9031 16.7744H19.0969V21.4194H12.9031V16.7744Z" fill="#E6AF78"/>
<path d="M12.9033 18.5194C13.815 19.0476 14.8706 19.3547 16 19.3547C17.1294 19.3547 18.1851 19.0476 19.0968 18.5194V16.7741H12.9032L12.9033 18.5194Z" fill="#D29B6E"/>
<path d="M16 21.4193L14.3538 23.0654C14.1326 23.2867 13.7669 23.2618 13.5778 23.0125L11.871 20.7635L12.3174 19.8227C12.4492 19.5451 12.7928 19.4433 13.0544 19.6046L16 21.4193ZM16 21.4193L17.6461 23.0654C17.8673 23.2867 18.233 23.2618 18.4222 23.0125L20.129 20.7635L19.6825 19.8227C19.5508 19.5451 19.2072 19.4433 18.9455 19.6046L16 21.4193Z" fill="#D23C69"/>
<path d="M16 18.3226C13.1495 18.3226 10.8387 16.0117 10.8387 13.1612V12.5566C10.8387 12.2828 10.9474 12.0202 11.141 11.8266L11.5686 11.3991C11.6644 11.3032 11.7404 11.1894 11.7923 11.0642C11.8442 10.9389 11.8709 10.8047 11.8709 10.6691V9.43187C11.8709 9.19287 12.0314 8.98525 12.2639 8.93031C13.4846 8.642 17.2832 7.95906 19.8682 9.86031C20.0361 9.98375 20.1289 10.1866 20.1289 10.3949V10.6691C20.1289 10.9429 20.2377 11.2054 20.4312 11.3991L20.8588 11.8266C20.9547 11.9225 21.0307 12.0363 21.0826 12.1615C21.1344 12.2868 21.1611 12.421 21.1611 12.5566V13.1612C21.1613 16.0117 18.8505 18.3226 16 18.3226Z" fill="#F0C087"/>
<path d="M19.8683 9.86038C18.0502 8.52319 15.6351 8.46531 13.9355 8.64838C13.2186 8.72556 12.6262 8.84488 12.2641 8.93038C12.0315 8.98531 11.871 9.19294 11.871 9.43194V10.6691C11.871 10.9429 11.7622 11.2055 11.5686 11.3991L11.1411 11.8267C11.0452 11.9226 10.9691 12.0364 10.9173 12.1616C10.8654 12.2869 10.8387 12.4211 10.8387 12.5567V13.1613C10.8387 15.8003 12.8206 17.9729 15.3763 18.2813C14.4857 17.3539 13.9354 16.0971 13.9354 14.7097V10.9371C13.9354 10.4141 14.3244 9.97694 14.8433 9.91188C16.0819 9.75656 18.3506 9.66319 20.1289 10.6693V10.395C20.1291 10.1866 20.0361 9.98375 19.8683 9.86038Z" fill="#E6AF78"/>
<path d="M7.78139 22.4909C7.43289 22.865 7.22583 23.3632 7.22583 23.8976V27.0967C7.22583 27.2336 7.28021 27.3648 7.377 27.4616C7.47379 27.5584 7.60507 27.6128 7.74196 27.6128H10.3226V25.8873C10.3226 25.3397 10.1051 24.8146 9.71789 24.4275L7.78139 22.4909Z" fill="#D23C69"/>
</g>
<defs>
<clipPath id="clip0_107_3612">
<rect width="32" height="32" fill="white"/>
</clipPath>
</defs>
</svg>
