<svg width="80" height="16" viewBox="0 0 80 16" fill="none" xmlns="http://www.w3.org/2000/svg">
<path d="M8 10.8667L5.53333 12.75C5.41111 12.85 5.27778 12.8973 5.13333 12.892C4.98889 12.8867 4.86111 12.8449 4.75 12.7667C4.63889 12.6884 4.55289 12.5829 4.492 12.45C4.43111 12.3171 4.42822 12.1727 4.48333 12.0167L5.43333 8.93332L3.01667 7.21665C2.88333 7.12777 2.8 7.0111 2.76667 6.86665C2.73333 6.72221 2.73889 6.58888 2.78333 6.46665C2.82778 6.34443 2.90556 6.23599 3.01667 6.14132C3.12778 6.04665 3.26111 5.99954 3.41667 5.99999H6.4L7.36667 2.79999C7.42222 2.64443 7.50844 2.52488 7.62533 2.44132C7.74222 2.35777 7.86711 2.31621 8 2.31665C8.13289 2.3171 8.258 2.35888 8.37533 2.44199C8.49267 2.5251 8.57867 2.64443 8.63333 2.79999L9.6 5.99999H12.5833C12.7389 5.99999 12.8722 6.04732 12.9833 6.14199C13.0944 6.23665 13.1722 6.34488 13.2167 6.46665C13.2611 6.58843 13.2667 6.72177 13.2333 6.86665C13.2 7.01154 13.1167 7.12821 12.9833 7.21665L10.5667 8.93332L11.5167 12.0167C11.5722 12.1722 11.5696 12.3167 11.5087 12.45C11.4478 12.5833 11.3616 12.6889 11.25 12.7667C11.1384 12.8444 11.0107 12.8862 10.8667 12.892C10.7227 12.8978 10.5893 12.8504 10.4667 12.75L8 10.8667Z" fill="#FABB48"/>
<path d="M24 10.8667L21.5333 12.75C21.4111 12.85 21.2778 12.8973 21.1333 12.892C20.9889 12.8867 20.8611 12.8449 20.75 12.7667C20.6389 12.6884 20.5529 12.5829 20.492 12.45C20.4311 12.3171 20.4282 12.1727 20.4833 12.0167L21.4333 8.93332L19.0167 7.21665C18.8833 7.12777 18.8 7.0111 18.7667 6.86665C18.7333 6.72221 18.7389 6.58888 18.7833 6.46665C18.8278 6.34443 18.9056 6.23599 19.0167 6.14132C19.1278 6.04665 19.2611 5.99954 19.4167 5.99999H22.4L23.3667 2.79999C23.4222 2.64443 23.5084 2.52488 23.6253 2.44132C23.7422 2.35777 23.8671 2.31621 24 2.31665C24.1329 2.3171 24.258 2.35888 24.3753 2.44199C24.4927 2.5251 24.5787 2.64443 24.6333 2.79999L25.6 5.99999H28.5833C28.7389 5.99999 28.8722 6.04732 28.9833 6.14199C29.0944 6.23665 29.1722 6.34488 29.2167 6.46665C29.2611 6.58843 29.2667 6.72177 29.2333 6.86665C29.2 7.01154 29.1167 7.12821 28.9833 7.21665L26.5667 8.93332L27.5167 12.0167C27.5722 12.1722 27.5696 12.3167 27.5087 12.45C27.4478 12.5833 27.3616 12.6889 27.25 12.7667C27.1384 12.8444 27.0107 12.8862 26.8667 12.892C26.7227 12.8978 26.5893 12.8504 26.4667 12.75L24 10.8667Z" fill="#FABB48"/>
<path d="M40 10.8667L37.5333 12.75C37.4111 12.85 37.2778 12.8973 37.1333 12.892C36.9889 12.8867 36.8611 12.8449 36.75 12.7667C36.6389 12.6884 36.5529 12.5829 36.492 12.45C36.4311 12.3171 36.4282 12.1727 36.4833 12.0167L37.4333 8.93332L35.0167 7.21665C34.8833 7.12777 34.8 7.0111 34.7667 6.86665C34.7333 6.72221 34.7389 6.58888 34.7833 6.46665C34.8278 6.34443 34.9056 6.23599 35.0167 6.14132C35.1278 6.04665 35.2611 5.99954 35.4167 5.99999H38.4L39.3667 2.79999C39.4222 2.64443 39.5084 2.52488 39.6253 2.44132C39.7422 2.35777 39.8671 2.31621 40 2.31665C40.1329 2.3171 40.258 2.35888 40.3753 2.44199C40.4927 2.5251 40.5787 2.64443 40.6333 2.79999L41.6 5.99999H44.5833C44.7389 5.99999 44.8722 6.04732 44.9833 6.14199C45.0944 6.23665 45.1722 6.34488 45.2167 6.46665C45.2611 6.58843 45.2667 6.72177 45.2333 6.86665C45.2 7.01154 45.1167 7.12821 44.9833 7.21665L42.5667 8.93332L43.5167 12.0167C43.5722 12.1722 43.5696 12.3167 43.5087 12.45C43.4478 12.5833 43.3616 12.6889 43.25 12.7667C43.1384 12.8444 43.0107 12.8862 42.8667 12.892C42.7227 12.8978 42.5893 12.8504 42.4667 12.75L40 10.8667Z" fill="#FABB48"/>
<path d="M56 10.8667L53.5333 12.75C53.4111 12.85 53.2778 12.8973 53.1333 12.892C52.9889 12.8867 52.8611 12.8449 52.75 12.7667C52.6389 12.6884 52.5529 12.5829 52.492 12.45C52.4311 12.3171 52.4282 12.1727 52.4833 12.0167L53.4333 8.93332L51.0167 7.21665C50.8833 7.12777 50.8 7.0111 50.7667 6.86665C50.7333 6.72221 50.7389 6.58888 50.7833 6.46665C50.8278 6.34443 50.9056 6.23599 51.0167 6.14132C51.1278 6.04665 51.2611 5.99954 51.4167 5.99999H54.4L55.3667 2.79999C55.4222 2.64443 55.5084 2.52488 55.6253 2.44132C55.7422 2.35777 55.8671 2.31621 56 2.31665C56.1329 2.3171 56.258 2.35888 56.3753 2.44199C56.4927 2.5251 56.5787 2.64443 56.6333 2.79999L57.6 5.99999H60.5833C60.7389 5.99999 60.8722 6.04732 60.9833 6.14199C61.0944 6.23665 61.1722 6.34488 61.2167 6.46665C61.2611 6.58843 61.2667 6.72177 61.2333 6.86665C61.2 7.01154 61.1167 7.12821 60.9833 7.21665L58.5667 8.93332L59.5167 12.0167C59.5722 12.1722 59.5696 12.3167 59.5087 12.45C59.4478 12.5833 59.3616 12.6889 59.25 12.7667C59.1384 12.8444 59.0107 12.8862 58.8667 12.892C58.7227 12.8978 58.5893 12.8504 58.4667 12.75L56 10.8667Z" fill="#FABB48"/>
<path d="M72 10.8667L69.5333 12.75C69.4111 12.85 69.2778 12.8973 69.1333 12.892C68.9889 12.8867 68.8611 12.8449 68.75 12.7667C68.6389 12.6884 68.5529 12.5829 68.492 12.45C68.4311 12.3171 68.4282 12.1727 68.4833 12.0167L69.4333 8.93332L67.0167 7.21665C66.8833 7.12777 66.8 7.0111 66.7667 6.86665C66.7333 6.72221 66.7389 6.58888 66.7833 6.46665C66.8278 6.34443 66.9056 6.23599 67.0167 6.14132C67.1278 6.04665 67.2611 5.99954 67.4167 5.99999H70.4L71.3667 2.79999C71.4222 2.64443 71.5084 2.52488 71.6253 2.44132C71.7422 2.35777 71.8671 2.31621 72 2.31665C72.1329 2.3171 72.258 2.35888 72.3753 2.44199C72.4927 2.5251 72.5787 2.64443 72.6333 2.79999L73.6 5.99999H76.5833C76.7389 5.99999 76.8722 6.04732 76.9833 6.14199C77.0944 6.23665 77.1722 6.34488 77.2167 6.46665C77.2611 6.58843 77.2667 6.72177 77.2333 6.86665C77.2 7.01154 77.1167 7.12821 76.9833 7.21665L74.5667 8.93332L75.5167 12.0167C75.5722 12.1722 75.5696 12.3167 75.5087 12.45C75.4478 12.5833 75.3616 12.6889 75.25 12.7667C75.1384 12.8444 75.0107 12.8862 74.8667 12.892C74.7227 12.8978 74.5893 12.8504 74.4667 12.75L72 10.8667Z" fill="#FABB48"/>
</svg>
