<svg width="25" height="32" viewBox="0 0 25 32" fill="none" xmlns="http://www.w3.org/2000/svg">
<path d="M23.7762 17.0156L23.6112 18.5L23.5 19.5H9.5L9.38875 18.5L9.22375 17.0156C9.07707 15.6945 9.27517 14.358 9.79875 13.1362C10.2599 12.0595 10.4694 10.8918 10.4112 9.72187L10.3244 7.99187C10.2826 7.15495 10.4114 6.31828 10.7029 5.53265C10.9944 4.74703 11.4425 4.02886 12.0201 3.42174C12.5977 2.81463 13.2926 2.33124 14.0627 2.00094C14.8328 1.67064 15.662 1.50032 16.5 1.50032C17.338 1.50032 18.1672 1.67064 18.9373 2.00094C19.7074 2.33124 20.4023 2.81463 20.9799 3.42174C21.5575 4.02886 22.0056 4.74703 22.2971 5.53265C22.5886 6.31828 22.7174 7.15495 22.6756 7.99187L22.5887 9.72187C22.5306 10.8918 22.7401 12.0595 23.2012 13.1362C23.725 14.3579 23.9231 15.6945 23.7762 17.0156Z" fill="#8F4D2E"/>
<path d="M23.7763 17.0156L23.6113 18.5H18V13L19 11V7C18.9994 5.79464 18.6032 4.62281 17.8722 3.66436C17.1413 2.70592 16.116 2.01385 14.9538 1.69438C15.8928 1.45334 16.8753 1.43623 17.8222 1.64443C18.769 1.85263 19.6538 2.28032 20.4051 2.89304C21.1564 3.50576 21.7533 4.28639 22.1476 5.17202C22.542 6.05766 22.7229 7.02355 22.6756 7.99188L22.5888 9.72188C22.5306 10.8918 22.7401 12.0595 23.2013 13.1362C23.725 14.3579 23.9231 15.6945 23.7763 17.0156Z" fill="#82462A"/>
<path d="M19.2 17.5C19.1081 17.5 19.017 17.482 18.9321 17.4468C18.8471 17.4117 18.7699 17.3601 18.7049 17.2951C18.6399 17.2301 18.5883 17.1529 18.5532 17.0679C18.518 16.983 18.5 16.8919 18.5 16.8V13.5H14.5V16.8C14.5 16.8919 14.482 16.983 14.4468 17.0679C14.4117 17.1529 14.3601 17.2301 14.2951 17.2951C14.2301 17.3601 14.1529 17.4117 14.0679 17.4468C13.983 17.482 13.8919 17.5 13.8 17.5H13V20.5H20V17.5H19.2Z" fill="#FEC9A3"/>
<path d="M16.8015 16C17.4206 15.9932 18.0192 15.7772 18.5 15.3871V13.5H14.5V15.3869C14.9808 15.7771 15.5794 15.9932 16.1985 16H16.8015Z" fill="#FEB784"/>
<path d="M21 8V10.5C21 11.6935 20.5259 12.8381 19.682 13.682C18.8381 14.5259 17.6935 15 16.5 15C15.3065 15 14.1619 14.5259 13.318 13.682C12.4741 12.8381 12 11.6935 12 10.5V8C12.9831 7.34486 13.7781 6.44431 14.3062 5.3875L14.5 5L14.7837 5.23688C16.0261 6.2721 17.4582 7.05543 19 7.54313C19.653 7.75009 20.3219 7.9029 21 8Z" fill="#FEC9A3"/>
<path d="M21 8V10.5C20.9998 11.5445 20.6364 12.5564 19.9721 13.3624C19.3078 14.1684 18.384 14.7184 17.3587 14.9181C17.8793 14.4071 18.2926 13.7974 18.5745 13.1246C18.8563 12.4517 19.001 11.7294 19 11V7.54312C19.653 7.75009 20.3219 7.9029 21 8Z" fill="#FEC093"/>
<path d="M14.25 10C14.1017 10 13.9567 9.95601 13.8333 9.8736C13.71 9.79119 13.6139 9.67406 13.5571 9.53701C13.5003 9.39997 13.4855 9.24917 13.5144 9.10368C13.5434 8.9582 13.6148 8.82456 13.7197 8.71967C13.8246 8.61478 13.9582 8.54335 14.1037 8.51441C14.2492 8.48547 14.4 8.50033 14.537 8.55709C14.6741 8.61386 14.7912 8.70999 14.8736 8.83332C14.956 8.95666 15 9.10166 15 9.25C14.9998 9.44885 14.9207 9.63949 14.7801 9.78009C14.6395 9.9207 14.4488 9.99979 14.25 10ZM18.75 10C18.6017 10 18.4567 9.95601 18.3333 9.8736C18.21 9.79119 18.1139 9.67406 18.0571 9.53701C18.0003 9.39997 17.9855 9.24917 18.0144 9.10368C18.0434 8.9582 18.1148 8.82456 18.2197 8.71967C18.3246 8.61478 18.4582 8.54335 18.6037 8.51441C18.7492 8.48547 18.9 8.50033 19.037 8.55709C19.1741 8.61386 19.2912 8.70999 19.3736 8.83332C19.456 8.95666 19.5 9.10166 19.5 9.25C19.4998 9.44885 19.4207 9.63949 19.2801 9.78009C19.1395 9.9207 18.9488 9.99979 18.75 10Z" fill="#7A432A"/>
<path d="M16.5 12.5C16.1023 12.4996 15.721 12.3414 15.4398 12.0602C15.1586 11.779 15.0004 11.3977 15 11H16C16 11.1326 16.0527 11.2598 16.1464 11.3536C16.2402 11.4473 16.3674 11.5 16.5 11.5C16.6326 11.5 16.7598 11.4473 16.8536 11.3536C16.9473 11.2598 17 11.1326 17 11H18C17.9996 11.3977 17.8414 11.779 17.5602 12.0602C17.279 12.3414 16.8977 12.4996 16.5 12.5Z" fill="#F7A468"/>
<path d="M14 19.5H19V23H14V19.5Z" fill="#E0E0DE"/>
<path d="M26.6856 30.4794C26.3309 30.5385 25.9668 30.4697 25.658 30.2853C25.3493 30.1009 25.1161 29.8128 25 29.4725L21.6975 23.2769C21.9078 23.9055 21.9541 24.5774 21.832 25.229C21.7099 25.8805 21.4236 26.4901 21 27V31H12V27C11.5703 26.4842 11.281 25.8663 11.1601 25.2059C11.0392 24.5456 11.0909 23.8652 11.31 23.2306L7.95375 29.4725C7.82492 29.8513 7.55166 30.1639 7.19345 30.3422C6.83524 30.5205 6.42109 30.5501 6.04119 30.4244C5.6613 30.2988 5.34641 30.0282 5.16509 29.6715C4.98378 29.3148 4.95072 28.9009 5.07312 28.52L8.74437 19.3819C8.96746 18.8261 9.35181 18.3499 9.84795 18.0145C10.3441 17.6791 10.9293 17.4999 11.5281 17.5H13.5L16.5 23L19.5 17.5H21.4644C22.0649 17.5004 22.6515 17.6809 23.1485 18.0182C23.6454 18.3554 24.0297 18.8339 24.2519 19.3919L27.8812 28.52C27.9475 28.7274 27.9685 28.9466 27.9426 29.1628C27.9167 29.379 27.8445 29.587 27.7311 29.7729C27.6177 29.9587 27.4657 30.118 27.2853 30.2399C27.1049 30.3618 26.9004 30.4435 26.6856 30.4794Z" fill="#EC8C8C"/>
<path d="M4.63938 28.6881L5 24H8V28.8172C8 29.2635 7.82271 29.6915 7.50712 30.0071C7.19153 30.3227 6.7635 30.5 6.31719 30.5C6.08532 30.5 5.85596 30.4521 5.64349 30.3593C5.43101 30.2664 5.24002 30.1307 5.08248 29.9606C4.92494 29.7905 4.80426 29.5896 4.72801 29.3706C4.65176 29.1517 4.62158 28.9193 4.63938 28.6881Z" fill="#F59898"/>
<path d="M6.17631 16.7062C6.03501 16.7416 5.90345 16.8082 5.79133 16.9012C5.67922 16.9941 5.58941 17.1111 5.52855 17.2434C5.46769 17.3757 5.43732 17.52 5.43969 17.6657C5.44207 17.8113 5.47711 17.9545 5.54225 18.0848L6 19H4.20819C3.74246 19 3.28313 18.8916 2.86656 18.6833L2.36831 18.4342C2.27684 18.3885 2.17519 18.3669 2.07303 18.3715C1.97086 18.3761 1.87157 18.4067 1.78457 18.4605C1.69757 18.5142 1.62576 18.5893 1.57596 18.6787C1.52615 18.768 1.50001 18.8685 1.5 18.9708V20.3819C1.5 20.5677 1.55172 20.7497 1.64936 20.9077C1.747 21.0657 1.8867 21.1933 2.05281 21.2764L2.86656 21.6833C3.28313 21.8916 3.74246 22 4.20819 22H8V19L7.31531 17.2883C7.22791 17.07 7.06436 16.8907 6.85495 16.7837C6.64554 16.6767 6.40445 16.6492 6.17631 16.7062Z" fill="#FEC9A3"/>
<path d="M5 22H8V24H5V22Z" fill="#E0E0DE"/>
<path d="M26.6856 30.4794C26.3309 30.5385 25.9668 30.4697 25.658 30.2853C25.3493 30.1009 25.1161 29.8128 25 29.4725L21.6975 23.2769C21.9078 23.9055 21.9541 24.5774 21.832 25.229C21.7099 25.8805 21.4236 26.4901 21 27V31H12.1644C16.2912 28.305 19.7731 24.885 22.6956 17.765C23.4062 18.0843 23.9644 18.6678 24.2519 19.3919L27.8812 28.52C27.9475 28.7274 27.9684 28.9466 27.9425 29.1628C27.9166 29.379 27.8445 29.587 27.7311 29.7729C27.6177 29.9587 27.4657 30.118 27.2853 30.2399C27.1049 30.3618 26.9004 30.4435 26.6856 30.4794Z" fill="#E07F7F"/>
<path d="M23.5 29L18.5 28V21L23.5 22V29Z" fill="#A36548"/>
<path d="M23.5 22H25.5V29H23.5V22Z" fill="#95573A"/>
<path d="M24.5 22C24.5 21.5809 24.3513 21.1753 24.0804 20.8555C23.8095 20.5357 23.4339 20.3223 23.0204 20.2534L18.5 19.5V21L23.5 22H24.5C24.5 21.5809 24.6487 21.1753 24.9196 20.8555C25.1905 20.5357 25.5661 20.3223 25.9796 20.2534L30.5 19.5V21L25.5 22H24.5Z" fill="#D4BD81"/>
</svg>
